<?xml version="1.0" standalone="no"?>
<!DOCTYPE svg PUBLIC "-//W3C//DTD SVG 1.1//EN" "http://www.w3.org/Graphics/SVG/1.1/DTD/svg11.dtd" >
<svg xmlns="http://www.w3.org/2000/svg">
<metadata></metadata>
<defs>
<font id="bolero_scriptregular" horiz-adv-x="614" >
<font-face units-per-em="2048" ascent="1638" descent="-410" />
<missing-glyph horiz-adv-x="520" />
<glyph horiz-adv-x="0" />
<glyph unicode="&#xd;" horiz-adv-x="520" />
<glyph unicode=" "  horiz-adv-x="520" />
<glyph unicode="&#x09;" horiz-adv-x="520" />
<glyph unicode="&#xa0;" horiz-adv-x="520" />
<glyph unicode="!" horiz-adv-x="475" d="M-8 66q0 10 33 36q25 20 32 21q10 0 36 -31t26 -37q0 -14 -33 -43q-25 -23 -37 -22q-8 0 -39 41q-18 25 -18 35zM80 256q31 78 135 489q29 135 111 404q27 70 141 121q29 12 35 2q2 -2 -15.5 -26.5t-52.5 -92.5q-74 -176 -147 -428q-35 -117 -101 -348q-14 -51 -26 -70 q-19 -20 -80 -51z" />
<glyph unicode="&#x22;" horiz-adv-x="540" d="M246 1059q0 45 4 141q2 49 4 129q4 61 61 62q51 0 45 -52q-4 -37 -45 -161q-14 -41 -43 -131q-10 -29 -18 -29q-10 0 -8 41zM465 1059q0 45 4 141q2 49 4 129q4 61 62 62q51 0 45 -52q-4 -37 -45 -161q-14 -41 -43 -131q-11 -29 -19 -29q-10 0 -8 41z" />
<glyph unicode="#" horiz-adv-x="749" d="M-59 305q0 16 18 53t25 33q33 -2 182 -6q18 64 51 195q-80 -2 -186 -7q-4 0 -4 7q0 16 18 53t25 33q31 -2 166 -7l57 242q6 27 47 27q20 0 16 -13q-2 -8 -67 -256q27 -2 157 -2l60 244q6 27 45 27q20 0 16 -13q-10 -39 -67 -258q176 4 198 7q2 0 2 -5q0 -16 -18 -52 t-27 -36q-55 6 -178 7q-20 -86 -49 -195q162 4 184 6q2 0 2 -4q0 -16 -18 -53t-27 -35q-18 2 -161 6q-37 -143 -72 -276q-6 -25 -45 -25q-18 0 -15 12q20 68 80 291q-27 2 -157 2l-76 -280q-6 -25 -45 -25q-18 0 -15 12q25 82 82 293q-141 -4 -200 -8q-4 0 -4 6zM217 385 q29 -2 160 -2q18 66 51 197q-29 2 -160 2q-4 -16 -51 -197z" />
<glyph unicode="$" horiz-adv-x="729" d="M-23 55q0 59 29 107q6 20 19 18q4 -4 -3.5 -23.5t-3.5 -45.5q12 -66 121 -66q51 0 84 6l119 473q-51 72 -104 146q-51 84 -54 164q-2 180 209 305q66 39 123 57l37 143h35l-35 -135q61 10 106 10q86 0 76 -57q-8 -47 -53 -31q-90 31 -139 29l-127 -496q88 -117 104 -147 q49 -82 43 -160q-8 -129 -129 -229q-76 -63 -182 -103l-37 -139h-37l33 127q-86 -18 -156 -20q-78 -2 -78 67zM260 57q189 39 189 217q0 115 -80 222zM299 926q-8 -96 90 -234l117 463q-68 -2 -123 -49q-74 -63 -84 -180z" />
<glyph unicode="%" horiz-adv-x="878" d="M-72 -6q12 14 74 98q106 147 436 635q174 258 328 506q33 53 65 70q21 8 105 20q-10 -8 -74 -94q-162 -217 -366 -514q-160 -233 -404 -639q-23 -39 -54.5 -54.5t-109.5 -27.5zM172 924q6 178 113 299q57 82 141 82t80 -129q-6 -174 -117 -299q-76 -86 -137 -86 q-84 0 -80 133zM240 961q-4 -55 12 -87t47 -32q45 2 76 53q57 101 63 246q4 123 -61 123q-39 0 -74 -62q-55 -96 -63 -241zM352 125q6 180 113 299q57 82 141 82t80 -129q-6 -174 -117 -299q-76 -86 -137 -86q-84 0 -80 133zM420 162q-2 -53 13.5 -86t45.5 -33q45 2 76 55 q57 99 63 244q4 123 -61 123q-41 0 -74 -59q-57 -102 -63 -244z" />
<glyph unicode="&#x26;" horiz-adv-x="1198" d="M0 274q0 106 68 222q59 96 143 163q123 98 309 146q-88 23 -153 90q-76 76 -76 174q0 143 162 262q156 115 325 115q100 0 154 -21q33 -12 24 -55q-25 -127 -47 -199q-10 -31 -24 -24q-8 2 4 37q27 80 26 135q0 45 -65 72q-51 20 -121 20q-131 0 -225 -86 q-100 -88 -105 -221q-4 -125 74 -201t203 -88q238 -25 375 -14q41 2 108 8q12 2 15 -8q0 -10 -17 -13q-70 0 -84 -12t-24 -45q-29 -88 -91 -330q-49 -195 -57 -305q-6 -80 57 -80q57 0 158 95q25 23 27 20q2 -2 2 -6q0 2 -19 -25q-51 -57 -145 -116q-102 -63 -154 -64 q-68 0 -61 74q2 12 18 94q-152 -133 -391 -131q-184 2 -291 96q-102 88 -102 221zM129 358q0 -152 88 -241q96 -94 272 -94q147 0 240 55q55 33 86 117q20 82 57 217q43 156 64 295q6 35 -31 48t-170 25q-96 8 -166 0q-209 -25 -329 -147q-111 -115 -111 -275z" />
<glyph unicode="'" horiz-adv-x="321" d="M246 1059q0 45 4 141q2 49 4 129q4 61 61 62q51 0 45 -52q-4 -37 -45 -161q-14 -41 -43 -131q-10 -29 -18 -29q-10 0 -8 41z" />
<glyph unicode="(" horiz-adv-x="462" d="M96 336q0 174 43 362q39 170 152 377q123 225 246 326q14 10 22 10q6 0 6 -4q0 -6 -8 -14q-90 -98 -188 -320q-92 -211 -138 -405q-57 -254 -57 -447q0 -180 49 -321q2 -4 2 -6q0 -8 -10 -7q-12 2 -20 13q-98 156 -99 436z" />
<glyph unicode=")" horiz-adv-x="462" d="M-72 -88q0 6 9 14q90 98 188 320q92 211 137 405q57 254 57 447q0 180 -49 321q-2 4 -2 6q0 8 11 7q12 -2 20 -13q98 -156 98 -436q0 -174 -43 -362q-39 -170 -151 -377q-123 -225 -246 -326q-14 -10 -23 -10q-6 0 -6 4z" />
<glyph unicode="*" horiz-adv-x="749" d="M254 1020q0 6 2 8q172 90 217 119q-133 82 -203 127q-8 8 9.5 29.5t25.5 15.5q123 -102 176 -152q10 94 25 217q2 12 29 9q27 -4 24 -15q-20 -68 -55 -211q76 53 182 129q8 4 20.5 -12t12.5 -29q0 -2 -2 -4q-70 -31 -207 -106q18 -10 201 -137q6 -4 -10.5 -25.5 t-24.5 -15.5q-98 82 -178 161q-8 -104 -25 -254q-2 -10 -29 -4q-29 4 -26 13q23 88 57 239q-14 -10 -190 -141q-8 -6 -19.5 9.5t-11.5 29.5z" />
<glyph unicode="+" horiz-adv-x="686" d="M35 582q0 16 13 49t20 28q139 -10 223 -12q-6 100 -12 234q0 14 29.5 27.5t53.5 13.5q14 0 15 -9q-4 -49 -8 -100q-6 -94 -7 -166q152 4 261 15q4 -2 4 -9q0 -16 -13.5 -47t-23.5 -31q-83 9 -228 13q2 -68 6.5 -161t4.5 -114q0 -12 -33 -29.5t-51 -17.5q-8 0 -8 6 q4 61 6 123q6 111 6 191q-162 -4 -254 -13q-4 0 -4 9z" />
<glyph unicode="," horiz-adv-x="262" d="M-86 -242q-2 4 16 31q35 47 62 133q18 59 18 112.5t51 61.5q55 10 56 -45q0 -59 -68 -155q-53 -76 -115 -129q-14 -15 -20 -9z" />
<glyph unicode="-" horiz-adv-x="657" d="M74 455q-8 2 8 51q29 82 94 82q14 0 85 -3t89 -3q143 0 172 12q10 4 18.5 16.5t12.5 12.5q12 0 -4 -41q-20 -51 -33 -68q-18 -23 -55 -22q-31 0 -111 4t-112 4q-115 -1 -138 -17q-4 -4 -13 -17t-13 -11z" />
<glyph unicode="." horiz-adv-x="262" d="M-25 47q0 14 45 51q37 29 50 29q14 0 45 -41q25 -31 24 -41q0 -14 -45 -53q-37 -33 -49 -33t-41 37t-29 51z" />
<glyph unicode="/" horiz-adv-x="579" d="M-106 -88q2 2 67 123q156 285 287 545q104 199 258 497q43 90 69 105q47 16 93 30q-2 -4 -70 -122q-150 -264 -279 -512q-202 -387 -270 -541q-23 -49 -52.5 -72.5t-102.5 -52.5z" />
<glyph unicode="0" horiz-adv-x="976" d="M37 276q-14 197 65 422q63 184 152 301q123 164 250 238q23 12 26 4q4 -8 -16 -18q-137 -102 -217 -246q-66 -115 -107 -289q-47 -182 -38 -319q16 -297 219 -297q164 0 282 217q158 291 158 602q0 37 -2 72q-18 252 -164 251q-59 0 -127 -55q-8 -8 -14 -2q-4 4 10 23 q100 121 242 120q74 0 121 -59t53 -156q23 -369 -236 -786q-74 -121 -176 -207q-131 -115 -252 -115q-209 0 -229 299z" />
<glyph unicode="1" horiz-adv-x="563" d="M37 -20q-8 6 2 36q90 276 174 582q43 166 123 461q12 45 31.5 70t85.5 88q-176 -119 -303 -160q-25 -8 -39 12q-2 16 69 41q45 14 92 29q154 74 318 178q20 12 28 0q6 -8 -10 -19q-29 -16 -57.5 -32.5t-44.5 -51.5q-55 -119 -154 -448q-78 -264 -164 -670q-8 -35 -22 -43 q-76 -43 -99.5 -60.5t-29.5 -12.5z" />
<glyph unicode="2" horiz-adv-x="923" d="M-119 4q-14 0 6 27q14 18 39 39q41 33 58 41q66 29 116 59q158 100 293 242q270 285 287 514q8 137 -56.5 208.5t-179.5 71.5q-92 0 -178 -57q-78 -53 -112 -129q-10 -33 -25 -25q-10 6 2 31q51 96 152 176q125 102 249 103q133 0 201 -78q59 -70 55 -187 q-10 -268 -370 -641q-158 -163 -303 -276q61 6 225 -10q193 -20 256 -21q90 0 135 74q8 16 12 16q12 -4 2 -24q-25 -57 -55 -103q-47 -72 -149 -71q-43 0 -232.5 30.5t-273.5 30.5q-76 0 -133 -31q-27 -10 -21 -10z" />
<glyph unicode="3" horiz-adv-x="759" d="M-129 4q0 25 21.5 38t50.5 7q111 -27 155 -26q158 0 271 100q125 113 125 291q0 102 -81 178t-177 76q-18 0 -31 -6q-23 -8 -25 4q-4 16 21 20q152 25 253 135.5t101 249.5q0 76 -56.5 122t-133.5 46q-137 0 -215 -102q-18 -23 -31 -17q-16 10 10 39q43 47 137 92 q115 53 221 54q80 0 134.5 -47.5t54.5 -124.5q0 -129 -119 -256q-96 -107 -207 -152q125 -2 200 -81t71 -198q-6 -229 -310 -399q-182 -102 -344 -102q-96 0 -96 59z" />
<glyph unicode="4" horiz-adv-x="937" d="M-18 604q4 10 26 27q137 96 176 127q117 88 215 180q193 180 332 352q29 35 25 35q14 0 10 -33q-2 -20 -18 -43q-92 -129 -326 -342q-199 -182 -352 -274q135 41 481 20q72 260 137 447q23 66 72 106q20 16 106 62q20 10 25 4q2 -4 -14 -19q-27 -27 -46 -67 q-90 -197 -186 -541q76 -4 96 -4q55 2 70 33q6 16 12 16q10 0 6 -18q-20 -90 -55 -117q-27 -18 -86 -14q-45 4 -70 6q-41 -156 -112 -469q-6 -27 -23 -39q-41 -27 -104 -74q-14 -16 -25 -12q-6 4 4 29q27 70 97 317q20 74 69 260q-200 37 -440 37q-53 0 -76.5 -9t-21.5 -12 q-12 8 -4 29z" />
<glyph unicode="5" horiz-adv-x="786" d="M-94 12q-2 20 13 37t36 17q14 0 56 -14.5t83 -16.5q258 -8 377 170q59 90 59 196q0 111 -88 187q-53 47 -190 110q-90 43 -90 107q0 31 14 72q41 115 115 311q29 70 35 78q12 16 45 16q-18 0 108 -4q106 -2 176 0q74 2 86 4q39 4 58 21l12 6q6 -2 2 -21q-29 -74 -49 -90 q-27 -23 -107 -20q-215 6 -292 6q-25 0 -37.5 -12.5t-18.5 -28.5q-25 -63 -67 -215q-2 -12 -2 -25q0 -53 55 -84q221 -125 244 -141q119 -90 118 -205q0 -137 -137 -289q-98 -109 -264 -174q-133 -53 -219 -53q-129 0 -131 55z" />
<glyph unicode="6" horiz-adv-x="761" d="M-25 315q0 203 110 436.5t263 370.5q221 197 383 197q111 0 109 -57q-2 -45 -60 -45q-18 0 -55 11t-68 13q-127 4 -251 -111q-102 -94 -179 -268q-66 -150 -92 -313q61 106 170 164q92 49 174 45q188 -10 197 -246q6 -205 -128 -371t-300 -166q-121 0 -197 92.5 t-76 247.5zM102 252q4 -98 53.5 -160.5t135.5 -62.5q121 0 203 112q77 107 81 250q8 289 -186 289q-92 0 -170 -70q-125 -111 -117 -358z" />
<glyph unicode="7" horiz-adv-x="745" d="M127 -14q45 233 149 465q96 215 291 499q105 152 238 277q-55 -35 -158 -37q-190 -4 -282 -4q-84 0 -117 -8q-59 -18 -80 -76q-8 -27 -18 -25q-8 2 2 37q18 63 41 109q35 72 108 71q82 0 248 -18.5t227 -18.5q51 0 96 21q8 -4 7 -14q-137 -113 -224 -246 q-180 -276 -278 -567q-61 -182 -103 -385q-6 -25 -28 -43q-35 -20 -99 -62q-10 -8 -16 -2q-8 6 -4 27z" />
<glyph unicode="8" horiz-adv-x="854" d="M-6 205q0 246 373 473q-143 143 -144 268q0 119 82 221q70 86 178 138q10 6 17 -2q4 -4 -11 -13q-164 -94 -163 -282q0 -78 41 -142q23 -37 106 -125q152 -164 156 -166q84 -108 84 -210q0 -129 -146 -259q-152 -133 -317 -133q-104 0 -180 62.5t-76 169.5zM113 238 q0 -102 65 -156q57 -47 146 -47q106 0 184 61q98 74 98 209q0 109 -74 205q-25 33 -151 154q-268 -170 -268 -426zM496 739q-4 4 18 23q190 154 191 340q0 164 -150 164q-2 0 -23 -4q-12 -2 -14 2q-4 10 8 14q74 37 129 37q160 0 160 -168q0 -203 -295 -399q-20 -14 -24 -9z " />
<glyph unicode="9" horiz-adv-x="880" d="M-35 41q2 45 58 45q18 0 56 -11.5t68 -13.5q72 -2 107 7q74 16 145 82q102 94 179 268q66 150 92 313q-61 -104 -170 -162q-92 -49 -174 -45q-195 10 -197 244q-2 201 131 369t297 168q121 0 196.5 -92.5t75.5 -247.5q0 -203 -109 -436.5t-265 -370.5 q-201 -178 -379 -178q-113 0 -111 61zM229 889q-10 -287 185 -287q92 0 172 72q125 110 119 356q-2 96 -53.5 158.5t-137.5 62.5q-121 0 -203 -114q-76 -104 -82 -248z" />
<glyph unicode=":" horiz-adv-x="323" d="M-2 47q0 14 45 51q37 29 49 29q14 0 45 -41q25 -31 25 -41q0 -14 -45 -53q-37 -33 -49 -33t-41 37t-29 51zM98 563q0 14 45 51q37 29 50 29q14 0 45 -41q25 -31 24 -41q0 -14 -45 -53q-37 -33 -49 -33t-41 37t-29 51z" />
<glyph unicode=";" horiz-adv-x="331" d="M-61 -244q-2 4 16 31q35 47 61 133q18 59 18.5 112.5t51.5 61.5q55 10 55 -45q0 -59 -67 -155q-53 -76 -115 -130q-14 -14 -20 -8zM104 557q0 14 46 51q37 29 49 29q14 0 45 -41q25 -31 24 -41q0 -14 -45 -53q-37 -33 -49 -33t-41 37t-29 51z" />
<glyph unicode="&#x3c;" horiz-adv-x="632" d="M78 604q-16 14 6 29q92 39 231 121q104 63 209 125q8 6 31 -13q12 -23 8 -26q-289 -152 -356 -197q-23 -10 -8 -25q78 -78 254 -256q8 -6 4 -18q-10 -8 -35 -25q-27 -23 -45 -16q-6 -4 -10 0q-6 6 -7 6q-125 162 -282 295z" />
<glyph unicode="=" horiz-adv-x="686" d="M14 496q0 14 13.5 46.5t19.5 30.5q74 -12 258 -12q156 0 297 14q4 0 4 -6q0 -18 -13 -49t-24 -31q-115 11 -262 11q-154 0 -289 -13q-4 0 -4 9zM49 670q0 14 13.5 47t19.5 31q74 -12 258 -13q156 0 297 15q4 0 4 -7q0 -18 -13.5 -48.5t-23.5 -30.5q-115 10 -262 10 q-154 0 -289 -12q-4 0 -4 8z" />
<glyph unicode="&#x3e;" horiz-adv-x="632" d="M96 326q233 147 326 219q23 14 4 26q-63 45 -301 240q-10 8 0 18q6 10 25 27q29 20 43 21q6 4 10 0q4 -6 8 -7q152 -152 332 -276q16 -13 0 -29q-68 -37 -400 -276q-10 -4 -30 10q-18 23 -17 27z" />
<glyph unicode="?" horiz-adv-x="624" d="M84 51q0 62 61 62t62 -64q0 -59 -62 -59q-61 0 -61 61zM115 1092q31 68 110 125q94 68 189 67q215 0 215 -203q0 -84 -62 -178q-39 -59 -129 -157.5t-116 -139.5q-78 -125 -97 -256q-2 -31 -8 -80q-12 -49 -49 -43q-39 6 -31 64q20 131 172 330q139 180 166 225 q57 88 60 160q4 96 -58 151q-55 49 -141 49q-141 0 -201 -119q-10 -18 -18 -16t-2 21z" />
<glyph unicode="@" horiz-adv-x="1175" d="M66 428q0 225 178 426q190 215 454 231q201 12 321 -91t103 -273q-16 -170 -166 -309q-116 -107 -270 -115q-55 -2 -55 59q0 90 49 248q-35 -66 -94 -135q-145 -168 -211 -168q-39 0 -37 66q4 150 96 323q45 84 144 164q86 70 145 70q53 0 53 -54q0 -8 -2 -18 q33 18 57 43q14 14 23 12q4 -8 -6 -20q-53 -90 -96 -248q-31 -115 -33 -195q-2 -78 31 -92q14 -6 32 -6q68 0 154 70q104 84 123 289q14 166 -90 266q-100 94 -275 94q-154 0 -299 -118t-200 -273q-41 -113 -41 -215q0 -184 106 -269q119 -94 295 -94q37 0 78 4 q190 18 297 115q10 8 18 6t8 -10q0 -4 -2 -10q-12 -25 -98 -62q-106 -45 -231 -61q-70 -10 -133 -10q-215 0 -326 106q-100 96 -100 254zM426 424q0 -49 20 -49q37 0 125 106q96 115 158 269q21 51 21 94q0 29 -39 35q-88 4 -152 -76q-37 -47 -86 -160q-27 -61 -39 -129 q-8 -45 -8 -90z" />
<glyph unicode="A" horiz-adv-x="1630" d="M-115 176q10 25 19 23q-2 0 -2 -45q0 -41 37.5 -71t99.5 -30q121 0 229.5 53.5t245.5 182.5q162 152 326 428q-256 26 -418 26h-12q-141 0 -260 -86l-25 -16q-8 6 10 23q189 165 363 165h2q74 0 379 -47q141 236 168 273q123 182 229 256q201 139 412 139q53 0 108 -8 q66 33 127 33t62 -31q0 -25 -54 -25q-16 0 -51 2t-49 2q-84 0 -178 -135q-113 -164 -219 -510q-134 -439 -134 -616v-17q4 -79 57 -79h1q63 0 153 96q27 29 29 28q10 -6 -10 -32q-41 -53 -133 -119q-104 -74 -160 -74q-62 0 -62 88q0 13 1 29q8 100 69 354q51 221 88 338 q-81 -65 -253 -65h-5q-117 0 -205 8q-45 -82 -150.5 -233.5t-168.5 -225.5q-129 -154 -283 -240q-137 -81 -247 -81h-3q-153 0 -153 124q0 63 20 115zM905 778q104 -22 240 -22h12q135 0 186 55q80 242 125 326q115 223 293 290q-240 0 -456 -153q-187 -134 -400 -496z" />
<glyph unicode="B" horiz-adv-x="1214" d="M-287 -12q39 98 172 100q35 0 66 -2q18 0 41 6q106 51 172 223q61 162 133 406q84 287 123 399q57 166 172 266q-377 0 -617 -190q-14 -10 -26 -10q-29 0 -29 37q0 39 60 65q275 123 621 123h11q88 88 240 148q12 5 19.5 5t9.5 -5q6 -12 -27 -23q-111 -35 -174 -125 q449 -10 449 -293q0 -11 -1 -22q-8 -143 -143 -242q-125 -92 -299 -113l-2 -6q172 0 282 -93q102 -87 102 -215q0 -9 -1 -19q-12 -203 -197 -322q-164 -109 -389 -109q-117 0 -306 23t-234 23q-139 0 -207 -43q-16 -9 -20 -9h-1q-2 2 -2 6.5t2 10.5zM4 76q43 -4 234 -43 q152 -31 262 -31q180 0 301 109.5t121 296.5q0 137 -95.5 221t-259.5 84q-18 0 -53 -4l-27 -4q-4 4 17.5 25.5t52.5 21.5h47q27 -2 45 -2q115 0 228 104q120 111 120 248q0 121 -100 201q-94 74 -231 79q-57 -68 -168 -391q-63 -188 -129 -377q-70 -197 -131 -301 q-106 -182 -234 -237z" />
<glyph unicode="C" horiz-adv-x="1105" d="M-6 133q0 309 184 635q164 295 393 469q240 182 486 182q66 0 119 -22q32 -15 30 -33q-10 -20 -45 -127q-10 -43 -33 -117q-8 -25 -22 -20q-8 2 0 28q18 61 39 150q2 74 -158 74q-223 0 -398 -143.5t-315 -428.5q-145 -303 -145 -559q0 -375 313 -375q168 0 334 115 q109 74 174 174q18 27 31 17q14 -12 -4 -37q-61 -82 -195 -181q-244 -180 -450 -180q-164 0 -251 102.5t-87 276.5z" />
<glyph unicode="D" horiz-adv-x="1482" d="M-227 0q27 84 108 84q16 0 43 -3t43 -3q57 0 113 49q74 66 143 264q45 127 109 344q76 258 104 344q67 207 180 303q-182 0 -354 -57q-158 -51 -266 -137q-14 -10 -27 -10q-29 0 -28 36q0 49 49 70q291 123 647 123q111 100 215 139q32 12 47 12q10 0 12 -6q2 -8 -22 -14 q-121 -33 -182 -131q340 0 528 -143q178 -138 178 -379v-11q-4 -188 -103.5 -378.5t-267.5 -317.5q-145 -109 -287.5 -152.5t-328.5 -43.5q-66 0 -226.5 16t-252.5 16q-94 0 -152 -24q-23 -10 -20 -10q-4 2 -4 9q0 5 2 11zM33 70q25 -2 215 -31q154 -23 262 -23 q299 0 506 209q256 261 262 615v14q0 232 -133 367q-150 154 -451 161q-55 -90 -135 -305q-70 -219 -225 -633q-123 -287 -301 -374z" />
<glyph unicode="E" horiz-adv-x="1015" d="M-6 250q0 109 65 221q57 100 142 166q141 112 313 143q-88 23 -152 88q-77 79 -77 180q0 148 157 263q148 110 321 110h9q102 0 154 -20q26 -9 26 -38q0 -8 -2 -17q-25 -127 -47 -199q-10 -31 -24 -25q-8 2 4 37q26 77 26 131q0 49 -65 76q-51 20 -121 20 q-131 0 -225 -86q-100 -88 -105 -221v-12q0 -117 74 -187q78 -74 203 -89q20 -2 40.5 3t24.5 5q10 0 -15.5 -30t-51.5 -28q-33 6 -107 13h-10q-168 0 -294 -129q-130 -133 -130 -291q0 -154 84 -240q92 -92 268 -92q258 0 416 195q25 31 31 30q4 0 10 -4q10 -10 -14 -39 q-217 -252 -535 -252q-182 0 -287.5 92.5t-105.5 225.5z" />
<glyph unicode="F" horiz-adv-x="978" d="M-80 -186q8 23 37 20q135 -12 129 -12q123 0 203 112q33 47 82 175q53 137 186 639h-70q-129 0 -194 -35q-4 -2 -16.5 -15.5t-18.5 -9.5q-12 8 18 33q55 57 170 65q57 4 123 5q70 242 113 352q37 94 100 143q39 31 131 70q-223 9 -338 9q-38 0 -65 -1q-221 -10 -317 -84 q-74 -57 -103 -147q-8 -23 -24 -21q-23 4 -15 35q20 76 144 162q201 141 364 145h29q118 0 319 -27q389 -51 416 -51q119 0 152 78q9 20 18 20q2 0 4 -1q7 -3 7 -10q0 -8 -9 -23q-63 -109 -231 -109l-293 21h-5q-40 0 -71 -31q-25 -27 -64 -104q-72 -143 -153 -426 q25 -2 102 -3q137 0 205 5q55 4 85 25.5t32 21.5q14 -6 -25 -51.5t-106 -47.5q-20 0 -240 4h-65q-107 -399 -207 -604q-74 -152 -209 -282q-117 -113 -232 -113q-70 0 -92 27q-9 10 -9 24q0 8 3 17z" />
<glyph unicode="G" horiz-adv-x="1351" d="M-51 -477q0 43 33 158q8 29 22 28q6 -2 -2 -35q-2 -10 -8 -41q-2 -16 -2 -32q0 -162 282 -164h6q275 0 445 170q125 127 201 364q45 168 90 334q-104 -176 -284.5 -299t-336.5 -123t-239 111q-73 98 -73 261q0 19 1 40q14 264 158 518q139 246 358 410q250 188 547 188 q88 0 137 -29q31 -18 31 -36q-10 -29 -39 -121q-12 -37 -35 -117q-6 -25 -22 -21q-12 2 2 33q23 68 22 103q1 6 1 11q0 51 -53 78q-58 31 -149 31q-244 0 -414.5 -133t-285.5 -391q-106 -238 -119 -463q-1 -22 -1 -43q0 -148 61 -237q72 -109 223 -109q219 0 432 271 q88 113 127 237q43 143 69.5 184t92.5 74q45 23 57 23q6 -2 8 -6q2 -6 -12 -23q-29 -33 -63 -121q-20 -49 -130 -422q-14 -51 -53 -166q-80 -242 -301 -440q-258 -231 -557 -237h-9q-218 0 -218 182z" />
<glyph unicode="H" horiz-adv-x="1480" d="M-301 -221q0 10 4 18q12 29 51 15q82 -31 154 -31q158 0 233 78q111 113 207 362q43 113 127 400q12 35 33 106h-100q-324 0 -418 -170q-14 -25 -21 -20q-8 6 4 28q121 219 367 221q98 0 182 -8q35 125 123 404q68 184 246 221q-145 -8 -449 -8q-51 0 -43 30q4 14 50 9 q109 -12 237 -17h203q49 0 49 -4q2 -12 -29 -18q-55 -10 -123 -160q-72 -162 -161 -463q280 -24 398 -24h9q184 0 238 69q2 4 28 92q78 254 238 396q205 182 334 182q96 0 96 -45q0 -33 -45 -33q-16 0 -52 8t-73 8q-86 0 -166 -73q-115 -104 -195.5 -334t-150.5 -512 q-57 -236 -57 -344q0 -90 63 -90q66 0 156 110q16 18 20 17q10 -6 -6 -29q-49 -66 -151.5 -134.5t-149.5 -68.5q-63 0 -63 90q0 82 65 363q33 139 99 360q-77 -73 -325 -73h-7q-40 0 -316 14q-10 -33 -28 -94q-82 -295 -135 -412q-86 -197 -228 -319q-211 -182 -362 -189 h-22q-138 0 -138 72z" />
<glyph unicode="I" horiz-adv-x="552" d="M-336 -37q-2 6 -2 11q0 22 39 22q113 0 207 12t182 248q43 123 137 487q39 164 113 424q41 104 99.5 156t162.5 66q-260 -10 -383 -11q-41 0 -37 17q6 20 45 16q130 -10 232 -10h33q74 2 247 18q17 0 17 -19q0 -8 -8 -12q-10 -4 -21 -4q-14 1 -27 1q-93 0 -141 -37 q-41 -33 -82 -125q-68 -154 -155 -508q-47 -188 -138 -516q-27 -80 -73 -119q-35 -27 -134 -66q176 12 338 13q54 0 54 -18t-54 -13q-130 10 -217 10h-28q-70 -2 -194 -21.5t-171 -33.5q-11 -3 -19 -3q-18 0 -22 15z" />
<glyph unicode="J" horiz-adv-x="733" d="M-309 -233q12 29 51 14q78 -29 156 -29q147 0 227 76q104 98 192 362q37 109 121 431q123 473 232 606q84 102 176 151q-117 -16 -246 -88q-164 -90 -274 -235q-139 -182 -140 -369q0 -121 56 -154q12 -10 10 -18q-4 -14 -21 2q-111 80 -110 225q0 164 133 328 q121 147 342 251.5t420 106.5q45 0 45 -24q0 -20 -29 -19q-18 0 -46 3.5t-44 3.5q-113 0 -223 -197q-66 -117 -174 -567q-72 -299 -117 -412q-76 -190 -221 -348q-170 -184 -361 -191h-22q-137 0 -137 71q0 11 4 20z" />
<glyph unicode="K" horiz-adv-x="1214" d="M-336 -37q-2 6 -2 11q0 22 39 22q164 0 209 12q88 23 129 131q33 86 192 604q47 164 129 424q41 104 100 156t163 66q-260 -10 -383 -11q-41 0 -37 17q6 20 45 16q130 -10 231 -10h33q74 2 248 18q14 0 16 -16q2 -10 -8 -14.5t-20 -4.5q-14 1 -27 1q-93 0 -141 -37 q-39 -33 -80 -125q-78 -180 -174 -508q-47 -164 -148 -516q-23 -80 -69 -119q-33 -27 -132 -66q176 12 338 13q54 0 54 -18t-54 -13q-130 10 -217 10h-28q-70 -2 -194 -21.5t-171 -33.5q-35 -10 -41 12zM381 737q-8 4 -8 12q1 10 15 26q24 28 194 198q193 195 413 332 q152 94 228 94q77 0 77 -39q0 -6 -2 -14q-4 -27 -47 -25q-78 4 -75 4q-90 -6 -234 -92q-129 -78 -332 -266q-84 -78 -86 -117q-1 -9 -1 -19q0 -161 155 -425q211 -360 391 -490q76 -53 135 -53q35 0 82 35q16 12 23 8q3 -2 3 -6q0 -8 -16 -21q-25 -25 -104 -72 q-45 -18 -80 -18q-61 0 -131 51q-92 70 -209 223q-98 131 -168 256q-127 231 -158 357q-9 38 -9 68t9 53q-4 -4 -45 -49q-10 -14 -20 -11z" />
<glyph unicode="L" horiz-adv-x="1101" d="M-272 -27q-1 4 -1 7q0 20 42 32q37 4 114 17q113 16 168 65q72 63 148 260q66 172 118 389q78 317 185 461q88 117 246 201q145 78 249 78q63 0 66 -37v-6q0 -39 -55 -39q-14 0 -48 8t-57 8q-182 0 -297 -188q-88 -145 -178 -490q-57 -221 -82 -290q-53 -154 -125 -234 q-78 -88 -201 -168q176 18 455 18q100 0 213 -2h18q192 0 242 84q18 31 27.5 72t19.5 39t2 -35q-25 -111 -92 -190q-59 -70 -153 -70q-43 0 -278.5 27.5t-381.5 27.5q-184 0 -317 -53q-16 -6 -26 -6q-16 0 -21 14z" />
<glyph unicode="M" horiz-adv-x="2254" d="M-227 37q8 143 80 276q12 25 22 21q16 -6 2 -25q-53 -72 -61 -164q-1 -10 -1 -19q0 -86 85 -132q76 -43 194 -43q184 0 365 125q164 115 278 301q182 297 285 710q17 66 32 66h1q12 -2 12 -24q0 -15 -6 -39q-102 -403 -295 -721q-143 -236 -326 -379q-199 -156 -395 -158 h-10q-125 0 -193 47q-70 49 -70 141q0 8 1 17zM481 1237q14 63 80 149q162 211 326 211q270 0 358 -544q41 -248 41 -523q0 -164 -16 -374q139 264 332 532q256 354 442 549q168 176 278 178q31 0 31 -20q0 -16 -31 -17q-127 0 -190 -131q-88 -180 -201 -588 q-90 -326 -98 -493v-22q0 -117 61 -117q41 0 129 67q57 45 113 107q18 20 21 18q4 -4 -3 -22q-27 -47 -122 -121q-180 -137 -269 -137q-65 0 -65 82v12q6 184 117 573q66 231 167 514q-156 -160 -372 -469q-250 -356 -348 -590q-35 -23 -97 -63q-23 -10 -24 -10q-2 1 -2 8 q0 14 8 55q33 172 33 441q0 59 -2 114q-16 375 -88 592q-98 293 -306 293q-125 0 -219 -129q-39 -53 -53 -129q-6 -29 -20 -29q-12 0 -12 19q0 6 1 14z" />
<glyph unicode="N" horiz-adv-x="1867" d="M-123 180q6 14 49 111q12 25 23 20q10 -4 -6 -30q-41 -63 -41 -138q0 -100 102 -151q82 -41 203 -41q197 0 379 137q150 113 252 283q190 313 272 657q10 43 33 39t12 -39q-129 -406 -287 -666q-129 -215 -319 -356q-207 -156 -404 -158h-11q-279 0 -279 194q0 73 22 138 zM573 1143q23 90 62 164q57 111 115 159q76 68 182 68q150 0 264 -162q84 -115 172 -358q63 -172 116.5 -418t63.5 -410q53 248 138 502q119 358 258 563q147 217 321 217q33 0 55 -12q17 -9 16 -25q0 -4 -1 -10q-8 -27 -36 -24.5t-63 -1.5q-137 -18 -243 -158 q-156 -203 -279 -559q-84 -248 -141 -512q-14 -68 -17 -76q-10 -31 -36 -63q-41 -51 -60 -52q-6 0 -6 33q0 236 -88 617q-78 334 -190 546q-133 252 -336 252q-121 0 -197 -141q-29 -55 -43 -145q-4 -29 -16 -29q-13 0 -13 18q0 7 2 17z" />
<glyph unicode="O" horiz-adv-x="1241" d="M98 389q0 270 133 537q119 233 283 368q181 148 367 148q160 0 243 -129q74 -113 74 -289q0 -193 -106.5 -440.5t-262.5 -403.5q-88 -88 -200.5 -144t-208.5 -56q-162 0 -246 120q-76 109 -76 289zM225 481q0 -426 303 -426q139 0 285 152q106 113 182 344q68 213 68 385 q0 199 -68 311q-72 123 -210 123q-16 0 -33 -2q-123 -12 -226 -102q-135 -119 -221 -348q-80 -217 -80 -437z" />
<glyph unicode="P" horiz-adv-x="1069" d="M-311 -154q8 23 37 21q135 -12 129 -12q123 0 202 112q33 47 82 174q41 109 148 521q94 365 162 565q35 100 90 164q-412 -35 -625 -203q-14 -10 -27 -10q-29 0 -28 36q0 43 57 70q248 115 641 131q35 35 111 78q86 49 120 49q16 0 17 -8q0 -6 -19 -10q-55 -10 -93 -41 t-52 -64q529 0 530 -306q0 -15 -2 -30q-16 -207 -237 -362q-182 -129 -361 -146q-33 -3 -55 -3q-11 0 -20 1q-31 2 -33 27q0 14 8 23q41 -18 104 -19q176 0 314 152q129 145 139 317q1 11 1 22q1 144 -99 218q-106 80 -299 82q-66 -113 -234 -715q-55 -195 -75 -262 q-48 -150 -95 -244q-76 -154 -209 -283q-116 -112 -229 -112h-2q-70 0 -92 26q-9 10 -9 24q0 8 3 17z" />
<glyph unicode="Q" horiz-adv-x="1241" d="M82 389q0 268 139 539q121 233 287 370q49 41 125 80q125 63 231 64q160 0 244 -129q74 -113 74 -289q0 -193 -107.5 -440.5t-263.5 -403.5q-63 -63 -135 -108q49 12 98 22q106 20 166 21q49 0 84 -13q49 -18 49 -75q0 -63 -80 -168q-12 -12 -19 -12q-3 0 -5 3q-6 6 6 23 q8 10 22 35q8 20 9 39q0 74 -95 100q-47 14 -110 14q-133 0 -216 -40.5t-182 -40.5q-162 0 -245 120q-76 109 -76 289zM213 481q0 -426 303 -426q139 0 285 152q106 113 182 344q68 213 68 385q0 199 -68 311q-72 123 -211 123q-16 0 -33 -2q-123 -12 -225 -102 q-135 -119 -221 -348q-80 -217 -80 -437z" />
<glyph unicode="R" horiz-adv-x="1372" d="M-162 -4q-1 4 -1 8q0 20 38 25q66 0 148 6q49 12 83 82q55 113 183 545q53 201 162 565q35 101 90 164q-412 -33 -625 -203q-14 -10 -27 -10q-29 0 -28 36q0 41 63 68q279 117 635 133q41 39 119 83t113 44q16 0 16 -8q0 -6 -19 -10q-55 -10 -93 -41t-52 -64q29 1 56 1 q190 0 307 -60q138 -72 138 -211q0 -12 -1 -25q-12 -160 -146 -270q-102 -88 -256 -129q-20 -2 -41 -14q-2 -12 5 -31q70 -176 217 -422q217 -362 393 -362q41 0 72.5 19t33.5 17q3 -3 3 -7q0 -6 -7 -13q-80 -98 -207 -98q-186 0 -411 419q-96 180 -201 424q-14 35 -35 35 h-43q-27 4 -28 25q0 14 8 22q41 -18 104 -18q164 0 275.5 113.5t121.5 279.5q1 10 1 19q0 117 -92 187q-99 75 -277 75q-70 -123 -240 -715q-47 -180 -143 -492q-31 -80 -150 -145q90 6 154 6q53 0 94 -6t33 -43q-82 21 -220 21q-28 0 -57 -1q-41 0 -225 -36q-35 -6 -41 12z " />
<glyph unicode="S" horiz-adv-x="1130" d="M-115 55q0 145 103 336q12 23 22 19q8 -4 -2 -23q-84 -152 -84 -237q0 -125 125 -191q106 -55 266 -55q276 0 404 116q102 94 102 244t-188 346q-100 104 -127 144q-59 88 -60 184q0 100 78 219q63 92 144 156q189 149 412 149h3q49 0 70 -18q18 -16 18 -58v-12 q0 -37 -26 -149q-16 -76 -27 -107q-10 -23 -12 -22q-12 2 -8 18q10 31 30 105q12 51 13 81q0 99 -154 99q-166 0 -285 -96q-152 -123 -159 -269v-12q0 -82 51 -162q14 -18 117 -139q117 -135 133 -160q68 -100 67 -207q0 -176 -166 -340q-200 -196 -496 -196h-3 q-156 0 -252 53q-109 63 -109 184z" />
<glyph unicode="T" horiz-adv-x="1040" d="M51 1147q20 76 144 162q201 141 366 145h14q107 0 332 -27q414 -51 416 -51q119 0 152 78q9 20 18 20q2 0 4 -1q8 -3 8 -11t-8 -22q-63 -109 -233 -109q-29 0 -166 10.5t-148 10.5q-43 0 -71 -33q-23 -25 -58 -102q-90 -195 -172 -529q-80 -322 -127 -489 q-23 -80 -78 -121q-35 -25 -139 -66q154 23 257 23q28 0 52 -2q92 -8 93 -47q0 -6 -2 -15q-63 29 -154 33q-30 2 -60 2q-199 0 -401 -69q-8 -3 -14 -3q-12 0 -17 11q-6 12 10.5 28.5t36.5 20.5q61 4 140 12q88 20 137 146q74 190 170 565q31 131 119 426q33 94 94 143 q37 31 131 70q-155 9 -295 9q-47 0 -92 -1q-217 -6 -317 -84q-74 -57 -103 -147q-8 -23 -24 -21q-17 3 -17 21q0 6 2 14z" />
<glyph unicode="U" horiz-adv-x="1331" d="M59 162q0 252 101 604q72 250 157 408q47 88 126 146t145 62q-213 -12 -383 -12q-43 0 -37 23q6 20 45 16q169 -14 246 -14h18q74 2 228 16q14 0 16 -14q2 -18 -29 -19q-88 0 -143 -39q-45 -29 -90 -98q-115 -174 -199 -489q-74 -276 -74 -494q0 -203 150 -203 q143 0 346 185q94 86 174 206q70 111 98 199q25 76 39 125q45 152 140 447q23 68 69 106q20 16 107 61q24 12 24 4q0 -5 -14 -18q-27 -27 -45 -67q-90 -199 -187 -541q-9 -39 -32 -127q-66 -248 -82 -416q-4 -31 -4 -51q0 -86 63 -86q9 0 19 2q80 14 147 117q12 20 23 16 q12 -4 -9 -31q-41 -55 -139 -125q-110 -79 -165 -79h-1q-68 0 -67 84q0 113 90 462q-92 -184 -250 -325q-115 -104 -236 -170q-129 -74 -215 -74q-170 0 -170 203z" />
<glyph unicode="V" horiz-adv-x="1437" d="M47 1143q23 72 100 176q133 176 287 176q186 0 303 -299q74 -195 107 -467q23 -197 23 -428q0 -105 -5 -217q59 106 195 338q258 416 295 479q139 241 139 331q0 24 -6 73q-2 8 -2 15q0 29 33 34q35 4 51 -22q14 -24 14 -57v-9q-2 -78 -76 -207q-39 -72 -153 -242 q-84 -125 -271 -411q-184 -294 -215 -431q-6 -4 -16 -10q-29 -31 -84 -92q-14 -14 -17 -14h-1q-10 4 -5 28q18 86 19 353q0 172 -12 325q-29 367 -129 588q-109 236 -291 236q-106 0 -195 -115q-45 -59 -59 -137q-4 -27 -19 -27q-13 0 -13 15q0 7 3 18z" />
<glyph unicode="W" horiz-adv-x="1832" d="M31 1212q-12 2 -12.5 13t12.5 30q45 72 94 119q88 86 133 113q72 45 160 47h3q156 0 241 -186q66 -145 77 -377q4 -66 4 -142q0 -375 -51 -618q129 295 269 555q92 172 258 434q43 68 94 119q46 46 58 46q2 0 3 -1q4 -2 -18 -45q-37 -69 -37 -192v-25q2 -123 41 -418 q38 -290 38 -440q0 -27 -1 -49q78 164 162 333l167 332q84 168 113 330q5 28 5 53t-5 47q-3 23 -3 41q0 58 34 60h3q48 0 54 -64q1 -10 1 -22q0 -78 -48 -197q-27 -66 -121 -252q-45 -84 -174 -342q-139 -287 -172 -414q-4 -18 -12 -51q-6 -25 -27.5 -40t-40.5 -29 q-10 -12 -43 -37q-16 -10 -22 -4q-2 2 6 32q16 57 16 174q0 180 -37 467q-43 326 -43 432q0 63 11 99q-111 -156 -234 -383q-233 -432 -323 -715q-10 -31 -56 -61q-18 -18 -57 -50q-15 -10 -20 -10h-1q-6 4 0 27q43 135 74 362q31 232 31 449v49q-4 274 -74 438 q-85 197 -259 197h-3q-78 0 -162 -82q-43 -41 -80 -121l-2 -6q-12 -27 -24 -25z" />
<glyph unicode="X" horiz-adv-x="1251" d="M-59 319q8 20 16 17q8 -6 2 -19q-12 -25 -12 -79q0 -127 135 -127q88 0 199 90q102 82 190 212t156 273q23 51 23 97q0 11 -1 22q-10 82 -41 192q-35 127 -80 199q-68 106 -170 107q-61 0 -118 -64q-16 -18 -39 -57q-12 -16 -21 -15q-16 6 4 31q45 55 101 111 q110 110 177 110h1q59 0 114.5 -55t84.5 -137q41 -115 77 -365q55 141 219 324q184 207 310 207q68 0 67 -43q0 -45 -43 -45h-59q-127 -8 -266 -162q-129 -141 -191 -269q-27 -54 -27 -89q0 -6 1 -11q27 -195 69 -381q29 -123 72 -205q47 -90 94 -90q51 0 117 68 q27 29 51 80q10 25 18 22q10 -2 0 -28q-25 -59 -77 -127q-106 -133 -185 -133q-72 0 -121 118q-27 68 -63 232q-29 133 -61 362q-59 -133 -199 -342q-117 -174 -195 -254q-119 -121 -219 -121q-151 0 -151 166q0 84 41 178z" />
<glyph unicode="Y" horiz-adv-x="1091" d="M31 1229q-2 2 -2 5q0 9 12 26q33 43 94 92q131 104 199 104q80 0 149 -121q39 -70 99 -233q79 -223 110 -463q72 125 221 324q139 186 238 292q43 47 63 66q37 31 81 46t102 19q22 2 22 -5q0 -9 -16 -13q-57 -16 -154 -102q-272 -244 -473 -549q-55 -84 -106 -236 q-86 -256 -86 -399q0 -80 45 -80q51 0 127 33q66 29 125 84q12 12 20 10q16 -6 -10 -29q-59 -49 -137 -88q-135 -69 -231 -69h-3q-78 0 -78 61q0 76 127 451q22 65 22 143q0 45 -7 94q-29 182 -101 350q-135 315 -274 316q-47 0 -98 -51q-20 -20 -60 -74q-10 -10 -20 -4z " />
<glyph unicode="Z" horiz-adv-x="1333" d="M2 29q-3 3 -3 8q0 15 32 43q129 115 258 231q221 203 379 379q237 263 495 664q-82 -27 -200 -27q-84 0 -219.5 10.5t-192.5 10.5q-117 0 -164 -25t-72 -90q-12 -41 -30 -105q-8 -25 -19 -22q-10 2 -2 35q14 63 53 149q72 164 246 164q92 0 272.5 -39t270.5 -39 q92 0 139 37q25 18 27 19q12 -3 12 -12.5t-12 -24.5q-279 -387 -617 -772q-178 -190 -413 -449q-16 -18 -17 -29q2 -10 15 -8q12 1 29 1t40 -1q10 0 266 -22q166 -13 294 -13h18q119 2 180 23q88 31 133 106q18 31 35 99q6 27 16 22q12 -4 6 -24q-10 -31 -36 -103 q-61 -145 -127 -201.5t-181 -56.5q-145 0 -384.5 49.5t-346.5 51.5h-69q-41 -2 -82 -31q-23 -14 -29 -8z" />
<glyph unicode="[" horiz-adv-x="495" d="M0 -72l170 777q45 214 133 669h207l-6 -18l-115 -6q-49 -221 -149 -672q-84 -379 -142 -727l123 -6l-4 -17h-217z" />
<glyph unicode="\" horiz-adv-x="579" d="M55 1212l86 -28q23 -16 52 -107q55 -164 167 -497q53 -166 195 -545q16 -49 45 -123q-68 29 -94.5 52.5t-38.5 72.5q-31 115 -178 541q-88 252 -187 512q-16 49 -47 122z" />
<glyph unicode="]" horiz-adv-x="495" d="M14 -72l6 19l115 6q49 221 150 672q84 379 141 727l-123 6l4 16h217l-170 -776q-45 -215 -133 -668z" />
<glyph unicode="^" horiz-adv-x="663" d="M98 692q113 125 312 357q16 16 28 -7q96 -188 197 -331q10 -15 8 -17q-10 -27 -55 -55q-10 -4 -19 8q-72 123 -170 293q-12 20 -24 8q-63 -57 -248 -303q-8 -8 -21.5 14.5t-7.5 32.5z" />
<glyph unicode="_" horiz-adv-x="706" d="M-182 -313l20 43h723l-16 -43h-727z" />
<glyph unicode="`" d="M268 1272q4 20 23 63q8 12 20 19q14 8 19 -6v-25q18 -182 194 -272q17 -9 17 -19q0 -14 -33 0q-123 57 -189 127q-59 63 -51 113z" />
<glyph unicode="a" horiz-adv-x="847" d="M-35 76q4 240 146 502q76 139 231 264q131 106 225 106h8q83 -4 83 -90q0 -9 -1 -20q49 39 80 67q23 23 31 15q4 -4 -8 -25q-90 -156 -152 -389q-47 -182 -51 -305q-1 -21 -1 -37q0 -32 3 -45q10 -45 55 -45q57 0 156 98q14 14 18 12q5 -2 5 -7q0 -7 -13 -21 q-63 -63 -151 -119.5t-135 -56.5q-72 0 -72 79q0 145 88 426q-43 -104 -162 -245q-217 -258 -330 -258q-53 0 -53 88v6zM94 170q2 -80 39 -80q66 0 199 164q149 184 276 526q6 16 6 33q0 53 -57 68q-18 4 -39 4q-88 0 -166 -66q-111 -94 -190 -327q-68 -197 -68 -315v-7z " />
<glyph unicode="b" horiz-adv-x="792" d="M-8 -16q53 147 121 432q37 174 120 528q55 211 207 359q193 188 316 190h8q88 0 88 -43q1 -4 1 -7q0 -25 -42 -26q-29 6 -127 13q-84 -2 -156 -70q-78 -74 -157 -305q-66 -190 -164 -637q55 131 180 289q186 236 291 237q35 0 53.5 -28.5t18.5 -84.5q-2 -193 -99 -415 q-68 -156 -198 -291q-137 -141 -248 -143h-4q-64 0 -64 61q0 18 8 39q31 -35 86 -35q131 2 230 117q63 74 113.5 241.5t52.5 307.5q0 114 -51 114h-3q-78 -2 -204 -176q-143 -195 -205 -422q-4 -16 -41 -166q-8 -31 -29 -43q-33 -18 -82 -47q-12 -8 -18 -8q-5 0 -5 6 q0 5 3 13z" />
<glyph unicode="c" horiz-adv-x="589" d="M-8 207q0 203 117 411q78 137 180 226q115 94 225 94q49 0 76 -18q25 -16 25 -36q0 -13 -11 -28q-23 -31 -55 -8q-47 31 -98 31q-154 0 -256 -234q-89 -199 -89 -381q0 -223 160 -223q49 0 109 39q41 29 59 51q12 16 19 12q8 -4 -4 -22q-29 -43 -105 -88 q-94 -57 -174 -58q-178 0 -178 232z" />
<glyph unicode="d" horiz-adv-x="858" d="M-27 80q2 86 39 227q43 158 109 279q70 131 223 254q137 111 225 111q7 0 13 -1q58 -5 58 -60q0 -8 -1 -18q43 152 86 238q49 96 135 180q197 193 324 197h14q84 0 84 -46q0 -32 -45 -32q-14 0 -51 8t-74 8q-82 -2 -158 -73q-66 -61 -170 -328q-74 -188 -157 -516 q-47 -186 -52 -303q-1 -18 -1 -32q0 -36 4 -50q10 -45 55 -45q57 0 155 98q14 14 19 12q8 -2 -10 -26q-61 -66 -148 -119q-90 -59 -137 -59q-72 0 -72 79q0 55 30 197.5t62 249.5q-55 -127 -172 -264q-223 -260 -333 -260q-55 0 -54 94zM102 174q2 -80 39 -80q66 0 199 164 q192 233 274 530q3 12 3 22q1 28 -23 49q-32 28 -78 28q-78 0 -156 -66q-111 -94 -190 -327q-68 -195 -68 -313v-7z" />
<glyph unicode="e" horiz-adv-x="563" d="M-8 201q2 223 117 424q59 104 159 198q125 117 219 117q76 0 76 -86q0 -150 -145 -258q-109 -80 -195 -100q-25 -6 -24 4q0 16 16 18q68 10 121 47q127 88 127 260q0 63 -47 64q-37 0 -84 -37q-78 -61 -131 -186q-80 -191 -92 -357q-1 -21 -1 -41q0 -100 34 -156 q40 -68 130 -67q84 0 174 90q18 14 23 10q6 -4 -12 -24q-45 -47 -115 -86q-92 -53 -172 -55h-6q-95 0 -137 61q-35 53 -35 160z" />
<glyph unicode="f" horiz-adv-x="477" d="M-432 -455q0 37 39 37q10 0 45 -3t59 -3q152 0 234 127t188 645q39 186 94 473q-111 0 -121 -4l-16 -6q-4 2 8.5 22.5t55.5 24.5q14 2 41 2h41q18 74 57 203q72 182 250 309q159 115 270 115q84 0 84 -41q0 -37 -46 -37h-5q-20 2 -56 10t-63 8q-74 0 -131 -41 q-96 -70 -178 -284q-35 -88 -66 -242q59 0 123 10q12 2 40 14l28 13q16 0 -13 -31q-37 -43 -88 -45h-100q-111 -475 -152 -620q-94 -328 -200 -484q-59 -88 -153.5 -152.5t-168.5 -64.5q-100 0 -100 45z" />
<glyph unicode="g" horiz-adv-x="608" d="M-285 -369q8 88 52 162q18 31 26 25q4 -4 -8 -26.5t-16 -53.5q-2 -16 -2 -31q0 -82 65.5 -134t175.5 -52q162 0 245 67q79 63 79 150v8q-2 47 -62 133q-31 43 -59 86q-33 53 -35 92v6q0 52 33 105q12 20 72 88q-55 -43 -97 -63q-57 -29 -80 -29q-80 0 -81 133 q0 92 45 213t118.5 210t161.5 154q98 74 156 74q27 0 64 -24q33 -21 102 -21h12q12 0 12 -9q0 -6 -8 -9q-43 -16 -102 -17q4 -20 4 -53q0 -174 -168 -418q-25 -37 -78 -92l-12 -12q-72 -64 -72 -120q0 -57 98 -200q64 -94 62 -157q-6 -113 -123 -219q-154 -139 -346 -146 h-18q-109 0 -165 45q-52 43 -52 115q0 10 1 20zM125 371q0 -68 19 -99q19 -28 60 -28h5q80 6 172 159q84 141 88 322v13q0 43 -12 75q-17 47 -60 47h-4q-84 -6 -172 -151q-94 -156 -96 -338z" />
<glyph unicode="h" horiz-adv-x="917" d="M18 -20q-1 2 -1 5q0 6 3 15q23 96 86 356q45 207 148 590q68 211 225 357q203 184 326 184q96 0 96 -45q0 -33 -45 -33q-16 0 -52 8t-73 8q-84 0 -160 -67q-84 -74 -174 -303q-53 -133 -112 -357q-41 -162 -82 -321q92 215 211 348q129 145 248 199q43 18 71 18h6 q34 -3 34 -45q0 -6 -1 -14q0 -8 -104 -408q-57 -221 -58 -313q0 -84 62 -84q74 0 162 98q20 25 26 19t-12 -29q-51 -57 -150 -119q-102 -65 -155 -65h-2q-64 0 -64 67v8q2 33 98 422q55 225 62 303q2 41 -25 45h-7q-73 0 -206 -151q-51 -59 -112 -174q-68 -125 -94 -228 q-14 -68 -29 -137q-23 -88 -60 -110q-29 -14 -67 -39q-8 -8 -12 -11q-2 -1 -3 -1q-3 0 -4 4z" />
<glyph unicode="i" horiz-adv-x="499" d="M51 55q0 27 37 158q59 211 70 254q67 262 65 330q0 47 -30 47h-3q-35 -2 -106 -60q-14 -14 -18 -2q0 8 20 23q188 135 248 135q30 0 30 -33q0 -9 -2 -22q-4 -27 -114 -420q-59 -215 -62 -303q0 -43 12.5 -62.5t45.5 -19.5q76 2 162 98q18 23 22 19q6 -6 -10 -27 q-51 -57 -148 -119q-102 -67 -152 -67h-1q-37 0 -51.5 17t-14.5 54zM305 1196q0 27 19.5 45.5t46.5 18.5t46 -18.5t19 -45.5t-19.5 -46.5t-45.5 -19.5q-27 0 -46.5 19.5t-19.5 46.5z" />
<glyph unicode="j" horiz-adv-x="466" d="M-408 -401q6 0 48.5 -16.5t89.5 -16.5q117 0 194 147q47 86 119 328q58 190 115 432q59 252 59 327v5q-2 47 -33 47q-43 0 -106 -57q-14 -14 -19 -2q-2 8 19 22q184 131 250 131q32 0 32 -36q0 -9 -2 -19q-14 -90 -100 -428q-39 -152 -104 -383q-84 -295 -260 -457 q-129 -119 -222 -119q-116 0 -116 55q0 40 36 40zM274 1206q0 27 19.5 45.5t46.5 18.5t46.5 -18.5t19.5 -45.5t-19.5 -46t-46.5 -19t-46.5 19.5t-19.5 45.5z" />
<glyph unicode="k" horiz-adv-x="792" d="M14 -20q-1 2 -1 5q0 6 3 17q31 127 101 418q41 174 137 526q65 212 225 357q203 184 326 184q96 0 96 -45q0 -33 -45 -33q-16 0 -52 8t-73 8q-84 0 -160 -67q-84 -74 -174 -303q-78 -195 -200 -678q33 72 65 141q51 106 90 160q199 270 314 270q45 0 45 -76 q0 -104 -144 -270q-31 -37 -104 -106q-35 -33 -35 -52q0 -35 10 -67q23 -72 74 -160q80 -137 135 -137q29 0 80 39q14 12 16 10q8 -4 -4 -18q-33 -39 -96 -82t-90 -43q-61 0 -141 180q-37 84 -72 201q-12 37 -12 54q0 6 2 9q6 14 20 19q106 53 170 131q92 113 92 180 q0 65 -40 65h-1q-92 0 -206 -170q-127 -188 -189 -419q-14 -57 -33 -154q-6 -39 -52 -60.5t-62 -37.5q-6 -6 -11 -9h-2q-2 0 -2 5z" />
<glyph unicode="l" horiz-adv-x="495" d="M45 68q0 84 66 362q57 246 133 490q78 254 237 395q205 182 324 182q96 0 96 -45q0 -33 -45 -33q-16 0 -52 8.5t-73 8.5q-86 0 -166 -74q-100 -90 -186 -336q-80 -227 -150 -510q-57 -236 -57 -344q0 -90 64 -90q68 0 155 106q16 18 21 17q8 -4 -6 -25 q-49 -66 -148.5 -132t-146.5 -66q-66 0 -66 86z" />
<glyph unicode="m" horiz-adv-x="1366" d="M6 -18q-4 1 -4 5q0 5 6 15q53 98 139 420q66 246 66 377q0 51 -33 51q-43 0 -106 -57q-14 -14 -19 -2q-2 6 19 22q78 57 184 113q37 18 63 18h5q30 -3 30 -37q0 -8 -2 -18q-35 -219 -123 -500q98 190 209 322q127 150 242 202q45 21 72 21h4q34 -3 34 -44q0 -6 -1 -13 q-2 -20 -86 -328q-14 -49 -48 -158q115 207 209 314q137 156 240 206q45 23 74 23h4q31 -3 31 -41q0 -7 -1 -16q-2 -23 -104 -400q-57 -213 -57 -307q0 -82 61 -82q72 0 158 96q20 25 26 19q2 -2 2 -4q0 -8 -14 -25q-49 -55 -149.5 -117.5t-151.5 -62.5q-61 0 -61 74 q0 23 96 413q53 219 59 297q2 39 -22 43q-16 2 -51 -18q-61 -37 -150 -144q-135 -164 -221 -399q-8 -23 -49 -168q-8 -33 -27 -43q-37 -25 -104 -61q-14 -6 -17 -4q-4 4 2 20q94 254 152 471q53 205 61 303q4 41 -22 43h-6q-66 1 -193 -151q-133 -160 -219 -396 q-23 -78 -57 -188q-10 -31 -43 -49.5t-88 -48.5q-10 -6 -16 -6h-3z" />
<glyph unicode="n" horiz-adv-x="954" d="M4 -33q-4 1 -4 5q0 5 6 16q53 98 139 420q72 270 72 389q0 51 -33 51q-43 0 -106 -57q-14 -14 -19 -3q-2 6 19 23q78 57 184 113q37 18 63 18h5q30 -3 30 -37q0 -8 -2 -18q-23 -150 -127 -510q98 205 220 342t225 190q59 31 97 31h5q34 -2 34 -45q0 -7 -1 -14 q-4 -39 -43 -174q-55 -186 -70 -244q-57 -225 -57 -307t61 -82q72 0 158 96q20 25 27 18q1 -1 1 -4q0 -7 -14 -24q-49 -55 -149 -117.5t-152 -62.5q-61 0 -61 63v10q2 29 96 414q33 127 70 315q2 41 -25 45q-18 2 -53 -14q-70 -33 -160 -139q-51 -61 -118 -176 q-76 -135 -111 -238q-23 -78 -57 -188q-10 -31 -43 -49.5t-88 -49.5q-10 -6 -16 -6h-3z" />
<glyph unicode="o" horiz-adv-x="677" d="M0 227q12 324 213 566q43 53 113 96q82 53 147 53q145 0 145 -210v-25q-12 -334 -217 -566q-141 -159 -260 -159q-142 0 -142 213q0 15 1 32zM109 295q0 -11 -1 -22q0 -89 30 -147q34 -65 95 -65q86 2 150 109q111 188 123 469v22q0 90 -30 151q-34 69 -97 69 q-78 0 -146 -117q-113 -197 -124 -469z" />
<glyph unicode="p" horiz-adv-x="808" d="M-141 -512q-2 1 -2 5q0 6 6 22q80 215 235 743q84 283 107 465q4 37 4 63q0 68 -29 68q-41 0 -112 -59q-14 -14 -19 -2q-4 8 17 22q186 133 260 133q25 0 24 -45q0 -90 -112 -465q66 139 165 262q70 86 148 152q96 80 149 80q70 0 70 -99v-16q-10 -201 -106 -414 q-61 -137 -200.5 -278t-252.5 -141q-72 0 -84 71q-47 -182 -121 -450q-10 -35 -39 -45q-53 -18 -90 -54q-2 -2 -7 -11q-4 -7 -9 -7h-2zM137 88q31 -37 103 -37q129 0 225 101q68 72 122 239.5t58 308.5v8q0 111 -55 111q-74 0 -199 -168q-135 -182 -205 -403 q-25 -76 -49 -160z" />
<glyph unicode="q" horiz-adv-x="806" d="M-10 76q4 240 149 510q72 131 228 256q133 106 227 106h8q64 -3 64 -74q0 -11 -2 -24q27 20 81 63q25 23 31 17l-8 -25q-53 -102 -143 -397q-37 -119 -102.5 -395.5t-65.5 -372.5q0 -61 4 -78q11 -41 53 -41h4q74 2 154 111q14 14 18 12q6 -2 -6 -27q-57 -72 -147.5 -133 t-139.5 -63h-3q-63 0 -66 73v10q0 96 71 402q45 188 136 479q-43 -104 -162 -245q-217 -258 -330 -258q-53 0 -53 88v6zM119 170q2 -82 35 -82q68 0 202 166q162 198 273 532q4 10 4 21q0 49 -60 70q-18 6 -41 6q-78 0 -155 -66q-111 -94 -191 -328q-67 -193 -67 -309v-10z " />
<glyph unicode="r" horiz-adv-x="550" d="M2 -18q-4 1 -4 5q0 5 6 15q57 106 139 412q68 254 68 389q0 51 -33 51q-41 0 -104 -57q-14 -14 -19 -2q-2 8 19 22q180 129 245 129q32 0 32 -38q0 -8 -1 -17q-20 -139 -92 -381q23 59 111 219q127 203 209 209h7q36 0 38 -41v-5q0 -58 -41 -63q-78 -6 -121 -38 q-68 -53 -113 -132q-72 -126 -131 -325q-29 -111 -67 -250q-8 -29 -42 -47.5t-88 -48.5q-10 -6 -15 -6h-3z" />
<glyph unicode="s" horiz-adv-x="557" d="M-51 51q0 70 35 133q14 27 22 23q6 -4 -2 -27.5t-4 -56.5q10 -78 150 -78q82 0 133 47q45 43 45 107q0 82 -92 209q-63 88 -78 114q-37 63 -37 123q0 123 143 227q100 74 217 74q66 0 66 -37q0 -7 -2 -14q-9 -31 -41 -31h-8q-14 2 -48 15.5t-53 13.5q-72 0 -114 -39 q-61 -55 -62 -156q0 -68 100 -196q106 -137 107 -228q0 -115 -143 -217q-108 -77 -235 -77h-3q-96 0 -96 71z" />
<glyph unicode="t" horiz-adv-x="532" d="M63 55q0 72 78 379l101 397h-113q-27 0 -23 17q4 16 21 16q78 4 125 4q12 51 41 166q14 57 52 79t106 61q9 6 14 6q3 0 6 -2l-17 -29q-18 -29 -40 -82q-29 -70 -66 -195q86 0 123 7q53 8 77.5 30.5t22.5 22.5q3 -1 3 -7.5t-3 -17.5q-8 -23 -22 -39q-29 -33 -86 -37h-125 q-68 -248 -100 -405q-41 -190 -41 -262v-6q2 -82 63 -82q37 0 90 39q43 31 64.5 56.5t27.5 18.5q8 -8 -12 -30q-47 -55 -143 -115q-102 -63 -154 -63q-70 0 -70 73z" />
<glyph unicode="u" horiz-adv-x="962" d="M68 53q8 61 43 191q33 117 65 233q53 203 62 289q1 13 1 23q0 61 -38 61q-14 0 -97 -43q-29 -14 -30 -12q-2 2 -2 6t22 18q184 121 266 121q28 0 27 -36q0 -15 -4 -36q-35 -115 -113 -395q-53 -215 -53 -293q0 -41 23 -41q51 0 198 174q119 139 215 367q23 57 43 115 q31 72 70 98q31 20 70 45q8 5 13.5 5t8.5 -5q2 -6 -10 -25q-72 -98 -139 -387q-41 -176 -54 -303q-4 -35 -4 -59q1 -86 60 -86q57 0 155 98q14 14 19 12q2 -1 2 -3q0 -6 -13 -23q-61 -63 -151 -120.5t-137 -57.5q-68 0 -68 69v8q2 61 35 222q31 150 59 243 q-68 -121 -186 -258q-242 -279 -332 -284h-4q-14 0 -20 14q-4 9 -4 25q0 13 2 30z" />
<glyph unicode="v" horiz-adv-x="751" d="M35 817q-1 2 -1 3q0 6 13 16q23 20 107 73q59 37 96 37q29 0 43 -39q25 -61 29 -205q1 -46 1 -91q0 -232 -34 -455q61 152 227 438q119 207 193 293q43 51 77 51q39 0 39 -29v-6q0 -31 -44 -64.5t-66 -54.5q-90 -86 -180 -227q-152 -236 -234 -428q-6 -25 -29 -59 q-113 -96 -110 -97q-14 0 -6 31q49 207 57 440q1 39 1 75q0 183 -34 274q-22 57 -53 57q-33 0 -74 -29q-12 -12 -18 -4z" />
<glyph unicode="w" horiz-adv-x="1103" d="M29 840q-1 2 -1 3q0 5 13 13q51 33 115 57q45 22 81 22q8 0 15 -1q27 -4 39 -45q12 -42 12 -116q0 -41 -4 -91q-20 -254 -68 -465q-10 -49 -8 -49q6 6 23 45q43 94 143 262q154 252 318 445q10 12 16 10q8 0 4 -10q-16 -35 -22 -97v-15q0 -59 8 -333q4 -138 4 -224 t-4 -120q43 133 172 422q76 170 178 317q41 57 72 62q27 2 30 -25q1 -3 1 -7q0 -28 -44 -60q-106 -84 -213 -291q-131 -256 -184 -471q-6 -23 -18 -37q-27 -23 -74 -64q-7 -7 -14 -7q-3 0 -5 1q-10 4 -8 23q2 35 6 106q3 43 3 108q0 87 -5 214q-6 133 -10 235q-1 21 -1 39 q0 44 7 64q-111 -152 -211 -322q-129 -221 -186 -366q-6 -14 -23 -25q-51 -31 -98 -70q-14 -8 -18 0t2 29q55 154 94 422q19 128 19 223q0 84 -15 142q-16 61 -47 65q-6 1 -11 1q-29 0 -65 -17q-12 -12 -18 -2z" />
<glyph unicode="x" horiz-adv-x="911" d="M-70 86q4 57 41 129q10 23 17 16q4 -4 0 -16q-12 -20 -13 -45q-4 -25 15.5 -47.5t62.5 -22.5q100 0 201 113q39 43 94 139.5t58 130.5v6q0 42 -23 185q-20 119 -37.5 153.5t-52.5 34.5q-76 0 -146 -69q-16 -16 -22 -11q-10 8 6 23q41 35 184 113q58 31 90 31q5 0 9 -1 q37 -4 49 -35q10 -23 18 -97.5t23 -244.5q68 137 129 211q141 172 227 172q51 0 51 -38q0 -52 -61 -56q-109 -6 -188 -86q-39 -39 -94.5 -128t-57.5 -120q-1 -11 -1 -25q0 -81 41 -240q48 -185 124 -185q55 0 117 45q23 16 24 14q6 -8 -8 -20q-150 -127 -246 -127 q-53 0 -78.5 46t-42.5 169q-23 160 -24 227q-45 -92 -68 -131q-47 -83 -100 -149q-129 -164 -219 -164q-99 0 -99 91v9z" />
<glyph unicode="y" horiz-adv-x="892" d="M-205 -182q6 23 17 20q4 0 -2 -20q-8 -31 -9 -60q0 -59 43 -102t105 -43q195 0 387 350q43 78 108 223q96 215 121 269q141 299 232 409q51 63 100 64q37 0 37 -41q0 -29 -28.5 -51.5t-59.5 -44.5q-156 -147 -256 -345q-55 -106 -119 -256q-84 -190 -102 -231 q-86 -184 -213 -317q-133 -139 -236 -140q-149 0 -149 166q0 82 24 150zM31 745q-4 2 -4 6q0 7 10 17q74 74 141 135q39 35 74 35q98 0 133 -309q20 -188 20 -374q0 -57 -2 -114q-2 -35 -18 -49q-23 -25 -68 -74q-8 -8 -13 -8h-1q-4 4 -2 27q11 93 11 203.5t-11 238.5 q-31 346 -143 346q-47 0 -111 -71q-10 -12 -16 -9z" />
<glyph unicode="z" horiz-adv-x="774" d="M-59 -14q-1 2 -1 5q0 6 7 13q86 115 383 479q135 160 260 361q-43 -16 -111 -19q-61 2 -225 2q-78 -2 -111 -36q-18 -20 -34 -80q-6 -20 -15 -19q-8 2 0 27q14 47 31 94q29 76 61 105q19 15 66 15q14 0 31 -1q20 -2 149 -19q96 -12 162 -12q16 0 59 21q22 12 39 12 q9 0 17 -4q4 -3 4 -6q0 -5 -6 -11q-20 -31 -82 -112q-57 -72 -279 -334q-78 -92 -163 -224t-91 -163q51 26 175 26h9q70 0 121.5 -3t79.5 -3q92 0 117 115q4 23 14 23q8 0 4 -23q-10 -53 -43 -133q-41 -98 -104 -98q-43 0 -143.5 20.5t-196.5 20.5q-117 0 -164 -31 q-18 -12 -20 -8z" />
<glyph unicode="{" horiz-adv-x="634" d="M70 692q0 8 4 14.5t12 6.5q86 -6 156 59q57 55 102 236q18 100 55 239q53 129 187 201q92 51 147 49q10 0 10 -8t-4 -11t-45 -10q-63 -8 -98 -38q-82 -72 -102 -187q-33 -184 -52 -244q-43 -152 -112 -204q-94 -72 -185 -95q76 -25 142 -96q33 -37 32 -121 q0 -76 -59 -327q-10 -41 -10 -76q0 -63 33 -111q25 -31 82 -39q14 -2 41 -6q6 -6 2 -14t-17 -8q-55 -2 -127 49q-98 70 -100 201q0 23 18 110q27 117 29 129q20 109 20 150q0 51 -22 86q-43 68 -131 59q-6 0 -8 6z" />
<glyph unicode="|" horiz-adv-x="563" d="M242 -109q6 29 10 115q2 240 8 666q10 539 8 618.5t15 102.5q37 29 73 59q-2 -12 -8 -119q-10 -176 -18 -633q-6 -391 2 -655q2 -45 -15.5 -73.5t-74.5 -80.5z" />
<glyph unicode="}" horiz-adv-x="634" d="M-72 -59q0 10 9 14q2 0 40 6q63 8 99 39q84 74 104 186q35 193 49 244q43 152 113 205q94 72 184 94q-76 25 -141 96q-33 37 -33 117q0 72 62 332q8 39 8 72q0 66 -33 114q-25 31 -82 39q-14 2 -39 6q-6 4 -2 15q2 8 15 8q55 2 127 -49q98 -70 100 -201q0 -23 -19 -111 q-27 -117 -28 -129q-18 -106 -19 -147q0 -53 23 -88q43 -66 129 -60q8 0 10 -6q0 -8 -5 -14t-13 -6q-82 6 -154 -60q-59 -55 -104 -235q-18 -100 -56 -240q-53 -129 -186 -200q-92 -51 -147 -50q-12 0 -11 9z" />
<glyph unicode="~" horiz-adv-x="663" d="M61 766q-6 8 0 14q119 154 242 154q43 0 126 -47t122 -47q59 0 154 98q8 8 12 2q6 -8 0 -14q-119 -154 -230 -154q-45 0 -132 46t-126 48q-61 4 -153 -98q-8 -8 -15 -2z" />
<glyph unicode="&#xa2;" horiz-adv-x="493" d="M-12 322q2 188 98 362q113 205 272 260q20 86 27 117h33l-27 -109q29 4 41 4q45 0 66 -16q31 -27 12 -55q-20 -25 -49 -4q-41 20 -78 24l-168 -717q72 0 150 78q10 14 16 10q4 -4 -4 -18q-16 -27 -64 -59q-53 -37 -108 -54l-21 -92h-30l18 84q-10 -2 -33 -4 q-86 -2 -123 51q-29 45 -28 138zM86 414q-14 -186 98 -221q78 329 164 710q-117 -20 -182 -182q-70 -174 -80 -307z" />
<glyph unicode="&#xa3;" horiz-adv-x="1042" d="M-272 -27q-8 25 41 39q37 4 114 17q113 16 168 65q72 63 148 260q29 76 65 205q41 154 60 207h-52q-10 0 -98 -8q-55 -4 -84 -27.5t-31 -23.5q-16 8 24 54t103 50h133h15q53 205 115.5 308.5t197.5 201.5q223 162 350 162q63 0 66 -37q4 -45 -55 -45q-14 0 -48 8t-57 8 q-139 0 -248 -137q-123 -156 -209 -469h43q31 0 99 4q55 4 84.5 25.5t32.5 21.5q14 -6 -25 -51t-107 -47q8 0 -133 4h-4q-2 -6 -8 -29q-53 -209 -82 -290q-53 -152 -125 -234q-78 -88 -201 -168q240 25 668 16q207 -4 260 84q18 31 27.5 72t19.5 39t2 -35q-25 -111 -92 -190 q-59 -70 -153 -70q-43 0 -278.5 27.5t-381.5 27.5q-184 0 -317 -53q-39 -16 -47 8z" />
<glyph unicode="&#xa5;" horiz-adv-x="1091" d="M31 1229q-8 6 10 31q33 43 94 92q131 104 199 104q80 0 149 -121q39 -70 99 -233q86 -238 116 -469q82 139 222.5 331.5t230.5 290.5q43 47 63 66q37 31 81 46t102 19q23 2 22 -6q0 -8 -16 -12q-57 -16 -154 -102q-272 -244 -473 -549q-55 -82 -100 -213h213l-10 -29 h-211q-4 -18 -19 -65h213l-6 -29h-215q-57 -217 -57 -299q0 -80 45 -80q51 0 127 33q66 29 125 84q14 14 20 10q14 -6 -8 -25q-59 -49 -137 -88q-145 -74 -236 -73q-78 0 -78 61q0 55 105 377h-199l10 29h199l18 65h-204l14 29h197q16 88 2 188q-27 178 -101 350 q-135 315 -274 316q-47 0 -98 -51q-20 -20 -60 -74q-10 -10 -20 -4z" />
<glyph unicode="&#xa8;" d="M297 1137q0 12 43 47q33 27 43 26q12 1 41 -36q20 -27 20 -37q0 -12 -36.5 -45t-47.5 -33q-12 0 -37.5 33.5t-25.5 44.5zM545 1137q0 12 41 47q31 27 43 26q10 1 41 -36q23 -29 22 -37q0 -12 -38 -44t-48 -32t-35.5 32.5t-25.5 43.5z" />
<glyph unicode="&#xa9;" horiz-adv-x="737" d="M143 1032q0 141 100.5 241.5t241.5 100.5t241.5 -100t100.5 -242q0 -141 -100 -241.5t-242 -100.5q-141 0 -241.5 100.5t-100.5 241.5zM182 1032q0 -127 88 -217t215 -90t215 90t88 217t-88 217t-215 90t-215 -90t-88 -217zM317 987q2 96 82 170q74 66 156 68 q33 0 63 -17q8 -14 -6 -32q-4 -12 -12 -2q-16 23 -59 22q-72 0 -111 -66q-33 -53 -33 -129q0 -127 109 -127q51 0 98 33q4 2 4 -4q0 -18 -4 -24q-47 -43 -147 -41q-141 2 -140 149z" />
<glyph unicode="&#xab;" horiz-adv-x="542" d="M27 461q-10 14 4 28q45 29 293 246q6 6 20 -12q8 -23 6 -27q-188 -147 -237 -196q-16 -10 -7 -25q33 -47 170 -256q7 -8 3 -18q-6 -8 -23 -25q-16 -23 -31 -16l-10 6q-88 168 -188 295zM217 453q-8 10 4 26q35 23 242 199q8 6 18 -10q10 -25 6 -25q-74 -57 -184 -151 q-14 -10 -6 -29q10 -12 162 -238q2 -8 -2.5 -17.5t-22.5 -23.5q-25 -20 -31 -18q-2 -2 -3 3t-5 5q-74 137 -178 279z" />
<glyph unicode="&#xad;" horiz-adv-x="657" d="M74 455q-8 2 8 51q29 82 94 82q14 0 85 -3t89 -3q143 0 172 12q10 4 18.5 16.5t12.5 12.5q12 0 -4 -41q-20 -51 -33 -68q-18 -23 -55 -22q-31 0 -111 4t-112 4q-115 -1 -138 -17q-4 -4 -13 -17t-13 -11z" />
<glyph unicode="&#xae;" horiz-adv-x="737" d="M143 1032q0 141 100.5 241.5t241.5 100.5t241.5 -100t100.5 -242q0 -141 -100 -241.5t-242 -100.5q-141 0 -241.5 100.5t-100.5 241.5zM182 1032q0 -127 88 -217t215 -90t215 90t88 217t-88 217t-215 90t-215 -90t-88 -217zM317 856q-4 10 2 29q27 115 60 274q2 33 -8 39 q-6 4 -23 -4q-4 0 -6 4q-2 6 2 10q74 20 86 21q-8 -2 47 -2q16 0 29 2h16q98 0 92 -72q-4 -41 -36 -76q-25 -18 -47.5 -36.5t-18.5 -24.5q20 -35 63 -80q55 -59 84 -59q10 0 11 -4q-1 -7 -11 -11q-29 -18 -59 -18q-66 0 -151 153q-10 10 8 19q86 39 86 115q0 25 -16.5 49 t-47.5 24q-20 0 -26 -14q-10 -29 -33 -139q-27 -137 -27 -155.5t-8 -27.5q-20 -8 -51 -22q-10 -2 -17 6z" />
<glyph unicode="&#xb4;" d="M416 1040q-6 8 16 17q184 72 221 252q2 10 4 26q4 8 19 2q8 -4 18 -20q19 -35 19 -66q0 -49 -66 -106q-74 -63 -203 -107q-25 -12 -28 2z" />
<glyph unicode="&#xb8;" d="M70 -346q0 4 2 6q4 4 19 -3t28 -7q98 0 104 98q2 45 -14 72q-23 31 -68 26q-35 -4 -41 -2q-25 6 -6 58q14 39 45 94q-4 0 13 0q16 2 26 2q-14 0 -24 -18q-6 -10 -21 -58q-6 -16 -6 -26q0 -23 47 -23q133 0 117 -123q-6 -41 -45 -78q-47 -43 -111 -43q-66 0 -65 25z" />
<glyph unicode="&#xbb;" horiz-adv-x="542" d="M14 641q-6 8 0 18q4 10 19 25q23 23 28 21q2 4 5 0q4 -6 8 -7q88 -135 205 -258q11 -12 -3 -26q-47 -39 -219 -226q-10 -6 -21 12.5t-7 22.5q70 66 168 168q12 12 2 31q-53 63 -185 219zM170 184q143 135 217 219q12 14 2 27q-49 53 -201 240q-6 8 0 18q4 10 17 27 q20 20 28 20q4 4 7 0q4 -6 6 -6q100 -152 221 -276q12 -13 0 -29q-45 -37 -266 -277q-6 -4 -21 11q-12 23 -10 26z" />
<glyph unicode="&#x2c6;" d="M248 1061q104 82 297 239q16 14 28 -4q96 -135 197 -237q10 -10 8 -12q-10 -23 -55 -39q-10 -4 -18 6q-72 88 -170 209q-12 14 -25 6q-74 -49 -234 -203q-4 -4 -21 10.5t-7 24.5z" />
<glyph unicode="&#x2da;" d="M393 1145q0 49 51 88q45 33 99 33q45 0 78.5 -26t33.5 -69q0 -49 -50 -85.5t-103 -36.5q-43 0 -76 26.5t-33 69.5zM449 1157q0 -31 21.5 -52.5t51.5 -21.5q31 0 54.5 21.5t23.5 52.5t-23.5 52.5t-54.5 21.5t-52 -21.5t-21 -52.5z" />
<glyph unicode="&#x2dc;" d="M266 1090q-2 6 2 12q80 127 213 112q33 -4 82 -25.5t92 -27.5q49 -8 80 15q23 20 43 43q8 8 10 0q2 -6 -2 -13q-82 -126 -213 -112q-39 4 -86 22q-61 25 -88 31q-16 4 -30 4q-31 0 -52.5 -20.5t-40.5 -40.5q-8 -8 -10 0z" />
<glyph unicode="&#x401;" horiz-adv-x="1015" d="M-6 250q0 109 65 221q57 100 142 166q141 112 313 143q-88 23 -152 88q-76 78 -77 176q-2 150 157 267q152 113 330 110q102 0 154 -20q33 -12 24 -55q-25 -127 -47 -199q-10 -31 -24 -25q-8 2 4 37q27 80 26 135q0 45 -65 72q-51 20 -121 20q-131 0 -225 -86 q-100 -88 -105 -221q-4 -125 74 -199.5t203 -88.5q20 -2 40.5 3t24.5 5q10 0 -15.5 -30t-51.5 -28q-33 6 -107 13q-174 4 -304 -129t-130 -291q0 -154 84 -240q92 -92 268 -92q258 0 416 195q25 31 31 30q4 0 10 -4q10 -10 -14 -39q-217 -252 -535 -252q-182 0 -287.5 92.5 t-105.5 225.5zM543 1649q0 12 43 47q33 27 43 26q12 1 41 -36q20 -27 20 -37q0 -12 -37 -45t-47 -33q-12 0 -37.5 33.5t-25.5 44.5zM791 1649q0 12 40 47q31 27 43 26q10 1 41 -36q23 -29 23 -37q0 -12 -38 -44t-48 -32t-35.5 32.5t-25.5 43.5z" />
<glyph unicode="&#x404;" horiz-adv-x="1105" d="M-6 133q0 309 184 635q164 295 393 469q240 182 486 182q66 0 119 -22q32 -15 30 -33q-10 -20 -45 -127q-10 -43 -33 -117q-8 -25 -22 -20q-8 2 0 28q18 61 39 150q2 74 -158 74q-223 0 -398 -143.5t-315 -428.5l-36 -78q18 -4 38 -4q68 0 132 21q141 33 174 33 q82 0 168 -121l-7 -2q-53 59 -120 59q-74 0 -199 -18q-55 -4 -109 -4q-53 0 -86 16q-100 -248 -100 -461q0 -375 313 -375q168 0 334 115q109 74 174 174q18 27 31 17q14 -12 -4 -37q-61 -82 -195 -181q-244 -180 -450 -180q-164 0 -251 102.5t-87 276.5z" />
<glyph unicode="&#x406;" horiz-adv-x="552" d="M-336 -37q-10 33 37 33q113 0 207 12t182 248q43 123 137 487q39 164 113 424q41 104 99.5 156t162.5 66q-260 -10 -383 -11q-41 0 -37 17q6 20 45 16q152 -12 265 -10q74 2 247 18q14 0 17 -16q2 -10 -8.5 -14.5t-20.5 -4.5q-113 6 -168 -36q-41 -33 -82 -125 q-68 -154 -155 -508q-47 -188 -138 -516q-27 -80 -73 -119q-35 -27 -134 -66q176 12 338 13q59 0 54 -21q-4 -14 -54 -10q-152 12 -245 10q-70 -2 -194 -21.5t-171 -33.5q-35 -10 -41 12z" />
<glyph unicode="&#x407;" horiz-adv-x="552" d="M-336 -37q-10 33 37 33q113 0 207 12t182 248q43 123 137 487q39 164 113 424q41 104 99.5 156t162.5 66q-260 -10 -383 -11q-41 0 -37 17q6 20 45 16q152 -12 265 -10q74 2 247 18q14 0 17 -16q2 -10 -8.5 -14.5t-20.5 -4.5q-113 6 -168 -36q-41 -33 -82 -125 q-68 -154 -155 -508q-47 -188 -138 -516q-27 -80 -73 -119q-35 -27 -134 -66q176 12 338 13q59 0 54 -21q-4 -14 -54 -10q-152 12 -245 10q-70 -2 -194 -21.5t-171 -33.5q-35 -10 -41 12zM322 1647q0 27 19 45t46 18t46.5 -18.5t19.5 -44.5q0 -27 -19.5 -46.5t-46.5 -19.5 t-46 19.5t-19 46.5zM569 1647q0 27 19.5 45t46.5 18t46 -18.5t19 -44.5q0 -27 -19 -46.5t-46 -19.5t-46.5 19.5t-19.5 46.5z" />
<glyph unicode="&#x410;" horiz-adv-x="1630" d="M-135 63q0 61 20 113q10 25 19 23q-2 0 -2 -45q0 -41 37.5 -71t99.5 -30q121 0 229.5 53.5t245.5 182.5q162 152 326 428q-266 27 -430 26q-141 0 -260 -86q-25 -16 -29 -13t14 20q190 166 365 165q74 0 379 -47q141 236 168 273q123 182 229 256q201 139 412 139 q53 0 108 -8q66 33 127 33t62 -31q0 -25 -54 -25q-16 0 -51 2t-49 2q-84 0 -178 -135q-113 -164 -219 -510q-141 -461 -134 -633q4 -80 58 -79q63 0 153 96q27 29 29 28q10 -6 -10 -32q-41 -53 -133 -119q-104 -74 -160 -74q-72 0 -61 117q8 100 69 354q51 221 88 338 q-82 -66 -258 -65q-117 0 -205 8q-45 -82 -150.5 -233.5t-168.5 -225.5q-129 -154 -283 -240q-139 -82 -250 -81q-154 0 -153 126zM905 778q109 -23 252 -22q135 0 186 55q80 242 125 326q115 223 293 290q-240 0 -456 -153q-187 -134 -400 -496z" />
<glyph unicode="&#x411;" horiz-adv-x="1286" d="M-109 -23q0 27 16.5 47.5t42 34t56.5 21.5t60 8h32.5t32.5 -2q61 0 109.5 51t88.5 138t75.5 203t72.5 243q82 285 123 399q39 111 99.5 193t154.5 141q-72 2 -129 3t-98 1q-117 0 -200 -15.5t-139.5 -44t-90 -72.5t-52.5 -99q-10 -20 -22 -21q-18 0 -19 21q0 41 31 81 t80 75.5t110.5 65.5t121 52.5t110.5 34.5t82 12q59 0 139 -6t185 -20q4 -2 36.5 -4t24.5 -5q88 -12 166 -21t138.5 -15.5t98 -9.5t43.5 -3q117 0 152 78q6 18 18 19q10 0 11 -11q0 -8 -9 -22q-66 -109 -231 -109l-442 31q-16 0 -30.5 1t-31.5 1q-16 -14 -31.5 -31.5 t-29.5 -38.5q-16 -18 -39 -65t-50.5 -118t-59 -159t-66.5 -186q158 -4 272.5 -33.5t188 -80t108.5 -120t35 -151.5q0 -98 -44 -187t-121 -157t-182.5 -108t-225.5 -40q-33 0 -82.5 3.5t-106.5 8.5t-115.5 11t-108.5 11t-84 8.5t-44 3.5q-139 0 -207 -43q-14 -8 -18 -9 q-4 0 -5 6zM184 76q10 0 67.5 -12.5t133.5 -25.5t157 -24.5t138 -11.5q90 0 167 29.5t132 84t86 131.5t31 169q0 113 -44 192.5t-112 131t-151.5 74t-163.5 20.5q-18 -53 -38 -109t-38 -111q-45 -127 -88 -218t-87 -154.5t-91 -103.5t-99 -62z" />
<glyph unicode="&#x412;" horiz-adv-x="1214" d="M-287 -12q39 98 172 100q35 0 66 -2q18 0 41 6q106 51 172 223q61 162 133 406q84 287 123 399q57 166 172 266q-377 0 -617 -190q-14 -10 -26 -10q-29 0 -29 37q0 39 60 65q279 125 632 123q88 88 240 148q25 10 29 0q6 -12 -27 -23q-111 -35 -174 -125 q466 -10 448 -315q-8 -143 -143 -242q-125 -92 -299 -113l-2 -6q172 0 281.5 -93t101.5 -234q-12 -203 -197 -322q-164 -109 -389 -109q-117 0 -306 23t-234 23q-139 0 -207 -43q-18 -10 -21 -9q-4 4 0 17zM4 76q43 -4 234 -43q152 -31 262 -31q180 0 301 109.5t121 296.5 q0 137 -95.5 221t-259.5 84q-18 0 -53 -4q-27 -4 -29 -2t19.5 23.5t52.5 21.5h47q27 -2 45 -2q115 0 228 104q120 111 120 248q0 121 -100 201q-94 74 -231 79q-57 -68 -168 -391q-63 -188 -129 -377q-70 -197 -131 -301q-106 -182 -234 -237z" />
<glyph unicode="&#x413;" horiz-adv-x="860" d="M-80 -186q8 23 37 20q135 -12 129 -12q123 0 203 112q33 47 82 175q53 137 198 682q70 242 113 352q37 94 100 143q39 31 131 70q-297 12 -403 8q-221 -10 -317 -84q-74 -57 -103 -147q-8 -23 -24 -21q-23 4 -15 35q20 76 144 162q201 141 364 145q121 4 348 -27 q389 -51 416 -51q119 0 152 78q10 23 22 19q14 -6 -2 -33q-63 -109 -231 -109l-293 21q-43 2 -76 -31q-25 -27 -64 -104q-72 -143 -153 -426l-12 -46q-107 -399 -207 -604q-74 -152 -209 -282q-117 -113 -232 -113q-70 0 -92 27q-14 16 -6 41z" />
<glyph unicode="&#x414;" horiz-adv-x="1482" d="M-227 0q27 84 108 84q16 0 43 -3t43 -3q57 0 113 49q74 66 143 264q45 127 109 344q76 258 104 344q67 207 180 303q-182 0 -354 -57q-158 -51 -266 -137q-14 -10 -27 -10q-29 0 -28 36q0 49 49 70q291 123 647 123q111 100 215 139q55 20 59 6q2 -8 -22 -14 q-121 -33 -182 -131q340 0 528 -143q182 -141 178 -390q-4 -188 -103.5 -378.5t-267.5 -317.5q-145 -109 -287.5 -152.5t-328.5 -43.5q-66 0 -226.5 16t-252.5 16q-94 0 -152 -24q-23 -10 -20 -10q-6 4 -2 20zM33 70q25 -2 215 -31q154 -23 262 -23q299 0 506 209 q256 261 262 615q4 242 -133 381q-150 154 -451 161q-55 -90 -135 -305q-70 -219 -225 -633q-123 -287 -301 -374z" />
<glyph unicode="&#x415;" horiz-adv-x="1015" d="M-6 250q0 109 65 221q57 100 142 166q141 112 313 143q-88 23 -152 88q-76 78 -77 176q-2 150 157 267q152 113 330 110q102 0 154 -20q33 -12 24 -55q-25 -127 -47 -199q-10 -31 -24 -25q-8 2 4 37q27 80 26 135q0 45 -65 72q-51 20 -121 20q-131 0 -225 -86 q-100 -88 -105 -221q-4 -125 74 -199.5t203 -88.5q20 -2 40.5 3t24.5 5q10 0 -15.5 -30t-51.5 -28q-33 6 -107 13q-174 4 -304 -129t-130 -291q0 -154 84 -240q92 -92 268 -92q258 0 416 195q25 31 31 30q4 0 10 -4q10 -10 -14 -39q-217 -252 -535 -252q-182 0 -287.5 92.5 t-105.5 225.5z" />
<glyph unicode="&#x416;" horiz-adv-x="2516" d="M-84 27q29 78 96 151q12 18 21 12q6 -8 -4 -18q-23 -23 -37 -72q-41 -121 86 -163q43 -16 102.5 -13.5t123 23t123.5 57.5t108 90q82 72 154.5 173.5t137.5 236.5q27 53 48.5 106.5t37.5 104.5q-51 -4 -92 -12.5t-71 -20.5q-4 -2 -19.5 -16.5t-23.5 -10.5q-14 8 24 35 q66 55 195 68q47 164 47 305q0 375 -314 375q-166 0 -333 -115q-53 -37 -97.5 -80t-76.5 -94q-18 -27 -31 -16q-14 12 4 36q59 80 194 181q242 180 451 180q166 0 252 -102.5t86 -276.5q0 -195 -70 -389q16 2 35 2h39q47 -2 85 -2h73q20 78 46.5 179t61.5 224 q41 104 99.5 155.5t162.5 65.5q-131 -4 -226 -7t-157 -3q-41 0 -36 17q6 18 45 16q76 -6 141.5 -9t122.5 -1q72 2 248 18q12 0 16 -16q2 -10 -8 -14.5t-21 -4.5q-113 6 -168 -36q-43 -37 -81 -125q-33 -72 -68 -186.5t-76 -272.5h14h125.5t96.5 2q10 23 21 45t26 45 q162 293 393 469q242 182 485 182q63 0 119 -22q33 -14 31 -33q-4 -10 -16.5 -42t-28.5 -85q-4 -23 -13.5 -51.5t-19.5 -65.5q-8 -23 -22 -20q-8 2 0 28q10 31 19 68t19 82q2 74 -157 74q-223 0 -397.5 -142.5t-315.5 -429.5q-10 -23 -19.5 -43t-19.5 -43q57 18 100 47 t46 29q20 -6 -31 -55q-18 -16 -57 -39t-80 -37q-84 -227 -84 -418q0 -375 313 -375q166 0 334 115q53 37 97 80t77 94q18 27 31 17q14 -12 -4 -37q-59 -80 -195 -181q-242 -180 -451 -180q-166 0 -252 102.5t-86 276.5q0 244 113 494q-35 0 -90 1t-133 3v-4 q-23 -94 -57.5 -222.5t-79.5 -293.5q-27 -78 -74 -119q-16 -14 -48 -37t-81 -43q-31 -8 -65.5 -16.5t-65.5 -15.5t-55.5 -13t-34.5 -12q-35 -12 -43 8q-12 31 32 37q29 2 48.5 4t36 4t34 4t39.5 8q94 12 182 248q20 59 52 174t80 289l-164 2h-76q-20 -51 -44 -101.5 t-52 -101.5q-121 -217 -284 -384t-382 -271q-76 -35 -140.5 -47.5t-111.5 4.5q-145 49 -90 209z" />
<glyph unicode="&#x417;" horiz-adv-x="1175" d="M55 182q-10 29 2 37q10 8 15 4q6 0 18 -30q80 -195 332 -195q174 -2 303 86q123 84 182 238q61 158 -14 292q-76 137 -254 136q-39 -2 -66.5 -4.5t-44.5 -6.5q-29 -4 -41 29q-12 31 -2 27q4 0 22.5 -3.5t39.5 -3.5q135 14 241.5 87t151.5 202q49 133 -16 223 q-23 41 -73 66t-108.5 32t-117 -0.5t-97.5 -27.5q-45 -27 -70.5 -59.5t-42 -62t-30.5 -50t-35 -20.5q-18 2 -2 30q35 57 66.5 98.5t69.5 68t90.5 38.5t125.5 12q180 0 285 -116q111 -117 51 -269q-39 -98 -149 -176q-92 -66 -191 -90q164 -29 260 -145q57 -68 74 -172 q20 -115 -24 -221q-51 -133 -197 -224q-145 -86 -326 -84q-315 6 -428 254z" />
<glyph unicode="&#x418;" horiz-adv-x="1331" d="M59 162q0 252 101 604q72 250 157 408q47 88 126 146t145 62q-213 -12 -383 -12q-43 0 -37 23q6 20 45 16q190 -16 264 -14t228 16q14 0 16 -14q2 -18 -29 -19q-88 0 -143 -39q-45 -29 -90 -98q-115 -174 -199 -489q-74 -276 -74 -494q0 -203 150 -203q143 0 346 185 q94 86 174 206q70 111 98 199q25 76 39 125q45 152 140 447q23 68 69 106q20 16 107 61q20 10 24 5q2 -4 -14 -19q-27 -27 -45 -67q-90 -199 -187 -541q-9 -39 -32 -127q-66 -248 -82 -416q-4 -31 -4 -51q0 -98 82 -84q80 14 147 117q12 20 23 16q12 -4 -9 -31 q-41 -55 -139 -125q-111 -80 -166 -79q-68 0 -67 84q0 113 90 462q-92 -184 -250 -325q-115 -104 -236 -170q-129 -74 -215 -74q-170 0 -170 203z" />
<glyph unicode="&#x419;" horiz-adv-x="1331" d="M59 162q0 252 101 604q72 250 157 408q47 88 126 146t145 62q-213 -12 -383 -12q-43 0 -37 23q6 20 45 16q190 -16 264 -14t228 16q14 0 16 -14q2 -18 -29 -19q-88 0 -143 -39q-45 -29 -90 -98q-115 -174 -199 -489q-74 -276 -74 -494q0 -203 150 -203q143 0 346 185 q94 86 174 206q70 111 98 199q25 76 39 125q45 152 140 447q23 68 69 106q20 16 107 61q20 10 24 5q2 -4 -14 -19q-27 -27 -45 -67q-90 -199 -187 -541q-9 -39 -32 -127q-66 -248 -82 -416q-4 -31 -4 -51q0 -98 82 -84q80 14 147 117q12 20 23 16q12 -4 -9 -31 q-41 -55 -139 -125q-111 -80 -166 -79q-68 0 -67 84q0 113 90 462q-92 -184 -250 -325q-115 -104 -236 -170q-129 -74 -215 -74q-170 0 -170 203zM823 1640q4 18 15 19q14 -12 26 -14q184 -82 361 47q20 20 26 8q8 -12 -18 -29q-119 -98 -217 -129q-92 -27 -137 6 q-29 20 -50 64q-8 18 -6 28z" />
<glyph unicode="&#x41a;" horiz-adv-x="1214" d="M-336 -37q-10 33 37 33q164 0 209 12q88 23 129 131q33 86 192 604q47 164 129 424q41 104 100 156t163 66q-260 -10 -383 -11q-41 0 -37 17q6 20 45 16q152 -12 264 -10q74 2 248 18q14 0 16 -16q2 -10 -8 -14.5t-20 -4.5q-113 6 -168 -36q-39 -33 -80 -125 q-78 -180 -174 -508q-47 -164 -148 -516q-23 -80 -69 -119q-33 -27 -132 -66q176 12 338 13q59 0 54 -21q-4 -14 -54 -10q-152 12 -245 10q-70 -2 -194 -21.5t-171 -33.5q-35 -10 -41 12zM381 737q-18 10 6.5 38t194.5 198q193 195 413 332q152 94 228 94q90 0 75 -53 q-4 -27 -47 -25q-78 4 -75 4q-90 -6 -234 -92q-129 -78 -332 -266q-84 -78 -86 -117q-10 -164 154 -444q211 -360 391 -490q76 -53 135 -53q35 0 82 35q16 12 23 8q10 -8 -13 -27q-25 -25 -104 -72q-45 -18 -80 -18q-61 0 -131 51q-92 70 -209 223q-98 131 -168 256 q-127 231 -158 357q-18 76 0 121q-4 -4 -45 -49q-10 -14 -20 -11z" />
<glyph unicode="&#x41b;" horiz-adv-x="1630" d="M-135 63q0 61 20 113q10 25 19 23q-2 0 -2 -45q0 -41 37.5 -71t99.5 -30q121 0 229.5 53.5t245.5 182.5q162 152 326 428q180 301 207 338q123 182 229 256q201 139 412 139q53 0 108 -8q66 33 127 33t62 -31q0 -25 -54 -25q-16 0 -51 2t-49 2q-84 0 -178 -135 q-113 -164 -219 -510q-141 -461 -134 -633q4 -80 58 -79q63 0 153 96q27 29 29 28q10 -6 -10 -32q-41 -53 -133 -119q-104 -74 -160 -74q-72 0 -61 117q8 100 69 354q51 221 88 338q90 279 135 363q115 223 293 290q-240 0 -456 -153q-186 -133 -435 -557 q-45 -82 -150.5 -233.5t-168.5 -225.5q-129 -154 -283 -240q-139 -82 -250 -81q-154 0 -153 126z" />
<glyph unicode="&#x41c;" horiz-adv-x="2254" d="M-227 37q8 143 80 276q12 25 22 21q16 -6 2 -25q-53 -72 -61 -164q-10 -100 84 -151q76 -43 194 -43q184 0 365 125q164 115 278 301q182 297 285 710q17 68 33 66q20 -4 6 -63q-102 -403 -295 -721q-143 -236 -326 -379q-199 -156 -395 -158q-133 -2 -203 47 q-76 53 -69 158zM481 1237q14 63 80 149q162 211 326 211q270 0 358 -544q41 -248 41 -523q0 -164 -16 -374q139 264 332 532q256 354 442 549q168 176 278 178q29 0 31 -18t-31 -19q-127 0 -190 -131q-88 -180 -201 -588q-90 -326 -98 -493q-6 -139 61 -139q41 0 129 67 q57 45 113 107q18 20 21 18q4 -4 -3 -22q-27 -47 -122 -121q-180 -137 -269 -137q-70 0 -65 94q6 184 117 573q66 231 167 514q-156 -160 -372 -469q-250 -356 -348 -590q-35 -23 -97 -63q-23 -10 -24 -10q-6 2 6 63q33 172 33 441q0 59 -2 114q-16 375 -88 592 q-98 293 -306 293q-125 0 -219 -129q-39 -53 -53 -129q-6 -29 -20 -29q-16 0 -11 33z" />
<glyph unicode="&#x41d;" horiz-adv-x="1480" d="M-301 -221q0 10 4 18q12 29 51 15q82 -31 154 -31q158 0 233 78q111 113 207 362q43 113 127 400q12 35 33 106h-100q-324 0 -418 -170q-14 -25 -21 -20q-8 6 4 28q121 219 367 221q98 0 182 -8q35 125 123 404q68 184 246 221q-145 -8 -449 -8q-51 0 -43 30q4 14 50 9 q109 -12 237 -17h203q49 0 49 -4q2 -12 -29 -18q-55 -10 -123 -160q-72 -162 -161 -463q291 -25 407 -24q184 0 238 69q2 4 28 92q78 254 238 396q205 182 334 182q96 0 96 -45q0 -33 -45 -33q-16 0 -52 8t-73 8q-86 0 -166 -73q-115 -104 -195.5 -334t-150.5 -512 q-57 -236 -57 -344q0 -90 63 -90q66 0 156 110q16 18 20 17q10 -6 -6 -29q-49 -66 -151.5 -134.5t-149.5 -68.5q-63 0 -63 90q0 82 65 363q33 139 99 360q-78 -74 -332 -73q-40 0 -316 14q-10 -33 -28 -94q-82 -295 -135 -412q-86 -197 -228 -319q-211 -182 -362 -189 q-160 -6 -160 72z" />
<glyph unicode="&#x41e;" horiz-adv-x="1241" d="M98 389q0 270 133 537q119 233 283 368q181 148 367 148q160 0 243 -129q74 -113 74 -289q0 -193 -106.5 -440.5t-262.5 -403.5q-88 -88 -200.5 -144t-208.5 -56q-162 0 -246 120q-76 109 -76 289zM225 481q0 -426 303 -426q139 0 285 152q106 113 182 344q68 213 68 385 q0 199 -68 311q-80 137 -243 121q-123 -12 -226 -102q-135 -119 -221 -348q-80 -217 -80 -437z" />
<glyph unicode="&#x41f;" horiz-adv-x="1251" d="M41 61v29t1 37t4 31.5t9 13.5t6 -6t-1 -13.5t1 -17.5q6 -72 44 -110.5t91.5 -33.5t112 58t101.5 164q35 92 68.5 219t74.5 285q16 66 44 172t75 254q14 41 29.5 70.5t40 53t61.5 44t94 45.5q-78 4 -153.5 6t-147.5 2q-231 0 -349 -53.5t-157 -177.5q-10 -20 -22 -21 q-18 0 -19 21q0 39 30 77.5t78 74.5t107.5 66.5t118.5 53t111.5 36t85.5 13.5q27 0 84 -2t126.5 -5t141.5 -8t127 -12q205 -23 307 -38t109 -13q117 0 151 78q6 18 19 19q12 0 12 -13q0 -4 -8 -20q-66 -109 -234 -109q-55 0 -117.5 5t-125 10.5t-120 7.5t-102.5 -2 q-20 0 -35.5 -5.5t-30 -19.5t-29.5 -40.5t-34 -69.5q-29 -61 -63.5 -170t-71.5 -231t-71.5 -238.5t-61.5 -192.5q-41 -104 -87 -190t-94 -146.5t-95.5 -95.5t-88.5 -37q-57 -4 -99 28.5t-48 116.5zM840 61q0 107 86 443q6 20 20.5 69.5t31.5 112t37.5 134t40 137t36 119.5 t24.5 85q8 29 17.5 47.5t26 35t45 33.5t79.5 44q12 6 19 6q4 0 4 -4q-74 -104 -136.5 -284.5t-128.5 -432.5q-35 -139 -57 -251.5t-22 -194.5t55 -82q43 0 85 29.5t77 82.5q6 16 16 17q8 0 8 -6q0 -20 -39 -57.5t-89 -73t-100 -62t-73 -26.5q-63 0 -63 79z" />
<glyph unicode="&#x420;" horiz-adv-x="1069" d="M-311 -154q8 23 37 21q135 -12 129 -12q123 0 202 112q33 47 82 174q41 109 148 521q94 365 162 565q35 100 90 164q-412 -35 -625 -203q-14 -10 -27 -10q-29 0 -28 36q0 43 57 70q248 115 641 131q35 35 111 78q86 49 120 49q16 0 17 -8q0 -6 -19 -10q-55 -10 -93 -41 t-52 -64q555 0 528 -336q-16 -207 -237 -362q-182 -129 -361 -146q-49 -4 -75 -2q-31 2 -33 27q0 14 8 23q41 -18 104 -19q176 0 314 152q129 145 139 317q8 160 -98.5 240t-298.5 82q-66 -113 -234 -715q-55 -195 -75 -262q-48 -150 -95 -244q-76 -154 -209 -283 q-117 -113 -231 -112q-70 0 -92 26q-14 16 -6 41z" />
<glyph unicode="&#x421;" horiz-adv-x="1105" d="M-6 133q0 307 184 633q166 293 395 467q236 180 484 180q63 0 119 -22q33 -14 30 -33q-4 -10 -16 -42t-29 -85q-4 -23 -13 -51.5t-20 -65.5q-8 -23 -22 -20q-8 2 0 28q10 31 19.5 68t19.5 82q2 74 -158 74q-238 0 -403 -136q-172 -139 -312 -430q-143 -299 -143 -559 q0 -375 313 -375q166 0 334 115q119 82 174 174q18 31 31 17q12 -14 -4 -37q-57 -80 -197 -183q-225 -168 -411 -176q-92 -4 -162 21.5t-117 76t-71.5 122t-24.5 157.5z" />
<glyph unicode="&#x422;" horiz-adv-x="1040" d="M51 1147q20 76 144 162q201 141 366 145q106 2 346 -27q414 -51 416 -51q119 0 152 78q10 23 22 19q16 -6 0 -33q-63 -109 -233 -109q-29 0 -166 10.5t-148 10.5q-43 0 -71 -33q-23 -25 -58 -102q-90 -195 -172 -529q-80 -322 -127 -489q-23 -80 -78 -121 q-35 -25 -139 -66q197 29 309 21q92 -8 93 -47q0 -6 -2 -15q-63 29 -154 33q-229 12 -461 -67q-23 -8 -31 8q-6 12 10.5 28.5t36.5 20.5q61 4 140 12q88 20 137 146q74 190 170 565q31 131 119 426q33 94 94 143q37 31 131 70q-207 12 -387 8q-217 -6 -317 -84 q-74 -57 -103 -147q-8 -23 -24 -21q-23 4 -15 35z" />
<glyph unicode="&#x423;" horiz-adv-x="1091" d="M25 82q-6 29 14 33q10 0 12 -13q10 -63 51 -96q47 -39 99 -41q45 0 116 84q129 160 252 406q35 102 15 237q-29 182 -101 350q-135 315 -274 316q-47 0 -98 -51q-20 -20 -60 -74q-10 -10 -20 -4q-8 6 10 31q33 43 94 92q131 104 199 104q80 0 149 -121q39 -70 99 -233 q80 -223 110 -463q72 125 221 324q139 186 238 292q43 47 63 66q37 31 81 46t102 19q23 2 22 -6q0 -8 -16 -12q-57 -16 -154 -102q-272 -244 -473 -549q-98 -207 -207.5 -441.5t-177.5 -312.5q-55 -68 -133 -65q-96 4 -174 84q-43 45 -59 100z" />
<glyph unicode="&#x424;" horiz-adv-x="1419" d="M35 561q2 133 32.5 253t84.5 230q31 57 84 111.5t118.5 92.5t139 52.5t143.5 -6.5q37 -12 65.5 -43.5t49 -71.5t32.5 -83q4 -12 9 -25q35 106 81 221q41 104 100 155.5t163 65.5q-131 -4 -226.5 -7t-156.5 -3q-23 0 -30 4t-7 13q6 16 33 16q66 0 125 -5t110 -5 q37 0 104.5 4t184.5 14q16 0 16 -18q0 -10 -9 -13.5t-19 -3.5h-29q-43 0 -76 -7t-57.5 -24.5t-46 -49t-41.5 -80.5q-68 -145 -115 -283q-4 -14 -10 -27q25 33 49 64q61 72 132 124t146.5 75.5t147.5 3.5q68 -23 97.5 -78.5t33.5 -141.5q-2 -133 -32.5 -252.5t-84.5 -230.5 q-31 -57 -84 -111.5t-118.5 -92.5t-139 -52t-143.5 6q-37 12 -65.5 44t-49.5 71q-18 37 -31 74l-10 -41q-37 -147 -86 -316q-12 -37 -24.5 -62.5t-34 -45t-56 -36.5t-92.5 -40q174 12 338 12q53 0 54 -16q0 -14 -33 -14q-70 0 -127.5 5t-104.5 5q-27 0 -83 -6t-119.5 -14.5 t-118.5 -17.5t-78 -17q-6 -2 -18 -3q-25 0 -25 25q0 12 29.5 17.5t69.5 8.5t82 4t65 5q45 6 92 67.5t90 180.5q39 111 70 229q23 88 45 180q-35 -53 -80 -106q-59 -72 -130 -124t-146.5 -77t-147.5 -2q-68 23 -97.5 78t-33.5 141zM170 612q2 -86 30.5 -141t75.5 -70 q41 -12 96.5 9.5t113 68.5t111.5 115t95 145v-8q35 125 76 262l10 35l-6 4q-4 27 -16.5 62.5t-34 71.5t-53 65t-70.5 41q-109 33 -209 -30.5t-162 -252.5q-31 -94 -44 -186t-13 -191zM758 596q6 -20 14 -45q12 -35 33.5 -71t52.5 -64.5t72 -40.5q53 -16 106.5 -9t101.5 39.5 t90 95t72 156.5q31 94 44.5 186.5t13.5 190.5q-2 86 -31 141.5t-76 69.5q-41 12 -96 -9.5t-112.5 -68.5t-112.5 -114q-39 -49 -72 -103q-24 -80 -47 -162q-27 -94 -53 -192z" />
<glyph unicode="&#x425;" horiz-adv-x="1251" d="M-100 143q0 82 41 176q8 20 16 17q8 -6 2 -19q-12 -25 -12 -79q0 -127 135 -127q88 0 199 90q102 82 190 212t156 273q29 63 22 119q-10 82 -41 192q-35 127 -80 199q-68 106 -170 107q-61 0 -118 -64q-16 -18 -39 -57q-12 -16 -21 -15q-16 6 4 31q45 55 101 111 q111 111 178 110q59 0 114.5 -55t84.5 -137q41 -115 77 -365q55 141 219 324q184 207 310 207q68 0 67 -43q0 -45 -43 -45q-59 0 -122.5 -4.5t-202.5 -157.5q-129 -141 -191 -269q-31 -63 -26 -100q27 -195 69 -381q29 -123 72 -205q47 -90 94 -90q51 0 117 68q27 29 51 80 q10 25 18 22q10 -2 0 -28q-25 -59 -77 -127q-106 -133 -185 -133q-72 0 -121 118q-27 68 -63 232q-29 133 -61 362q-59 -133 -199 -342q-117 -174 -195 -254q-119 -121 -219 -121q-152 0 -151 168z" />
<glyph unicode="&#x426;" horiz-adv-x="1331" d="M59 162q0 258 101 604q72 250 157 408q23 45 54.5 80.5t70.5 64.5q82 61 146 63q-213 -12 -383 -12q-43 0 -37 23q6 18 45 16q98 -8 162.5 -12t101.5 -2t93.5 5t134.5 11q14 0 16 -14q2 -18 -29 -19q-92 0 -143 -39q-45 -29 -90 -98q-57 -88 -107.5 -209t-91.5 -280 q-74 -276 -74 -494q0 -203 150 -203q143 0 346 185q47 43 90 95t84 111q72 111 98 199q12 39 21.5 69.5t17.5 55.5q23 76 57.5 187.5t82.5 259.5q20 63 69 106q27 20 107 61q23 10 24 5q2 -2 -14 -19q-27 -27 -45 -67q-45 -100 -92 -233.5t-95 -307.5q-4 -20 -13 -51 t-19 -76q-33 -125 -53.5 -227.5t-28.5 -188.5q-2 -16 -3 -28.5t-1 -22.5q0 -98 82 -84q80 14 147 117q6 0 -3 -44t-32.5 -106.5t-61.5 -128t-91 -108.5q-57 -35 -154 -47q-63 -10 -174 -19q-106 -6 -152 -12q-47 -6 -76.5 -16.5t-49 -26t-28.5 -38t-16 -54.5q-2 -18 -4 -44 t-6 -57q0 -27 -10 -22q-10 2 -6 30q2 33 6 69t14 79q35 160 170 180q68 12 221 -4q154 -16 218 -4q43 6 79.5 47t66.5 94.5t48.5 107.5t24.5 85q-20 -29 -40 -46.5t-69 -54.5q-111 -80 -166 -79q-68 0 -67 84q0 106 90 462q-92 -180 -250 -325q-117 -109 -236 -170 q-129 -74 -215 -74q-170 0 -170 203z" />
<glyph unicode="&#x427;" horiz-adv-x="1331" d="M141 645q8 61 25.5 140t43.5 161t58.5 160t69.5 137q16 23 36.5 41.5t43.5 34.5q72 53 131 61q-102 -4 -194.5 -7t-174.5 -3q-43 0 -37 23q6 18 45 16q96 -8 162 -12t103 -2t93 5t134 11q14 0 16 -14q2 -18 -28 -19q-90 0 -144 -39q-61 -55 -103 -134t-72 -163 t-46 -167.5t-24 -149.5q-25 -203 122 -221q145 -16 367 141q102 72 199 184q86 100 120 185l-38 -113q-8 -10 -14.5 -19.5t-14.5 -19.5q23 70 50.5 158t62.5 197q20 63 69 106q25 18 107 61q23 10 24 5q2 -2 -14 -19q-27 -27 -45 -67q-45 -100 -92 -234.5t-95 -306.5 q-4 -20 -13 -51t-19 -76q-33 -125 -53.5 -227.5t-28.5 -188.5q-2 -16 -3 -28.5t-1 -22.5q0 -98 82 -84q80 14 147 117q12 20 23 16q12 -4 -9 -31q-37 -51 -139 -125q-111 -80 -166 -79q-68 0 -67 84q0 108 90 462q6 18 15 54l18.5 74l17.5 70t12 44q6 20 12.5 43t14.5 49 q-104 -147 -258 -254q-127 -90 -256 -139q-68 -29 -124 -40t-97 -7q-170 23 -144 223z" />
<glyph unicode="&#x428;" horiz-adv-x="2115" d="M59 162q0 254 101 604q72 250 157 408q23 45 54.5 80.5t70.5 64.5q82 61 146 63q-213 -12 -383 -12q-43 0 -37 23q6 18 45 16q96 -8 161.5 -12t102.5 -2t93.5 5t134.5 11q14 0 16 -14q2 -18 -29 -19q-90 0 -143 -39q-43 -27 -90 -98q-57 -88 -107.5 -209t-91.5 -280 q-74 -276 -74 -494q0 -203 150 -203q143 0 346 185q47 43 90 95t84 111q72 111 98 199l-24 -117q-92 -182 -250 -325q-113 -104 -236 -170q-129 -74 -215 -74q-170 0 -170 203zM885 162q0 254 100 604q23 76 58.5 189.5t82.5 261.5q20 63 70 106q25 18 107 61q23 10 24 5 q2 -2 -14 -19q-27 -27 -45 -67q-45 -100 -90.5 -239.5t-92.5 -311.5q-74 -276 -73 -494q0 -203 149 -203q143 0 346 185q47 43 90 95t84 111q35 55 61.5 104.5t41.5 94.5q12 39 21.5 69.5t17.5 55.5q23 76 57.5 187.5t81.5 259.5q20 63 70 106q25 18 106 61q23 10 25 5 q2 -2 -15 -19q-27 -27 -45 -67q-45 -100 -92 -234.5t-94 -306.5q-4 -20 -13.5 -51t-19.5 -76q-33 -125 -53.5 -227.5t-28.5 -188.5q-2 -16 -3 -28.5t-1 -22.5q0 -98 82 -84q80 14 148 117q12 20 22 16q12 -4 -8 -31q-37 -51 -139 -125q-111 -80 -166 -79q-68 0 -68 84 q0 57 20.5 171.5t65.5 290.5q-92 -182 -250 -325q-113 -104 -235 -170q-129 -74 -215 -74q-170 0 -170 203z" />
<glyph unicode="&#x429;" horiz-adv-x="2115" d="M59 162q0 254 101 604q72 250 157 408q23 45 54.5 80.5t70.5 64.5q82 61 146 63q-213 -12 -383 -12q-43 0 -37 23q6 18 45 16q96 -8 161.5 -12t102.5 -2t93.5 5t134.5 11q14 0 16 -14q2 -18 -29 -19q-90 0 -143 -39q-43 -27 -90 -98q-57 -88 -107.5 -209t-91.5 -280 q-74 -276 -74 -494q0 -203 150 -203q143 0 346 185q47 43 90 95t84 111q72 111 98 199l-24 -117q-92 -182 -250 -325q-113 -104 -236 -170q-129 -74 -215 -74q-170 0 -170 203zM885 162q0 254 100 604q23 76 58.5 189.5t82.5 261.5q20 63 70 106q25 18 107 61q23 10 24 5 q2 -2 -14 -19q-27 -27 -45 -67q-45 -100 -90.5 -239.5t-92.5 -311.5q-74 -276 -73 -494q0 -203 149 -203q143 0 346 185q47 43 90 95t84 111q35 55 61.5 104.5t41.5 94.5q12 39 21.5 69.5t17.5 55.5q23 76 57.5 187.5t81.5 259.5q20 63 70 106q25 18 106 61q23 10 25 5 q2 -2 -15 -19q-27 -27 -45 -67q-45 -100 -92 -234.5t-94 -306.5q-4 -20 -13.5 -51t-19.5 -76q-33 -125 -53.5 -227.5t-28.5 -188.5q-2 -16 -3 -28.5t-1 -22.5q0 -98 82 -84q80 14 148 117q12 20 22 16q12 -4 -8 -31q-37 -51 -139 -125q-111 -80 -166 -79q-68 0 -68 84 q0 57 20.5 171.5t65.5 290.5q-92 -182 -250 -325q-113 -104 -235 -170q-129 -74 -215 -74q-170 0 -170 203zM1184 -475q2 33 6 68.5t14 78.5q33 158 170 181q70 12 221 -5q150 -16 217 -4q43 6 80 47t67 94.5t48 107.5t25 85l16 39q6 0 -3 -45t-31.5 -106.5t-61.5 -127 t-92 -108.5q-55 -35 -154 -47q-61 -8 -174 -19q-104 -6 -152 -12q-92 -14 -125.5 -41.5t-44.5 -93.5q-2 -18 -4 -44t-6 -56q0 -27 -10 -23q-8 4 -6 31z" />
<glyph unicode="&#x42a;" horiz-adv-x="1378" d="M-57 -23q0 27 16 47.5t42 34t56.5 21.5t59.5 8h33q16 0 32 -2q61 0 109.5 51t88.5 138t76 203t72 243q82 285 123 399q57 164 172 266q39 39 97 82q-29 2 -97 7q-94 8 -139 10q-141 8 -266 6q-150 -4 -219 -57q-49 -39 -70 -101q-6 -16 -16 -14q-16 2 -11 22 q14 53 99 111q139 98 252 100q74 2 239 -18q233 -29 275 -35q55 37 116 60h2q6 8 13 6q2 -2 4 -2q10 0 10 -9q0 -10 -16 -16q-37 -57 -121 -68q-47 -45 -78 -88q-18 -23 -50 -95.5t-72 -176.5t-85 -233q-25 -70 -49 -140q14 2 35 6q31 4 66.5 5.5t62.5 1.5h41 q80 0 160.5 -26t145.5 -70t105.5 -102t40.5 -124q0 -98 -46 -181t-125.5 -143.5t-186 -93.5t-227.5 -33q-33 0 -82 3.5t-106.5 8.5t-116 11t-108.5 11l-85 8.5t-43 3.5q-139 0 -207 -43q-14 -8 -18 -9q-4 0 -4 6zM236 76q10 0 67 -12.5t133 -25.5t157 -24.5t138 -11.5 q90 0 168 28.5t134.5 81t88 128t31.5 168.5q0 111 -55.5 172t-137 90.5t-178.5 36.5q-80 6 -149 8q-17 -50 -33 -101q-45 -127 -88 -218t-87 -154.5t-91 -103.5t-98 -62zM1014 1501q37 8 55 29q-26 -11 -55 -29z" />
<glyph unicode="&#x42b;" horiz-adv-x="1867" d="M-57 -23q0 27 16 47.5t42 34t56.5 21.5t59.5 8h33q16 0 32 -2q61 0 109.5 51t88.5 138t76 203t72 243q82 285 123 399q57 164 172 266q29 29 77 68t95 68q-117 -16 -245 -88q-164 -90 -275 -236q-139 -182 -139 -369q0 -121 55 -153q12 -10 10 -19q-4 -14 -20 2 q-111 80 -111 226q0 164 133 327q121 147 342.5 252t419.5 107q45 0 45 -25q0 -20 -28 -18q-18 0 -46 3t-44 3q-59 -16 -110.5 -61.5t-84.5 -90.5q-18 -23 -50 -95.5t-72 -176.5t-85 -233q-25 -70 -49 -140q14 2 35 6q31 4 66.5 5.5t62.5 1.5h41q80 0 160.5 -26t145.5 -70 t105.5 -102t40.5 -124q0 -98 -46 -181t-125.5 -143.5t-186 -93.5t-227.5 -33q-33 0 -82 3.5t-106.5 8.5t-116 11t-108.5 11l-85 8.5t-43 3.5q-139 0 -207 -43q-14 -8 -18 -9q-4 0 -4 6zM236 76q10 0 67 -12.5t133 -25.5t157 -24.5t138 -11.5q90 0 168 28.5t134.5 81t88 128 t31.5 168.5q0 111 -55.5 172t-137 90.5t-178.5 36.5q-80 6 -149 8q-17 -50 -33 -101q-45 -127 -88 -218t-87 -154.5t-91 -103.5t-98 -62zM1122 -2q-10 33 37 33q113 0 207 12t182 248q43 123 138 487q39 164 137 508q41 104 99.5 155.5t162.5 65.5q-260 -10 -383 -10 q-41 0 -37 16q6 20 45 17q152 -12 264 -10q74 2 248 18q14 0 16 -16q2 -10 -8 -14.5t-20 -4.5q-113 6 -168 -37q-41 -33 -82 -125q-68 -154 -180 -591q-47 -188 -138 -517q-27 -80 -73 -118q-35 -27 -133 -66q176 12 338 12q59 0 53 -20q-4 -14 -53 -10q-152 12 -246 10 q-70 -2 -194 -21.5t-171 -33.5q-35 -10 -41 12z" />
<glyph unicode="&#x42c;" horiz-adv-x="1363" d="M-57 -23q0 27 16 47.5t42 34t56.5 21.5t59.5 8h33q16 0 32 -2q61 0 109.5 51t88.5 138t76 203t72 243q82 285 123 399q57 164 172 266q29 29 77 68t95 68q-117 -16 -245 -88q-164 -90 -275 -236q-139 -182 -139 -369q0 -121 55 -153q12 -10 10 -19q-4 -14 -20 2 q-111 80 -111 226q0 164 133 327q121 147 342.5 252t419.5 107q45 0 45 -25q0 -20 -28 -18q-18 0 -46 3t-44 3q-59 -16 -110.5 -61.5t-84.5 -90.5q-18 -23 -50 -95.5t-72 -176.5t-85 -233q-25 -70 -49 -140q14 2 35 6q31 4 66.5 5.5t62.5 1.5h39q82 0 162.5 -26t145.5 -70 t105.5 -102t40.5 -124q0 -98 -46 -181t-125.5 -143.5t-186 -93.5t-227.5 -33q-33 0 -82 3.5t-106.5 8.5t-116 11t-108.5 11l-85 8.5t-43 3.5q-139 0 -207 -43q-14 -8 -18 -9q-4 0 -4 6zM236 76q10 0 67 -12.5t133 -25.5t157 -24.5t138 -11.5q90 0 168 28.5t134.5 81t88 128 t31.5 168.5q0 111 -55.5 172t-137 90.5t-178.5 36.5q-80 6 -149 8q-17 -50 -33 -101q-45 -127 -88 -218t-87 -154.5t-91 -103.5t-98 -62z" />
<glyph unicode="&#x42d;" horiz-adv-x="1259" d="M47 111q27 72 92 143q16 16 25 10q2 -8 -8 -16q-20 -25 -35 -70q-18 -59 1 -102t83 -68q43 -20 102.5 -22t123 13t125 47t108.5 79q82 63 155.5 159.5t138.5 225.5q43 90 74 176q-33 -18 -86 -18t-108 4q-125 18 -199 18q-68 0 -121 -59l-6 2q86 121 168 121 q33 0 174 -33q63 -20 131 -21q35 0 57 13q14 41 25 80q39 135 41 264q4 377 -311 401q-170 16 -334 -86q-53 -33 -98.5 -72.5t-77.5 -87.5q-8 -12 -16.5 -15t-12.5 3q-16 12 2 35q63 78 195 164q125 82 237.5 116.5t216.5 26.5q164 -14 250 -123.5t86 -283.5 q-4 -311 -190 -621q-123 -205 -287 -359.5t-383 -240.5q-76 -29 -140.5 -35t-111.5 15q-143 63 -86 217z" />
<glyph unicode="&#x42e;" horiz-adv-x="2084" d="M-301 -221q0 6 4 18q12 29 51 15q82 -31 154 -31q156 0 233 78q113 115 207 362q23 57 54.5 156.5t72.5 243.5q6 16 14.5 43.5t18.5 62.5h-100q-322 0 -418 -170q-14 -23 -21 -20q-8 6 4 28q119 217 367 221q49 0 95 -2t87 -6q16 63 47 162.5t76 241.5q68 184 246 221 q-72 -4 -183.5 -6t-265.5 -2q-53 0 -43 30q2 14 50 9q53 -6 112.5 -10.5t124.5 -6.5h203q49 0 49 -4q2 -12 -29 -18q-55 -10 -123 -160q-35 -82 -75.5 -196.5t-85.5 -266.5q248 -23 368 -24q20 49 47 100q119 233 283 369q181 147 367 147q160 0 243 -129q74 -113 74 -289 q0 -193 -106.5 -440.5t-262.5 -403.5q-88 -88 -200.5 -144t-208.5 -56q-162 0 -246 121q-76 109 -76 288q0 199 72 396h-51q-20 0 -98 3t-218 11q-4 -16 -11 -40t-17 -54q-84 -295 -135 -412q-86 -197 -228 -319q-213 -182 -362 -189q-160 -6 -160 72zM1034 403 q0 -426 303 -426q139 0 285 152q106 113 182 344q68 213 68 385q0 199 -68 311q-80 137 -243 121q-123 -12 -226 -102q-135 -119 -221 -348q-16 -45 -31 -92q141 10 187 69l-10 -37q-53 -51 -187 -67q-39 -154 -39 -310z" />
<glyph unicode="&#x42f;" horiz-adv-x="1372" d="M-315 29q2 0 39.5 -17.5t91.5 -19.5q223 0 557 334q123 131 207.5 232.5t162.5 193.5q-63 16 -122.5 44.5t-105.5 67.5t-73.5 86t-27.5 101q0 98 46 181t126 143.5t186.5 93t226.5 32.5q47 0 132.5 -7t171.5 -15.5t154.5 -15.5t82.5 -7q139 0 207 43q14 8 18 8t4 -6 q0 -27 -16 -47t-41.5 -34.5t-56.5 -21.5t-60 -7h-32.5t-32.5 2q-61 0 -109.5 -48.5t-88.5 -131.5t-75.5 -195.5t-72.5 -239.5q-133 -440 -133 -612q0 -100 57 -100q63 0 154 96l28 28q2 -2 2 -6q0 -20 -37.5 -57t-89 -73t-101.5 -62.5t-77 -26.5q-63 0 -63 90q0 16 8 65.5 t22.5 115t30.5 142.5t34.5 151.5t35 139t28.5 105.5q61 162 106.5 270.5t87.5 178t88 110.5t112 70q-10 0 -67.5 11t-133.5 25.5t-157 26t-138 11.5q-90 0 -168 -29t-134 -81t-88 -128t-32 -168q0 -66 22.5 -118t60.5 -92t90 -65.5t114 -33.5q41 -4 74.5 0t62.5 8q8 0 8 -14 q-4 -23 -23.5 -24t-72.5 -1q-6 0 -17.5 3t-21.5 7t-20.5 5.5t-16.5 -5.5q-57 -61 -120.5 -145t-133 -175t-144.5 -180t-154 -159t-163 -113t-172 -41q-78 0 -137 16.5t-108 63.5q-16 8 -2 21z" />
<glyph unicode="&#x430;" horiz-adv-x="847" d="M-35 76q4 240 146 502q76 139 231 264q137 111 233 106q92 -4 82 -110q49 39 80 67q23 23 31 15q4 -4 -8 -25q-90 -156 -152 -389q-47 -182 -51 -305q-2 -63 2 -82q10 -45 55 -45q57 0 156 98q14 14 18 12q14 -6 -8 -28q-63 -63 -151 -119.5t-135 -56.5q-72 0 -72 79 q0 145 88 426q-43 -104 -162 -245q-217 -258 -330 -258q-55 0 -53 94zM94 170q2 -80 39 -80q66 0 199 164q149 184 276 526q6 16 6 33q0 53 -57 68q-18 4 -39 4q-88 0 -166 -66q-111 -94 -190 -327q-70 -203 -68 -322z" />
<glyph unicode="&#x431;" horiz-adv-x="677" d="M0 199q0 156 49 307q8 43 21.5 101.5t35 122t51 126t68.5 115.5q27 31 57.5 57.5t72.5 54t97.5 59.5t133.5 72q88 45 146.5 76t95 56.5t54 49t25.5 54.5t10.5 75t6.5 107q-2 4 -2 15q0 16 14 16q6 0 6 -25v-45q0 -119 -13.5 -197.5t-55.5 -134t-120.5 -98.5t-209.5 -88 q-86 -29 -150.5 -51.5t-99.5 -44.5q-55 -35 -98 -123t-72 -186q39 68 89 124t114 95q84 53 147 53q145 0 145 -211q0 -174 -55 -322.5t-162 -267.5q-141 -159 -260 -159q-141 0 -141 217zM109 272q0 -96 32.5 -153.5t91.5 -57.5q59 2 109.5 57.5t86.5 141.5t56.5 191.5 t20.5 210.5q0 96 -34 157.5t-93 61.5q-53 0 -102.5 -57.5t-86 -146.5t-59 -196.5t-22.5 -208.5z" />
<glyph unicode="&#x432;" horiz-adv-x="792" d="M-23 514q18 6 69.5 45t119.5 96q14 63 30.5 134t36.5 155q20 78 56.5 149.5t81.5 133t95 112t99 84.5q66 47 119 62.5t76 -12.5q25 -31 5 -102t-63 -153.5t-103 -167.5t-120 -143q-113 -109 -205 -192q-16 -66 -32.5 -139.5t-34.5 -157.5q57 135 180 289q190 238 291 237 q72 0 72 -113q0 -80 -17.5 -170t-54.5 -182t-93.5 -183t-131.5 -171q-137 -143 -254 -143q-61 0 -62 61q0 20 8 39q31 -35 86 -35t103.5 18.5t91.5 60.5t80 110.5t67 169.5q25 86 39.5 161.5t14.5 145.5q0 115 -54 114q-43 0 -101 -56t-118.5 -143t-112 -193.5t-77.5 -205.5 q-2 -8 -12.5 -49t-28.5 -117q-10 -35 -40 -51t-71 -39q-10 -8 -18 -8q-6 0 -6 6l4 13q27 74 56.5 181t64.5 251q10 39 19 87t22 105q-53 -47 -90 -78.5t-52 -48.5q0 -6 -2 -1t-6 12.5t-10.5 14.5t-16.5 7zM289 766q45 41 88 85t84 85q37 39 75.5 88t71.5 100.5t59.5 101.5 t39 92t8.5 71.5t-31 40.5q-57 -4 -105.5 -28t-94.5 -93.5t-93 -198.5t-102 -344z" />
<glyph unicode="&#x433;" horiz-adv-x="661" d="M45 602q20 49 53 104.5t82 103.5t117 82t154 38q43 2 59 -22.5t15 -62.5t-14 -82t-30 -83q-72 -172 -114.5 -270.5t-65 -152.5t-31 -78.5t-10.5 -47.5q-8 -72 36 -85t105.5 14.5t122 84t84.5 123.5q4 8 4 12.5t6 4.5q12 0 13 -4q2 -10 -4 -13.5t-6 -15.5q-4 -25 -34 -67 t-78 -83t-108.5 -71.5t-124.5 -32.5q-59 -2 -86.5 20.5t-31.5 63.5t11 99.5t43 127t63.5 145t70.5 154.5q29 72 47.5 118t16.5 85q-4 51 -42 62.5t-91.5 -16.5t-108.5 -91.5t-92 -163.5q-16 -6 -21 -6q-10 0 -10 6z" />
<glyph unicode="&#x434;" horiz-adv-x="774" d="M-367 -315q-2 74 41 157q18 27 29 23q4 -2 -6 -25q-12 -29 -16 -53q-10 -78 61.5 -138.5t187.5 -64.5q199 -8 332 176q98 135 174 396q47 184 96 366q-35 -106 -184 -282q-217 -258 -330 -258q-55 0 -53 94q4 240 150 510q72 131 227 256q139 111 236 106q74 -4 61 -98 q27 23 80 68q27 23 35 14l-6 -21q-43 -80 -89 -260l-106 -446q-78 -326 -295 -514q-184 -162 -399 -170q-219 -8 -226 164zM94 170q0 -84 37 -84t111 70q53 51 90 98q168 223 289 559q6 18 -18.5 43t-55.5 29q-104 10 -193.5 -68t-183.5 -307q-35 -86 -59 -201 q-16 -78 -17 -139z" />
<glyph unicode="&#x435;" horiz-adv-x="563" d="M-8 201q2 223 117 424q59 104 159 198q125 117 219 117q76 0 76 -86q0 -150 -145 -258q-109 -80 -195 -100q-25 -6 -24 4q0 16 16 18q68 10 121 47q127 88 127 260q0 63 -47 64q-37 0 -84 -37q-78 -61 -131 -186q-80 -191 -92 -357q-8 -129 32.5 -196.5t130.5 -67.5 q84 0 174 90q18 14 23 10q6 -4 -12 -24q-45 -47 -115 -86q-92 -53 -172 -55q-100 -2 -143 61q-35 53 -35 160z" />
<glyph unicode="&#x436;" horiz-adv-x="1413" d="M-66 33q0 14 12.5 28.5t26.5 14.5q23 0 56.5 -19.5t68.5 -19.5q53 0 101.5 33.5t90.5 91t73.5 130.5t50.5 150q-76 -4 -97 -6q18 23 36 28t40 13h29q10 45 15 89t5 85q0 223 -159 223q-41 0 -90.5 -28.5t-77.5 -61.5q-10 -12 -17 -12q-6 0 -6 4q0 20 32 49t77 54.5t94 43 t84 17.5q178 0 178 -231q0 -53 -10 -109.5t-29 -116.5q47 2 77 2h54l92 369q12 18 20.5 31.5t19 23t24.5 15.5t37 14l-107 -453h27h110h13q33 86 81 166t108.5 143.5t130 101.5t143.5 38q45 0 72.5 -16.5t27.5 -38.5q0 -14 -12.5 -29.5t-26.5 -15.5q-23 0 -56.5 20t-68.5 20 q-72 0 -134.5 -59t-109.5 -150.5t-73.5 -200t-26.5 -204.5q0 -223 160 -223q41 0 90 28.5t78 61.5q8 12 16 12q6 0 6 -6q0 -23 -31.5 -50.5t-76.5 -52t-94.5 -42t-83.5 -17.5q-178 0 -179 232q0 119 49 254q-23 -2 -57.5 -3t-87.5 -1l-96 -385q-18 -29 -41 -53.5t-51 -24.5 q-8 0 -13 2l113 459q-37 0 -70.5 -1t-64.5 -4q-33 -88 -81 -172t-109.5 -150.5t-133 -106.5t-147.5 -40q-47 0 -74 16.5t-27 39.5z" />
<glyph unicode="&#x437;" horiz-adv-x="651" d="M-479 -354q-2 74 41 157q18 27 28 23q4 -2 -6 -25q-12 -29 -16 -53q-10 -78 61.5 -138.5t188.5 -64.5q199 -8 332 176q98 135 161 320q20 80 13 138.5t-27.5 97t-49 58t-52.5 19.5q-43 0 -66 -11t-35 -11q-10 0 -10 -7.5t0 7.5q0 23 16.5 25.5t63.5 15.5q25 6 72 32.5 t94 73.5t83 115t36 154q0 96 -30 136t-75 40q-55 0 -110.5 -28t-96.5 -60.5t-63.5 -60t-16.5 -27.5q-2 0 -2 8v18v18v9q86 92 189.5 124.5t195.5 32.5q49 0 93.5 -37.5t44.5 -129.5q0 -78 -35 -143.5t-82 -117t-99.5 -87t-85.5 -54.5v-10q57 0 91 -21.5t49.5 -55.5t19.5 -77 t4 -86q-51 -272 -295 -487q-184 -162 -399 -170q-219 -8 -225 164z" />
<glyph unicode="&#x438;" horiz-adv-x="962" d="M68 53q8 61 43 191q33 117 65 233q53 203 62 289q8 84 -37 84q-14 0 -97 -43q-29 -14 -30 -12q-2 2 -2 6t22 18q184 121 266 121q39 0 23 -72q-35 -115 -113 -395q-53 -215 -53 -293q0 -41 23 -41q51 0 198 174q119 139 215 367q23 57 43 115q31 72 70 98q31 20 70 45 q16 10 22 0q2 -6 -10 -25q-72 -98 -139 -387q-41 -176 -54 -303q-4 -35 -4 -59q1 -86 60 -86q57 0 155 98q14 14 19 12q8 -2 -11 -26q-61 -63 -151 -120.5t-137 -57.5q-72 0 -68 77q2 61 35 222q31 150 59 243q-68 -121 -186 -258q-242 -279 -332 -284q-18 -2 -24.5 14 t-1.5 55z" />
<glyph unicode="&#x439;" horiz-adv-x="962" d="M68 53q8 61 43 191q33 117 65 233q53 203 62 289q8 84 -37 84q-14 0 -97 -43q-29 -14 -30 -12q-2 2 -2 6t22 18q184 121 266 121q39 0 23 -72q-35 -115 -113 -395q-53 -215 -53 -293q0 -41 23 -41q51 0 198 174q119 139 215 367q23 57 43 115q31 72 70 98q31 20 70 45 q16 10 22 0q2 -6 -10 -25q-72 -98 -139 -387q-41 -176 -54 -303q-4 -35 -4 -59q1 -86 60 -86q57 0 155 98q14 14 19 12q8 -2 -11 -26q-61 -63 -151 -120.5t-137 -57.5q-72 0 -68 77q2 61 35 222q31 150 59 243q-68 -121 -186 -258q-242 -279 -332 -284q-18 -2 -24.5 14 t-1.5 55zM528 1174q4 18 15 18q14 -12 26 -14q184 -82 361 47q20 20 26 8q8 -12 -18 -29q-119 -98 -217 -129q-92 -27 -137 6q-29 20 -49 64q-8 18 -7 29z" />
<glyph unicode="&#x43a;" horiz-adv-x="792" d="M0 -12q0 2 4 18q0 4 9.5 40t24.5 94.5t34 132t39 153.5q72 295 69 362q0 49 -33 48q-35 -2 -106 -60q-14 -14 -18 -2q0 8 20 23q188 135 248 135q39 0 28 -55q-4 -27 -131 -496q16 47 50 107.5t79 124t96.5 125t102.5 108.5t98.5 76.5t83.5 29.5q47 0 47 -37 q0 -35 -16 -52t-35 -17q-14 0 -27.5 1t-25.5 1q-70 0 -144.5 -50t-121.5 -143q-8 -16 -8 -22q0 -43 15 -101.5t38.5 -117t48.5 -109.5t43 -84q80 -137 135 -137q29 0 80 39l14 10q6 0 7 -4q0 -16 -27 -39.5t-61.5 -46.5t-66.5 -38t-40 -15q-51 0 -117.5 127t-130.5 381 q-6 18 -14 18q-6 0 -12 -8q-33 -41 -53.5 -82t-36 -90t-29 -109.5t-29.5 -140.5q-4 -18 -19.5 -33.5t-34 -28t-35.5 -21.5t-26 -15q-2 -2 -4 -3t-4 -3l-4 -5q-4 0 -4 11z" />
<glyph unicode="&#x43b;" horiz-adv-x="790" d="M-96 14q0 31 44 65t66 54q90 86 181 227q152 236 233 428q6 25 29 60q113 96 110 96q14 0 6 -31q-49 -207 -57 -440q-8 -240 33 -348q22 -57 53 -57q33 0 74 28q12 12 18 4q6 -6 -12 -18q-23 -20 -107 -74q-59 -37 -96 -37q-29 0 -43 39q-25 61 -28 205q-8 279 32 547 q-61 -152 -227 -438q-119 -207 -193 -293q-43 -51 -77 -51q-43 0 -39 34z" />
<glyph unicode="&#x43c;" horiz-adv-x="1175" d="M-76 -8q-8 31 41 67q104 86 209 293q129 258 180 473q6 23 19 37q25 23 71 64q10 12 19 8q10 -4 10 -23q-4 -35 -6 -106q-4 -100 6 -322q6 -133 12 -235q6 -74 -4 -103q109 152 207 324q125 223 182 369q4 14 23 24q49 33 96 72q14 8 19 0q6 -8 -2 -29q-53 -154 -91 -422 q-31 -242 0 -366q18 -59 50 -64q33 -4 75 17q12 12 19 2q6 -6 -12 -15q-49 -35 -115 -59q-53 -29 -94 -23q-27 4 -39 43q-20 68 -11 207q14 256 60 467q10 49 8 49q-6 -6 -22 -45q-41 -94 -138 -264q-152 -254 -315 -448q-8 -12 -14 -9q-8 0 -7 11q18 33 23 94q2 20 -12 348 q-10 276 -4 344q-41 -133 -168 -424q-72 -170 -174 -319q-41 -57 -70 -62q-27 -2 -31 25z" />
<glyph unicode="&#x43d;" horiz-adv-x="962" d="M8 -31q-2 6 10 25q25 35 42.5 77t39.5 119q8 29 18.5 67t19.5 77t19.5 77t18.5 66q51 203 62 289q10 84 -37 84q-14 0 -97 -43q-29 -16 -30 -12q-2 2 -2 6q0 2 22 18q186 121 266 121q39 0 23 -72q-16 -53 -41 -140t-59 -210q20 -4 43.5 -8t48.5 -6q53 -6 111.5 -2 t123.5 20q0 2 1 2t1 2q6 14 17.5 52t25 81t24.5 82t17 54q31 72 70 98q27 18 70 45q16 10 22 0q2 -6 -10 -25q-51 -70 -96 -225q-10 -35 -21.5 -76t-21.5 -86q-20 -88 -33.5 -163.5t-20.5 -139.5q-2 -16 -3 -31.5t-1 -27.5q0 -86 60 -86q57 0 155 98q14 14 19 12 q8 -2 -11 -26q-31 -33 -68.5 -62.5t-82.5 -58.5q-88 -57 -137 -57q-72 0 -68 77q2 31 10.5 86.5t24.5 135.5q10 57 22.5 105t22.5 89q-59 -10 -124.5 -12t-137.5 12q-33 0 -64 6q0 -4 -1 -5t-1 -5q-16 -66 -27.5 -119t-17.5 -94q-18 -72 -43.5 -139.5t-81.5 -106.5 q-27 -18 -69 -45q-16 -10 -23 0zM635 462.5q0 -4.5 4 20.5h-2q-2 -16 -2 -20.5z" />
<glyph unicode="&#x43e;" horiz-adv-x="677" d="M0 227q12 324 213 566q43 53 113 96q82 53 147 53q154 0 145 -235q-12 -334 -217 -566q-141 -159 -260 -159q-152 0 -141 245zM109 295q-4 -104 29.5 -169t94.5 -65q86 2 150 109q111 188 123 469q4 104 -30 173t-97 69q-78 0 -146 -117q-113 -197 -124 -469z" />
<glyph unicode="&#x43f;" horiz-adv-x="954" d="M4 -33q-8 2 2 21q53 98 139 420q72 270 72 389q0 51 -33 51q-43 0 -106 -57q-14 -14 -19 -3q-2 6 19 23q78 57 184 113q41 20 68 18q37 -4 28 -55q-23 -150 -127 -510q98 205 220 342t225 190q63 33 102 31t33 -59q-4 -39 -43 -174q-55 -186 -70 -244q-57 -225 -57 -307 t61 -82q72 0 158 96q20 25 27 18q6 -6 -13 -28q-49 -55 -149 -117.5t-152 -62.5q-66 0 -61 73q2 29 96 414q33 127 70 315q2 41 -25 45q-18 2 -53 -14q-70 -33 -160 -139q-51 -61 -118 -176q-76 -135 -111 -238q-23 -78 -57 -188q-10 -31 -43 -49.5t-88 -49.5q-12 -8 -19 -6 z" />
<glyph unicode="&#x440;" horiz-adv-x="808" d="M-141 -512q-6 2 4 27q80 215 235 743q84 283 107 465q16 131 -25 131t-112 -59q-14 -14 -19 -2q-4 8 17 22q186 133 260 133q25 0 24 -45q0 -90 -112 -465q66 139 165 262q70 86 148 152q96 80 149 80q76 0 70 -115q-10 -201 -106 -414q-61 -137 -200.5 -278t-252.5 -141 q-72 0 -84 71q-47 -182 -121 -450q-10 -35 -39 -45q-53 -18 -90 -54q-2 -2 -7 -11t-11 -7zM137 88q31 -37 103 -37q129 0 225 101q68 72 122 239.5t58 308.5q2 119 -55 119q-74 0 -199 -168q-135 -182 -205 -403q-25 -76 -49 -160z" />
<glyph unicode="&#x441;" horiz-adv-x="589" d="M-8 207q0 203 117 411q78 137 180 226q115 94 225 94q49 0 76 -18q41 -27 14 -64q-23 -31 -55 -8q-47 31 -98 31q-154 0 -256 -234q-89 -199 -89 -381q0 -223 160 -223q49 0 109 39q41 29 59 51q12 16 19 12q8 -4 -4 -22q-29 -43 -105 -88q-94 -57 -174 -58 q-178 0 -178 232z" />
<glyph unicode="&#x442;" horiz-adv-x="1366" d="M6 -18q-8 2 2 20q53 98 139 420q66 246 66 377q0 51 -33 51q-43 0 -106 -57q-14 -14 -19 -2q-2 6 19 22q78 57 184 113q41 20 68 18q37 -4 28 -55q-35 -219 -123 -500q98 190 209 322q127 150 242 202q49 23 76 21q39 -4 33 -57q-2 -20 -86 -328q-14 -49 -48 -158 q115 207 209 314q137 156 240 206q49 25 78 23q37 -4 30 -57q-2 -23 -104 -400q-57 -213 -57 -307q0 -82 61 -82q72 0 158 96q20 25 26 19t-12 -29q-49 -55 -149.5 -117.5t-151.5 -62.5q-61 0 -61 74q0 23 96 413q53 219 59 297q2 39 -22 43q-16 2 -51 -18 q-61 -37 -150 -144q-135 -164 -221 -399q-8 -23 -49 -168q-8 -33 -27 -43q-37 -25 -104 -61q-14 -6 -17 -4q-4 4 2 20q94 254 152 471q53 205 61 303q4 41 -22 43q-66 8 -199 -151.5t-219 -395.5q-23 -78 -57 -188q-10 -31 -43 -49.5t-88 -48.5q-12 -8 -19 -6zM453 1040 q-4 4 10 23l26 37q31 41 61 73.5t56 59.5q59 29 115 47q41 8 82 11t90 0t113.5 -10t150.5 -21q98 -16 163.5 -27.5t110 -12.5t73 7t52.5 28q25 20 52.5 54t68.5 82q0 4 2 6t4 6q12 14 23 4q4 -4 -10 -23l-27 -36q-31 -41 -57.5 -74t-52.5 -60q-49 -49 -97.5 -73.5 t-108 -28.5t-135 12.5t-180.5 49.5q-86 29 -150.5 49t-107.5 24q-35 4 -82 -8t-96 -47q-25 -20 -52.5 -54t-68.5 -81q0 -4 -2 -6t-4 -7q-12 -14 -22 -4z" />
<glyph unicode="&#x443;" horiz-adv-x="892" d="M-229 -330q0 80 24 148q6 23 17 20q4 0 -2 -20q-8 -31 -9 -60q0 -59 43 -102t105 -43q195 0 387 350q43 78 108 223q96 215 121 269q141 299 232 409q51 63 100 64q37 0 37 -41q0 -29 -28.5 -51.5t-59.5 -44.5q-156 -147 -256 -345q-55 -106 -119 -256 q-84 -190 -102 -231q-86 -184 -213 -317q-133 -139 -236 -140q-150 0 -149 168zM31 745q-10 6 6 23q74 74 141 135q39 35 74 35q98 0 133 -309q26 -246 18 -488q-2 -35 -18 -49q-23 -25 -68 -74q-10 -10 -14 -8q-4 4 -2 27q23 186 0 442q-31 346 -143 346q-47 0 -111 -71 q-10 -12 -16 -9z" />
<glyph unicode="&#x444;" horiz-adv-x="1003" d="M-152 -489q0 37 39 36q10 0 45 -3t60 -3q152 0 233.5 127t188.5 645q6 33 14 70q-37 -76 -94 -158q-147 -225 -248 -225q-74 0 -82 111q-18 195 43 397q43 133 156.5 269t220.5 136q68 0 92 -69l-8 -31q-33 35 -102 35q-121 0 -199 -96q-53 -70 -83 -231t-15 -298 q16 -117 73 -117q70 0 158 164q63 102 100 217q0 -12 4 -10h2q29 137 62 309q27 113 65 242q72 182 250 309q160 115 271 115q88 0 84 -45q-4 -35 -52 -33q-20 2 -56 10.5t-62 8.5q-74 0 -131 -41q-96 -70 -179 -285q-35 -88 -65 -242l-10 -39q-29 -123 -54 -223 q35 61 84 129q164 225 267 226q74 0 77 -111q12 -195 -55 -397q-47 -133 -167 -269.5t-230 -136.5q-69 0 -92 70l10 30q33 -35 102 -34q125 0 209 96q59 70 92 230.5t21 297.5q-10 117 -66 117q-74 0 -174 -164q-61 -96 -104 -203q-49 -195 -72 -278q-94 -328 -201 -483 q-59 -88 -153 -153t-168 -65q-100 0 -101 46z" />
<glyph unicode="&#x445;" horiz-adv-x="911" d="M-70 86q4 57 41 129q10 23 17 16q4 -4 0 -16q-12 -20 -13 -45q-4 -25 15.5 -47.5t62.5 -22.5q100 0 201 113q39 43 94 139.5t58 130.5q2 37 -23 191q-20 119 -37.5 153.5t-52.5 34.5q-76 0 -146 -69q-16 -16 -22 -11q-10 8 6 23q41 35 184 113q66 35 99 30q37 -4 49 -35 q10 -23 18 -97.5t23 -244.5q68 137 129 211q141 172 227 172q53 0 51 -41q-2 -49 -61 -53q-109 -6 -188 -86q-39 -39 -94.5 -128t-57.5 -120q-8 -80 40 -265t124 -185q55 0 117 45q23 16 24 14q6 -8 -8 -20q-150 -127 -246 -127q-53 0 -78.5 46t-42.5 169q-23 160 -24 227 q-45 -92 -68 -131q-47 -83 -100 -149q-129 -164 -219 -164q-104 0 -99 100z" />
<glyph unicode="&#x446;" horiz-adv-x="962" d="M-31 -487q-4 29 6.5 72.5t26.5 90.5q45 158 193 170q25 2 74.5 -4t105 -12t108 -11t80.5 -3q10 0 19.5 2t19.5 2q43 4 79 33.5t66.5 76.5t55 106.5t45.5 123.5l31 26v-2q-12 -31 -26.5 -78t-38 -99t-58.5 -103t-88 -88q-35 -27 -96.5 -38t-130 -14.5t-138.5 -3.5t-123 -4 q-63 -4 -97 -17t-51.5 -40t-25.5 -70t-18 -104q-2 -25 -11 -25q-8 0 -8 13zM66 25q0 23 12 79t29.5 129.5t39 155.5t41 155.5t34 133t16.5 88.5q0 6 1 13t1 12q0 59 -39 59q-14 0 -97 -43q-25 -12 -28 -12q-4 0 -4 6q0 2 22 18q186 121 266 121q27 0 27 -35q0 -10 -12.5 -58 t-31.5 -118t-40.5 -152.5t-41 -160.5t-32 -141.5t-12.5 -94.5q0 -41 23 -41q25 0 79 45t118.5 130t134 206t124.5 275q14 33 28.5 53t31 35.5t36 27t44.5 27.5q8 4 12 4q10 0 10 -6t-10 -23q-23 -33 -56.5 -119.5t-64.5 -197.5t-53.5 -227.5t-22.5 -204.5q1 -86 60 -86 q57 0 155 98q12 12 17 12q4 0 4 -4q0 -12 -17.5 -30.5t-42 -38t-53.5 -40t-51 -34.5q-88 -57 -137 -57q-37 0 -52.5 19.5t-15.5 57.5q0 25 10.5 83.5t25.5 129t30.5 140t27.5 112.5q-68 -121 -151.5 -221t-159.5 -172t-134 -110.5t-77 -38.5q-25 0 -24 41z" />
<glyph unicode="&#x447;" horiz-adv-x="962" d="M72 801q0 2 22 18q186 121 266 121q27 0 27 -35q0 -6 -6 -31.5t-16.5 -63.5t-23.5 -87t-28 -102q-4 -23 -9 -59t-7 -69.5t3 -58t24 -24.5q20 0 60 26.5t90 75.5t107.5 122t112.5 165l2 -2q14 31 28.5 51t31 35.5t36 27t44.5 27.5q8 4 12 4q10 0 10 -6t-10 -23 q-23 -33 -56.5 -119.5t-64.5 -197.5t-53.5 -227.5t-22.5 -204.5q0 -86 60 -86q57 0 155 98q12 12 17 12q4 0 4 -4q0 -12 -17.5 -30.5t-42 -38t-53.5 -40t-51 -34.5q-88 -57 -137 -57q-37 0 -52.5 19.5t-15.5 57.5q0 25 10.5 86.5t23.5 135t28.5 145.5t27.5 115q12 49 23 80 q10 27 18 47q-41 -51 -84 -97q-90 -98 -174 -168.5t-148.5 -109.5t-84.5 -39q-27 0 -27 41q0 29 20.5 109.5t49.5 181.5q12 53 22 104t15 74q0 6 1 13t1 12q0 59 -39 59q-14 0 -97 -43q-25 -12 -28 -12q-4 0 -4 6z" />
<glyph unicode="&#x448;" horiz-adv-x="1359" d="M68 53q8 61 43 191q16 59 32.5 116.5t32.5 116.5q51 203 62 289q10 84 -37 84q-14 0 -97 -43q-29 -16 -30 -12q-2 2 -2 6q0 2 22 18q186 121 266 121q39 0 23 -72q-16 -57 -45 -155.5t-68 -239.5q-53 -219 -53 -293q0 -41 23 -41q51 0 198 174q119 137 215 367 q10 29 21.5 57.5t21.5 57.5q31 72 70 98q27 18 70 45q16 10 22 0q2 -6 -10 -25q-18 -25 -41 -69.5t-46.5 -103t-46 -127t-38.5 -140.5q-53 -219 -53 -293q0 -41 22 -41q51 0 199 174q119 137 215 367q10 29 21.5 57.5t21.5 57.5q31 72 69 98q27 18 70 45q16 10 23 0 q2 -6 -11 -25q-72 -100 -139 -387q-20 -88 -33.5 -163.5t-19.5 -139.5q-2 -16 -3 -31.5t-1 -27.5q0 -86 59 -86q57 0 156 98q14 14 18 12q8 -2 -10 -26q-31 -33 -68.5 -62.5t-83.5 -58.5q-88 -57 -137 -57q-72 0 -67 77q2 31 10 86.5t24 135.5q16 76 31 136t29 107 q-70 -123 -187 -258q-242 -279 -331 -284q-35 -2 -27 69q8 61 43 191q16 59 33 116.5t33 116.5q-16 -31 -31.5 -54.5t-33 -46t-39 -48t-52.5 -60.5q-242 -279 -332 -284q-35 -2 -26 69z" />
<glyph unicode="&#x449;" horiz-adv-x="1359" d="M68 53q8 61 43 191q16 59 32.5 116.5t32.5 116.5q51 203 62 289q10 84 -37 84q-14 0 -97 -43q-29 -16 -30 -12q-2 2 -2 6q0 2 22 18q186 121 266 121q39 0 23 -72q-16 -57 -45 -155.5t-68 -239.5q-53 -219 -53 -293q0 -41 23 -41q51 0 198 174q119 137 215 367 q10 29 21.5 57.5t21.5 57.5q31 72 70 98q27 18 70 45q16 10 22 0q2 -6 -10 -25q-18 -25 -41 -69.5t-46.5 -103t-46 -127t-38.5 -140.5q-53 -219 -53 -293q0 -41 22 -41q51 0 199 174q119 137 215 367q10 29 21.5 57.5t21.5 57.5q31 72 69 98q27 18 70 45q16 10 23 0 q2 -6 -11 -25q-72 -100 -139 -387q-20 -88 -33.5 -163.5t-19.5 -139.5q-2 -16 -3 -31.5t-1 -27.5q0 -86 59 -86q57 0 156 98q14 14 18 12q8 -2 -10 -26q-31 -33 -68.5 -62.5t-83.5 -58.5q-88 -57 -137 -57q-72 0 -67 77q2 31 10 86.5t24 135.5q16 76 31 136t29 107 q-70 -123 -187 -258q-242 -279 -331 -284q-35 -2 -27 69q8 61 43 191q16 59 33 116.5t33 116.5q-16 -31 -31.5 -54.5t-33 -46t-39 -48t-52.5 -60.5q-242 -279 -332 -284q-35 -2 -26 69zM383 -487q-4 29 6 72.5t27 90.5q45 158 192 170q25 2 75 -4t105.5 -12t107.5 -11t81 -3 q10 0 19.5 2t19.5 2q43 4 78.5 33.5t66.5 76.5t55.5 106.5t45.5 123.5l30 26v-2q-12 -31 -26.5 -78t-38 -99t-58 -103t-88.5 -88q-35 -27 -96 -38t-130 -14.5t-138.5 -3.5t-122.5 -4q-63 -4 -97 -17t-51.5 -40t-25.5 -70t-19 -104q-2 -25 -10 -25t-8 13z" />
<glyph unicode="&#x44a;" horiz-adv-x="790" d="M49 760q4 18 8 36.5t9 39.5q16 61 36 82q14 14 52.5 8t84.5 -13.5t92 -8.5t77 24q4 4 19 15t58 -3q31 0 31 -35l-2 -11t-13.5 -54t-35 -131t-66.5 -244q-31 -109 -45 -183.5t-16 -119.5q2 -33 11 -51.5t30 -14.5q63 10 113.5 48t84 89.5t53 108.5t21.5 107q2 68 -23.5 87 t-64.5 15t-80 -23.5t-67 -27.5l33 39q47 18 77.5 35.5t83.5 17.5q57 0 101.5 -28.5t44.5 -88.5q0 -59 -17.5 -107.5t-48.5 -90t-74 -80.5t-94 -78q-25 -20 -57.5 -42t-65 -40.5t-63.5 -30.5t-51 -12q-39 0 -55.5 18.5t-19.5 46t1 58t6 57.5q4 16 19.5 62.5t31 96.5t28.5 90 t13 44q23 94 37 153.5t23.5 103.5t19 83t21.5 92q-82 -49 -133.5 -55t-87 -1t-59.5 6t-50 -32q-10 -14 -21 -63q-4 -16 -8 -15q-4 2 -2 21z" />
<glyph unicode="&#x44b;" horiz-adv-x="1062" d="M38 58.5q-3 27.5 1 58t6 57.5q4 16 19.5 62.5t31 96.5t28.5 90t13 44q33 133 49.5 214t16.5 116q0 47 -33 47q-39 -4 -107 -60q-8 -8 -12 -8q-6 0 -6 6q0 8 21 23q186 135 247 135q31 0 31 -35l-2 -11t-13.5 -54t-35 -131t-66.5 -244q-31 -109 -45 -183.5t-16 -119.5 q2 -33 11 -51.5t30 -14.5q63 10 113.5 48t84 89.5t53 108.5t21.5 107q2 68 -23.5 87t-64.5 15t-80 -23.5t-67 -27.5l32 39q47 18 78 35.5t84 17.5q57 0 101.5 -28.5t44.5 -88.5q0 -59 -17.5 -107.5t-48.5 -90t-74 -80.5t-94 -78q-25 -20 -57.5 -42t-65 -40.5t-63.5 -30.5 t-51 -12q-39 0 -55.5 18.5t-19.5 46zM635 72q0 25 37 157q29 106 47 169t22 85q68 264 66 330q0 49 -33 47q-39 -4 -106 -59q-14 -14 -19 -2q0 8 21 22q186 135 248 135q37 0 28 -55q-2 -14 -30.5 -117.5t-84.5 -302.5q-59 -215 -61 -303q0 -43 12.5 -62.5t44.5 -19.5 q76 2 162 99q18 23 23 18q4 -6 -11 -27q-49 -55 -147 -118q-104 -68 -154 -68q-37 0 -51 17.5t-14 54.5z" />
<glyph unicode="&#x44c;" horiz-adv-x="626" d="M38 58.5q-3 27.5 1 58t6 57.5q4 16 19.5 62.5t31 96.5t28.5 90t13 44q33 133 49.5 214t16.5 116q0 47 -33 47q-39 -4 -107 -60q-8 -8 -12 -8q-6 0 -6 6q0 8 21 23q186 135 247 135q31 0 31 -35l-2 -11t-13.5 -54t-35 -131t-66.5 -244q-31 -109 -45 -183.5t-16 -119.5 q2 -33 11 -51.5t30 -14.5q63 10 113.5 48t84 89.5t53 108.5t21.5 107q2 68 -23.5 87t-64.5 15t-80 -23.5t-67 -27.5l32 39q47 18 78 35.5t84 17.5q57 0 101.5 -28.5t44.5 -88.5q0 -59 -17.5 -107.5t-48.5 -90t-74 -80.5t-94 -78q-25 -20 -57.5 -42t-65 -40.5t-63.5 -30.5 t-51 -12q-39 0 -55.5 18.5t-19.5 46z" />
<glyph unicode="&#x44d;" horiz-adv-x="587" d="M-61 57q23 31 55 9q47 -31 98 -31q154 0 256 233q33 72 53 144q-27 -14 -43 -15q-31 0 -63 2q-72 14 -115 15q-41 0 -71 -43l-5 2q51 88 97 88q23 0 104 -25q37 -14 76 -14q8 0 25 4q30 114 30 223q0 223 -160 223q-49 0 -108 -38q-41 -29 -59 -52q-12 -16 -19 -12 q-8 4 4 23q29 43 105 88q94 57 174 57q178 0 178 -231q0 -203 -117 -412q-78 -137 -180 -225q-115 -94 -225 -95q-49 0 -76 19q-41 27 -14 63z" />
<glyph unicode="&#x44e;" horiz-adv-x="1153" d="M8 -31q-2 6 10 25q25 35 42.5 77t39.5 119q8 29 18.5 67t19.5 77t19.5 77t18.5 66q51 203 62 289q10 84 -37 84q-14 0 -97 -43q-29 -16 -30 -12q-2 2 -2 6q0 2 22 18q186 121 266 121q39 0 23 -72q-16 -53 -42 -141t-60 -211q16 -4 35.5 -7t37.5 -5q86 -12 183 14 q53 154 161 283q43 53 113 96q82 53 147 53q154 0 146 -235q-12 -334 -217 -565q-141 -160 -260 -160q-152 0 -142 246q4 125 37 237q-45 -8 -96 -8t-104 12q-29 0 -50 6q-2 -4 -2 -10q-16 -66 -27.5 -119t-17.5 -94q-18 -72 -43.5 -139.5t-81.5 -106.5q-27 -18 -69 -45 q-16 -10 -23 0zM238 492q0 -8 1 -16.5t2 -11.5t2 2t5 21q-2 2 -4 2t-6 3zM576 462.5q0 -4.5 4 20.5h-2q-2 -16 -2 -20.5zM596 303q-4 -104 30 -168.5t95 -64.5q86 2 149 108q111 188 123 469q4 104 -29.5 173t-97.5 69q-78 0 -145 -117q-113 -197 -125 -469z" />
<glyph unicode="&#x44f;" horiz-adv-x="894" d="M-139 -16l6 49q33 -18 64.5 -22.5t63.5 9t66.5 50t73.5 102.5q55 92 153.5 165t243.5 120l-2 12q-72 -6 -129 8.5t-98 42t-60.5 67.5t-13.5 85q12 92 66.5 141t134.5 72.5t179.5 30t203.5 10.5l6 4q10 4 23.5 14t21.5 10q10 0 10 -6t-10 -22q-72 -100 -157 -451 q-29 -106 -45.5 -183t-16.5 -120t12.5 -62.5t44.5 -19.5q39 0 79 25.5t83 72.5q14 18 21 19q4 0 4 -4q0 -16 -20.5 -39t-52.5 -45.5t-68.5 -45t-71.5 -40t-62.5 -28.5t-38.5 -11q-37 0 -51 17.5t-14 54.5q0 12 11 64t26.5 114.5t31 121t23.5 85.5q-72 0 -134 -46.5 t-113.5 -106.5t-90.5 -120.5t-65 -91.5q-39 -43 -84 -67.5t-90 -36t-88 -10.5t-76 12zM348 664q0 -57 20.5 -94.5t57.5 -56.5t86 -25.5t106 -2.5q14 51 29 111.5t23 95.5q16 41 33.5 97.5t37.5 91.5q-35 8 -69.5 9t-87.5 1q-57 0 -101.5 -18.5t-74 -50t-45 -72.5t-15.5 -86z " />
<glyph unicode="&#x451;" horiz-adv-x="563" d="M-8 201q2 223 117 424q59 104 159 198q125 117 219 117q76 0 76 -86q0 -150 -145 -258q-109 -80 -195 -100q-25 -6 -24 4q0 16 16 18q68 10 121 47q127 88 127 260q0 63 -47 64q-37 0 -84 -37q-78 -61 -131 -186q-80 -191 -92 -357q-8 -129 32.5 -196.5t130.5 -67.5 q84 0 174 90q18 14 23 10q6 -4 -12 -24q-45 -47 -115 -86q-92 -53 -172 -55q-100 -2 -143 61q-35 53 -35 160zM297 1137q0 12 43 47q33 27 43 26q12 1 41 -36q20 -27 20 -37q0 -12 -36.5 -45t-47.5 -33q-12 0 -37.5 33.5t-25.5 44.5zM545 1137q0 12 41 47q31 27 43 26 q10 1 41 -36q23 -29 22 -37q0 -12 -38 -44t-48 -32t-35.5 32.5t-25.5 43.5z" />
<glyph unicode="&#x454;" horiz-adv-x="589" d="M-8 207q0 203 117 411q78 137 180 226q115 94 225 94q49 0 76 -18q41 -27 14 -64q-23 -31 -55 -8q-47 31 -98 31q-154 0 -256 -234q-51 -115 -74 -221q12 -2 18 -2q39 0 76 14q82 25 104 25q45 0 97 -88l-4 -2q-31 43 -72 43q-43 0 -115 -15q-33 -2 -63 -2q-16 0 -43 13 q-13 -74 -13 -146q0 -223 160 -223q49 0 109 39q41 29 59 51q12 16 19 12q8 -4 -4 -22q-29 -43 -105 -88q-94 -57 -174 -58q-178 0 -178 232z" />
<glyph unicode="&#x456;" horiz-adv-x="499" d="M51 55q0 27 37 158q59 211 70 254q67 262 65 330q0 49 -33 47q-35 -2 -106 -60q-14 -14 -18 -2q0 8 20 23q188 135 248 135q39 0 28 -55q-4 -27 -114 -420q-59 -215 -62 -303q0 -43 12.5 -62.5t45.5 -19.5q76 2 162 98q18 23 22 19q6 -6 -10 -27q-51 -57 -148 -119 q-104 -68 -153 -67q-37 0 -51.5 17t-14.5 54zM305 1196q0 27 19.5 45.5t46.5 18.5t46 -18.5t19 -45.5t-19.5 -46.5t-45.5 -19.5q-27 0 -46.5 19.5t-19.5 46.5z" />
<glyph unicode="&#x457;" horiz-adv-x="499" d="M51 55q0 27 37 158q59 211 70 254q67 262 65 330q0 49 -33 47q-35 -2 -106 -60q-14 -14 -18 -2q0 8 20 23q188 135 248 135q39 0 28 -55q-4 -27 -114 -420q-59 -215 -62 -303q0 -43 12.5 -62.5t45.5 -19.5q76 2 162 98q18 23 22 19q6 -6 -10 -27q-51 -57 -148 -119 q-104 -68 -153 -67q-37 0 -51.5 17t-14.5 54zM184 1196q0 27 19.5 45.5t46.5 18.5t46 -18.5t19 -45.5t-19.5 -46.5t-45.5 -19.5q-27 0 -46.5 19.5t-19.5 46.5zM432 1196q0 27 19.5 45.5t46.5 18.5t46 -18.5t19 -45.5t-19.5 -46.5t-45.5 -19.5q-27 0 -46.5 19.5t-19.5 46.5z " />
<glyph unicode="&#x2000;" horiz-adv-x="861" />
<glyph unicode="&#x2001;" horiz-adv-x="1722" />
<glyph unicode="&#x2002;" horiz-adv-x="861" />
<glyph unicode="&#x2003;" horiz-adv-x="1722" />
<glyph unicode="&#x2004;" horiz-adv-x="574" />
<glyph unicode="&#x2005;" horiz-adv-x="430" />
<glyph unicode="&#x2006;" horiz-adv-x="287" />
<glyph unicode="&#x2007;" horiz-adv-x="287" />
<glyph unicode="&#x2008;" horiz-adv-x="215" />
<glyph unicode="&#x2009;" horiz-adv-x="344" />
<glyph unicode="&#x200a;" horiz-adv-x="95" />
<glyph unicode="&#x2010;" horiz-adv-x="657" d="M74 455q-8 2 8 51q29 82 94 82q14 0 85 -3t89 -3q143 0 172 12q10 4 18.5 16.5t12.5 12.5q12 0 -4 -41q-20 -51 -33 -68q-18 -23 -55 -22q-31 0 -111 4t-112 4q-115 -1 -138 -17q-4 -4 -13 -17t-13 -11z" />
<glyph unicode="&#x2011;" horiz-adv-x="657" d="M74 455q-8 2 8 51q29 82 94 82q14 0 85 -3t89 -3q143 0 172 12q10 4 18.5 16.5t12.5 12.5q12 0 -4 -41q-20 -51 -33 -68q-18 -23 -55 -22q-31 0 -111 4t-112 4q-115 -1 -138 -17q-4 -4 -13 -17t-13 -11z" />
<glyph unicode="&#x2012;" horiz-adv-x="657" d="M74 455q-8 2 8 51q29 82 94 82q14 0 85 -3t89 -3q143 0 172 12q10 4 18.5 16.5t12.5 12.5q12 0 -4 -41q-20 -51 -33 -68q-18 -23 -55 -22q-31 0 -111 4t-112 4q-115 -1 -138 -17q-4 -4 -13 -17t-13 -11z" />
<glyph unicode="&#x2013;" horiz-adv-x="827" d="M70 469q4 14 14 37q25 51 55 69q25 12 78 13q20 0 109.5 -2t113.5 -2q201 0 242 12q14 4 26.5 16.5t16.5 12.5q16 0 -6 -41q-27 -49 -45 -66q-27 -23 -78 -22q-45 0 -145.5 2t-147.5 2q-161 -1 -194 -17q-4 -2 -15.5 -15t-17.5 -13q-8 0 -6 14z" />
<glyph unicode="&#x2014;" horiz-adv-x="995" d="M74 455q-12 2 11.5 52t53.5 68q25 12 78 13q20 0 193.5 -2t197.5 -2q201 0 242 12q14 4 26.5 16.5t16.5 12.5q16 0 -6 -41q-27 -49 -45 -66q-27 -23 -78 -22q-45 0 -229.5 2t-231.5 2q-161 -1 -194 -17q-4 -2 -16.5 -16t-18.5 -12z" />
<glyph unicode="&#x2018;" horiz-adv-x="221" d="M145 1092q0 59 68 155q53 76 115 129q14 14 20 8q2 -4 -16 -30q-35 -47 -62 -133q-18 -59 -18 -112.5t-51 -61.5q-55 -10 -56 45z" />
<glyph unicode="&#x2019;" horiz-adv-x="237" d="M158 1032q-2 4 16 31q35 47 62 133q18 59 18 112.5t51 61.5q55 10 55 -45q0 -59 -67 -156q-53 -76 -115 -129q-14 -14 -20 -8z" />
<glyph unicode="&#x201a;" horiz-adv-x="262" d="M-86 -242q-2 4 16 31q35 47 62 133q18 59 18 112.5t51 61.5q55 10 56 -45q0 -59 -68 -155q-53 -76 -115 -129q-14 -15 -20 -9z" />
<glyph unicode="&#x201c;" horiz-adv-x="432" d="M139 1092q0 59 68 155q53 76 115 129q14 14 20 8q2 -4 -16 -30q-35 -47 -62 -133q-18 -59 -18 -112.5t-51 -61.5q-55 -10 -56 45zM360 1092q0 59 68 155q53 76 115 129q14 14 20 8q2 -4 -16 -30q-35 -47 -62 -133q-18 -59 -18 -112.5t-51 -61.5q-55 -10 -56 45z" />
<glyph unicode="&#x201d;" horiz-adv-x="456" d="M139 1032q-2 4 17 31q35 47 61 133q18 59 18.5 112.5t51.5 61.5q55 10 55 -45q0 -59 -68 -156q-53 -76 -114 -129q-15 -14 -21 -8zM369 1032q-2 4 16 31q35 47 61 133q18 59 18.5 112.5t51.5 61.5q55 10 55 -45q0 -59 -67 -156q-53 -76 -115 -129q-14 -14 -20 -8z" />
<glyph unicode="&#x201e;" horiz-adv-x="485" d="M-86 -242q-2 4 16 31q35 47 62 133q18 59 18 112.5t51 61.5q55 10 56 -45q0 -59 -68 -155q-53 -76 -115 -129q-14 -15 -20 -9zM137 -242q-2 4 17 31q35 47 61 133q18 59 18 112.5t52 61.5q55 10 55 -45q0 -59 -68 -155q-53 -76 -114 -129q-15 -15 -21 -9z" />
<glyph unicode="&#x2022;" horiz-adv-x="264" d="M61 528q0 72 72 72t72 -72q0 -70 -72 -69q-72 0 -72 69z" />
<glyph unicode="&#x2026;" horiz-adv-x="1087" d="M18 47q0 14 45 51q37 29 50 29q14 0 45 -41q25 -31 24 -41q0 -14 -45 -53q-37 -33 -49 -33t-41 37t-29 51zM403 47q0 14 46 51q37 29 49 29q14 0 45 -41q25 -31 24 -41q0 -14 -45 -53q-37 -33 -49 -33t-41 37t-29 51zM786 47q0 14 45 51q37 29 50 29q14 0 45 -41 q25 -31 24 -41q0 -14 -45 -53q-37 -33 -49 -33t-41 37t-29 51z" />
<glyph unicode="&#x202f;" horiz-adv-x="344" />
<glyph unicode="&#x2039;" horiz-adv-x="413" d="M27 461q-10 14 4 28q45 29 293 246q6 6 20 -12q8 -23 6 -27q-188 -147 -237 -196q-16 -10 -7 -25q33 -47 170 -256q7 -8 3 -18q-6 -8 -23 -25q-16 -23 -31 -16l-10 6q-88 168 -188 295z" />
<glyph unicode="&#x203a;" horiz-adv-x="413" d="M41 184q143 135 217 219q12 14 2 27q-49 53 -201 240q-6 8 0 18q4 10 17 27q20 20 28 20q4 4 7 0q4 -6 6 -6q100 -152 221 -276q12 -13 0 -29q-45 -37 -266 -277q-6 -4 -21 11q-12 23 -10 26z" />
<glyph unicode="&#x205f;" horiz-adv-x="430" />
<glyph unicode="&#x2122;" horiz-adv-x="710" d="M154 1212q4 8 16 21q6 8 20 8q16 -4 103 -6q33 0 70.5 3t39.5 3q13 0 9 -6t-23 -25q-4 -2 -72 -2q-6 -2 -6 -10q-20 -45 -37 -113q-20 -80 -20 -124q0 -27 4 -25h-6q-31 -18 -57 -18q-4 2 -8.5 6t-2.5 22q25 96 62 252q14 6 -2 12q-68 0 -84 -4q-6 2 -6 6zM360 930 q45 109 82 274q6 8 7 25q0 4 4 8q12 2 34 6q16 0 17 -10q18 -72 32.5 -109t38.5 -102q0 -8 3 -8q8 2 12 10q45 74 117 186q6 12 38 23q14 8 27 8q10 4 10 -8q-14 -23 -24 -130.5t-4 -135.5q2 -6 6 -15q4 -4 -2 -10q-12 -6 -47 -16q-27 -6 -27 20q0 16 23 205q0 4 -2 6 q0 -6 -7 -6q-45 -76 -127 -203q-8 -10 -26 -22q-6 0 -29 59q-10 33 -20.5 65.5t-32.5 98.5q0 4 -4 6v-6q-20 -74 -56 -201q-14 -23 -38 -22q-4 0 -5 4z" />
<glyph unicode="&#x25fc;" horiz-adv-x="952" d="M0 0v952h952v-952h-952z" />
</font>
</defs>
</svg>
