<?xml version="1.0"?>
<!--Icons from directory ""-->
<svg xmlns="http://www.w3.org/2000/svg" width="182" height="410" viewBox="0 0 182 410"><svg xmlns:xlink="http://www.w3.org/1999/xlink" id="d1" xml:space="preserve" height="67" viewBox="67.799 5.782 50 67.15" width="50" version="1.1" y="0" x="0px" enable-background="new 67.799 5.782 50 67.15"><path d="m114.16 6.393h-42.724c-2.266 0-3.183 0.916-3.183 3.182v59.565c0 2.265 0.917 3.181 3.183 3.181h42.726c2.267 0 3.182-0.916 3.182-3.183v-59.563c0-2.266-0.91-3.182-3.18-3.182zm-38.406 16.36h15.682v4.773h-15.682v-4.773zm34.086 34.091h-34.09v-4.772h34.09v4.772zm0-10.228h-34.09v-4.772h34.09v4.772zm0-9.545h-34.09v-4.772h34.09v4.772z" fill="#F2EFEC"/></svg><svg xmlns:xlink="http://www.w3.org/1999/xlink" id="d2" xml:space="preserve" height="66" viewBox="1.998 5.121 50 66.285" width="50" version="1.1" y="67" x="0px" enable-background="new 1.998 5.121 50 66.285"><path d="m49.265 5.656h-32.262-4.66-3.6c-1.281 0-3.116 0.694-4.077 1.54l-0.517 0.456c-0.962 0.847-1.748 2.589-1.748 3.87v57.018c0 1.282 1.048 2.331 2.329 2.331h40.519c1.283 0 2.33-1.049 2.33-2.331v-55.239c0-1.282-1.047-2.33-2.33-2.33h-27.085c0-0.848-0.688-1.536-1.534-1.536s-1.533 0.688-1.533 1.536v15.989l-3.858-3.768-3.339 3.768v-15.99h-3.17c-0.017 0-0.031 0.004-0.048 0.005l2.506-2.87h42.038v58.226h0.038c1.279 0 2.33-1.049 2.33-2.33v-56.014c0.001-1.283-1.048-2.331-2.329-2.331z" fill="#F2EFEC"/></svg><svg xmlns:xlink="http://www.w3.org/1999/xlink" id="d3" xml:space="preserve" height="75" viewBox="-63.993 -0.427 58 75.038" width="58" version="1.1" y="133" x="0px" enable-background="new -63.993 -0.427 58 75.038"><path d="m-33.226 63.774l7.006 9.979h3.367l-7.006-9.979h21.537s1.665 0.298 1.665-1.519c0-1.814-1.665-1.814-1.665-1.814h-53.343s-1.666 0-1.666 1.814c0 1.816 1.666 1.519 1.666 1.519h23.745l-7.012 9.979h3.365l7.013-9.979h1.328zm-23.437-53.342s-6.667 0-6.667 6.667v33.337c0 6.666 6.667 6.666 6.667 6.666h43.339s6.667 0 6.667-6.666v-33.336c0-6.667-6.667-6.667-6.667-6.667h-43.339v-0.001zm23.337-6.668l0.171-3.333h-3.505v3.333h-3.333v3.333h10.002v-3.333h-3.335z" fill="#F2EFEC"/></svg><svg xmlns:xlink="http://www.w3.org/1999/xlink" id="d4" xml:space="preserve" height="57" viewBox="20.355 21.862 56.886 56.884" width="57" version="1.1" y="208" x="0px" enable-background="new 20.355 21.862 56.886 56.884"><g id="d4-Your_Icon">	<g fill="#F2EFEC">		<path d="m70.692 22.166c-1.438 0-17.417 1.323-27.255 14.92 5.36 4.282 14.299 13.22 18.58 18.579 13.597-9.838 14.92-25.818 14.92-27.255 0-1.561-4.684-6.244-6.245-6.244z"/>		<path d="m31.786 54.438c-2.884 1.055-6.942 2.648-7.923 3.629-1.561 1.562 1.562 12.489 0 14.049-1.561 1.562-5.074 1.951-1.951 5.074 3.121 3.121 3.512-0.39 5.073-1.952 1.562-1.561 12.488 1.563 14.049 0 0.98-0.979 2.576-5.039 3.628-7.922-2.701-1.168-11.71-10.176-12.876-12.878zm0.684 13.798c-1.12 1.12-3.061 2.728-3.7 2.089s0.957-2.592 2.077-3.712c1.12-1.122 3.073-2.717 3.713-2.078s-0.971 2.579-2.09 3.701z"/>		<path d="m41.926 39.354c-0.035-0.01-0.067-0.017-0.094-0.017-2.897 0 0.656 2.787-3.691 8.583-1.943 2.592-4.584 2.794-4.131 4.685 0.051 0.212 0.21 0.516 0.456 0.889 1.818 2.76 8.385 9.322 11.142 11.142 0.372 0.245 0.677 0.406 0.889 0.457 1.893 0.453 2.093-2.187 4.687-4.133 5.795-4.345 8.581-0.792 8.581-3.69 0-0.025-0.006-0.059-0.016-0.094-0.559-1.906-15.916-17.263-17.823-17.822z"/>	</g></g></svg><svg xmlns:xlink="http://www.w3.org/1999/xlink" id="d5" xml:space="preserve" height="57" viewBox="0 0 56.887 56.883" width="57" version="1.1" y="265" x="0px" enable-background="new 0 0 56.887 56.883"><g fill="#F2EFEC">	<path d="m47.951 0.263h-39.018c-3.397 0-6.161 2.763-6.161 6.159v28.923c0 3.396 2.764 6.16 6.161 6.16h39.018c3.4 0 6.162-2.764 6.162-6.16v-28.924c0-3.395-2.762-6.158-6.162-6.158zm2.059 35.082c0 1.134-0.922 2.055-2.059 2.055h-39.018c-1.13 0-2.054-0.921-2.054-2.055v-28.924c0-1.132 0.923-2.054 2.054-2.054h39.018c1.137 0 2.059 0.921 2.059 2.054v28.924z"/>	<path d="m49.224 42.533h-41.562c-2.334 0-4.227 1.894-4.227 4.228v5.635c0 2.333 1.893 4.226 4.227 4.226h41.562c2.332 0 4.227-1.893 4.227-4.226v-5.636c0-2.334-1.895-4.227-4.227-4.227zm-0.97 8.012h-16.903c-0.538 0-0.971-0.433-0.971-0.969 0-0.533 0.433-0.968 0.971-0.968h16.902c0.537 0 0.971 0.435 0.971 0.968 0 0.537-0.433 0.969-0.97 0.969z"/>	<polygon points="24.638 14.3 24.638 13.435 9.732 6.571 8.933 7.371 15.871 22.436 16.559 22.436 18.517 19.279 25.419 26.179 28.541 23.058 21.645 16.163"/></g></svg><svg xmlns:xlink="http://www.w3.org/1999/xlink" id="logoline1" xml:space="preserve" height="40" viewBox="0 0 132 40" width="132" version="1.1" y="322" x="0px" enable-background="new 0 0 132 40"><g fill="#A39B97">	<path d="m67.238 26.74c-0.81-3.5 2.97-8.808 7.982-11.306 3.708-1.848 9.099-1.66 9.015 1.16-0.097 3.18-9.213 4.013-13.635 6.496-2.001 1.123-2.751 2.074-3.362 3.65z"/>	<path d="m67.332 19.042c0.364-1.349 0.896-2.196 2.442-3.294 3.417-2.427 10.842-3.905 10.64-6.529-0.178-2.327-4.629-2.012-7.516-0.169-3.901 2.489-6.542 7.183-5.566 9.992z"/>	<path d="m68.785 10.222c2.077-2.14 7.083-4.132 6.599-5.944-0.429-1.606-3.505-0.812-5.286 0.85-2.407 2.247-3.642 5.875-2.594 7.717 0.079-0.992 0.341-1.655 1.281-2.623z"/>	<path d="m68.066 5.14c1.084-1.423 3.927-2.965 3.509-4.01-0.37-0.927-2.149-0.237-3.091 0.879-1.276 1.51-1.753 3.761-0.994 4.784-0.024-0.596 0.085-1.01 0.576-1.653z"/>	<path d="m124.62 20.886c-0.142-0.098-0.303-0.167-0.489-0.198 0.19 0.039 0.35 0.108 0.49 0.198z"/>	<path d="m76.052 25.843s1.588 0.153 2.479 0.482c0.76 0.28 2.046 0.749 3.023 1.234 6.551 3.262 14.906 12.237 23.535 7.744 8.629-4.494-1.514-5.676-5.174-7.666h0.005c-1.572-0.854-3.246-1.641-3.781-3.253 0.936-1.538 3.68-1.34 4.806-1.079 6.888 1.601 14.069 6.774 21.071 7.397 0.06 0.006 0.12 0.013 0.179 0.018 0.021 0.001 0.042 0.004 0.064 0.006l-0.003-0.003c1.493 0.089 3.001-0.226 4.331-0.916 3.515-1.821 5.531-6.249 3.758-9.941-1.732-3.605-6.693-5.243-9.836-2.361-1.455 1.335-2.199 3.458-1.589 5.37 0.594 1.864 2.419 3.303 4.422 3.264 1.987-0.038 3.776-1.67 3.827-3.679 0.05-1.98-1.917-3.791-3.925-3.179-1.961 0.597-2.703 3.471-0.643 4.465 0.909 0.439 2.032 0.16 2.53-0.743 0.412-0.749 0.183-1.686-0.507-2.116 0.522 0.356 0.724 1.093 0.472 1.695-0.332 0.791-1.229 1.173-2.042 0.921-1.857-0.574-1.699-3.035-0.16-3.875 1.906-1.042 4.094 0.804 3.924 2.798-0.175 2.051-2.262 3.447-4.243 3.001-1.957-0.44-3.354-2.28-3.25-4.269 0.103-1.975 1.534-3.725 3.395-4.359 4.034-1.375 7.955 2.526 7.47 6.485-0.497 4.04-4.512 6.886-8.511 6.207 0 0-1.589-0.153-2.479-0.481-0.76-0.28-2.046-0.749-3.023-1.235-6.552-3.261-17.402-14.145-23.536-7.744-6.132 6.401 1.516 5.676 5.175 7.666l-0.006 0.001c1.572 0.854 3.247 1.64 3.781 3.254-0.936 1.537-3.68 1.339-4.806 1.078-6.888-1.601-14.069-6.775-21.071-7.398-0.059-0.006-0.12-0.013-0.179-0.017-0.021-0.002-0.042-0.005-0.063-0.005 0 0 0.002 0.002 0.002 0.003-1.494-0.089-3 0.225-4.331 0.915-3.515 1.822-5.532 6.249-3.758 9.941 1.732 3.605 6.693 5.243 9.835 2.361 1.455-1.335 2.2-3.458 1.589-5.37-0.593-1.864-2.419-3.303-4.421-3.264-1.987 0.038-3.776 1.67-3.828 3.678-0.05 1.98 1.918 3.791 3.926 3.179 1.96-0.597 2.702-3.47 0.642-4.464-0.909-0.44-2.032-0.161-2.53 0.742-0.413 0.75-0.183 1.688 0.507 2.117-0.521-0.357-0.723-1.093-0.471-1.695 0.332-0.791 1.229-1.172 2.042-0.921 1.859 0.575 1.7 3.036 0.16 3.876-1.905 1.042-4.093-0.804-3.922-2.798 0.175-2.051 2.262-3.447 4.242-3 1.957 0.44 3.354 2.279 3.249 4.269-0.102 1.974-1.532 3.725-3.394 4.359-4.034 1.375-7.955-2.525-7.469-6.485 0.496-4.042 4.512-6.89 8.511-6.21z"/>	<path d="m61.401 23.09c2 1.124 2.75 2.074 3.361 3.65 0.81-3.5-2.969-8.808-7.981-11.306-3.707-1.848-9.099-1.66-9.014 1.16 0.096 3.18 9.213 4.013 13.634 6.496z"/>	<path d="m62.226 15.747c1.546 1.098 2.079 1.945 2.443 3.294 0.975-2.808-1.666-7.502-5.567-9.993-2.886-1.843-7.337-2.157-7.517 0.169-0.201 2.625 7.224 4.103 10.641 6.53z"/>	<path d="m63.215 10.222c0.939 0.968 1.202 1.631 1.28 2.622 1.049-1.841-0.186-5.47-2.593-7.717-1.781-1.662-4.856-2.456-5.286-0.85-0.484 1.813 4.523 3.805 6.599 5.945z"/>	<path d="m63.933 5.14c0.491 0.643 0.6 1.057 0.576 1.653 0.757-1.024 0.28-3.274-0.995-4.784-0.942-1.117-2.72-1.808-3.091-0.879-0.418 1.045 2.426 2.587 3.51 4.01z"/>	<path d="m7.376 20.886c0.144-0.09 0.307-0.159 0.49-0.198-0.185 0.031-0.348 0.101-0.49 0.198z"/>	<path d="m60.856 25.526c-1.33-0.69-2.837-1.004-4.33-0.915 0-0.002 0-0.002 0.001-0.004-0.021 0.001-0.042 0.004-0.062 0.006-0.061 0.003-0.12 0.011-0.18 0.017-7.001 0.623-14.183 5.796-21.071 7.397-1.126 0.262-3.869 0.459-4.806-1.079 0.534-1.614 2.209-2.399 3.781-3.254l-0.005-0.001c3.659-1.99 11.308-1.265 5.174-7.667-6.133-6.4-16.983 4.483-23.535 7.744-0.977 0.486-2.263 0.955-3.023 1.235-0.89 0.329-2.479 0.482-2.479 0.482-3.998 0.679-8.014-2.167-8.511-6.207-0.486-3.959 3.436-7.859 7.47-6.485 1.861 0.634 3.291 2.385 3.394 4.359 0.104 1.989-1.292 3.829-3.249 4.269-1.981 0.446-4.067-0.95-4.243-3.001-0.169-1.992 2.018-3.836 3.923-2.796 1.541 0.841 1.699 3.302-0.16 3.876-0.813 0.251-1.71-0.131-2.041-0.921-0.252-0.602-0.05-1.339 0.471-1.696-0.69 0.43-0.92 1.368-0.507 2.117 0.497 0.902 1.621 1.182 2.53 0.742 2.059-0.995 1.319-3.868-0.642-4.465-2.008-0.611-3.976 1.199-3.926 3.179 0.052 2.009 1.84 3.641 3.828 3.679 2.002 0.04 3.827-1.4 4.422-3.264 0.61-1.913-0.134-4.036-1.589-5.37-3.143-2.882-8.103-1.244-9.835 2.361-1.774 3.692 0.243 8.119 3.758 9.941 1.33 0.689 2.838 1.003 4.331 0.915 0 0.002-0.001 0.003-0.001 0.004 0.021-0.001 0.042-0.004 0.063-0.006 0.06-0.004 0.12-0.011 0.179-0.017 7.001-0.623 14.183-5.796 21.071-7.397 1.126-0.262 3.87-0.459 4.806 1.078-0.535 1.614-2.209 2.399-3.781 3.254l0.005 0.001c-3.659 1.99-13.803 3.172-5.174 7.666 8.629 4.493 16.984-4.483 23.535-7.744 0.976-0.485 2.263-0.954 3.023-1.234 0.89-0.329 2.479-0.482 2.479-0.482 3.999-0.68 8.015 2.167 8.51 6.207 0.486 3.959-3.435 7.859-7.469 6.485-1.861-0.634-3.291-2.385-3.394-4.359-0.105-1.99 1.291-3.828 3.249-4.269 1.981-0.446 4.067 0.95 4.243 3 0.17 1.994-2.017 3.839-3.922 2.798-1.541-0.841-1.699-3.301 0.159-3.876 0.813-0.25 1.709 0.131 2.042 0.921 0.252 0.602 0.05 1.338-0.471 1.695 0.69-0.429 0.92-1.367 0.507-2.117-0.497-0.902-1.621-1.182-2.529-0.742-2.06 0.995-1.319 3.867 0.642 4.464 2.008 0.612 3.976-1.199 3.926-3.179-0.051-2.008-1.841-3.64-3.827-3.678-2.003-0.039-3.828 1.4-4.422 3.264-0.611 1.912 0.134 4.035 1.589 5.37 3.143 2.881 8.103 1.244 9.835-2.361 1.769-3.691-0.248-8.118-3.762-9.94z"/></g></svg><svg xmlns:xlink="http://www.w3.org/1999/xlink" id="logoline2" xml:space="preserve" height="3" viewBox="0 0 50.502 3" width="51" version="1.1" y="362" x="0px" enable-background="new 0 0 50.502 3"><path d="m50.502 3l-35.228-1.102s-2.493-0.027-3.001-1.561c-0.509-1.534-12.273 2.663-12.273 2.663h50.502z" fill="#A39B97"/></svg><svg xmlns:xlink="http://www.w3.org/1999/xlink" id="logoline3" xml:space="preserve" height="3" viewBox="0 0 50.502 3" width="51" version="1.1" y="365" x="0px" enable-background="new 0 0 50.502 3"><path d="m0 3l35.228-1.102s2.493-0.027 3.001-1.561c0.509-1.534 12.273 2.663 12.273 2.663h-50.502z" fill="#A39B97"/></svg><svg xmlns:xlink="http://www.w3.org/1999/xlink" id="logoline4" xml:space="preserve" height="42" viewBox="0 0 182 42" width="182" version="1.1" y="368" x="0px" enable-background="new 0 0 182 42"><path d="m95.503 24.023c0.002-0.002 0.003-0.003 0.005-0.004-0.022-0.011-0.045-0.02-0.067-0.03-0.063-0.03-0.127-0.057-0.19-0.086-4.96-2.27-10.308-2.894-17.021-2.998l-77.23 2.51h77.115v0.003c3.399 0.027 6.696-0.101 9.526 0.065 1.27 0.074 2.843 0.344 3.774 0.499 1.091 0.184 2.784 0.943 2.784 0.943 4.433 1.615 6.813 6.777 4.944 11.11-1.832 4.245-8.076 5.901-11.34 2.206-1.505-1.705-1.921-4.282-0.867-6.318 1.062-2.054 3.55-3.095 5.782-2.411 2.26 0.691 3.546 3.29 2.52 5.445-0.999 2.096-4.287 2.688-5.599 0.549-1.061-1.729 0.222-4.286 2.436-3.792 0.967 0.214 1.647 1.112 1.517 2.095-0.098 0.749-0.733 1.37-1.469 1.43 0.947-0.034 1.73-0.842 1.754-1.83 0.027-1.19-0.941-2.115-2.117-2.198-2.661-0.187-3.6 3.119-1.972 4.845 1.667 1.767 4.715 1.082 5.827-0.93 1.127-2.043 0.277-4.707-1.704-5.887-1.998-1.19-4.682-0.797-6.376 0.73-1.737 1.564-2.231 4.12-1.547 6.295 1.48 4.694 7.444 5.903 11.308 3.285 3.955-2.68 4.517-8.276 2.041-12.121-0.939-1.455-2.275-2.636-3.834-3.405zm-9.005-6.046c-0.001 0.002-0.003 0.002-0.005 0.003 0.022 0.01 0.045 0.02 0.067 0.03 0.063 0.03 0.127 0.057 0.19 0.086 4.961 2.27 10.309 2.893 17.021 2.998l77.23-2.51h-77.114v-0.003c-3.398-0.027-6.696 0.1-9.526-0.064-1.27-0.075-2.843-0.345-3.773-0.5-1.091-0.184-2.784-0.943-2.784-0.943-4.433-1.616-6.813-6.777-4.944-11.11 1.832-4.245 8.076-5.902 11.339-2.206 1.505 1.705 1.92 4.282 0.867 6.318-1.063 2.054-3.55 3.095-5.783 2.411-2.259-0.691-3.545-3.29-2.519-5.444 0.999-2.097 4.288-2.688 5.599-0.55 1.061 1.729-0.222 4.285-2.435 3.792-0.968-0.215-1.647-1.112-1.518-2.096 0.099-0.748 0.734-1.37 1.469-1.429-0.948 0.034-1.73 0.841-1.753 1.83-0.028 1.19 0.941 2.115 2.117 2.197 2.661 0.187 3.599-3.119 1.972-4.844-1.667-1.767-4.715-1.082-5.826 0.93-1.127 2.042-0.279 4.706 1.703 5.887 1.998 1.189 4.683 0.797 6.376-0.73 1.738-1.564 2.232-4.121 1.548-6.295-1.48-4.694-7.445-5.903-11.308-3.286-3.956 2.681-4.518 8.276-2.042 12.121 0.933 1.456 2.27 2.637 3.829 3.407z" fill="#A39B97"/></svg></svg>
